<ttFont>
    <TTGlyph name=".notdef" xMin="99" yMin="0" xMax="537" yMax="760">
      <contour>
        <pt x="537" y="760" on="1"/>
        <pt x="537" y="0" on="1"/>
        <pt x="99" y="0" on="1"/>
        <pt x="99" y="760" on="1"/>
      </contour>
      <contour>
        <pt x="179" y="690" on="1"/>
        <pt x="179" y="70" on="1"/>
        <pt x="456" y="70" on="1"/>
        <pt x="456" y="690" on="1"/>
      </contour>
    </TTGlyph>
    <TTGlyph name="A" xMin="3" yMin="0" xMax="564" yMax="713">
      <contour>
        <pt x="373" y="713" on="1"/>
        <pt x="564" y="0" on="1"/>
        <pt x="399" y="0" on="1"/>
        <pt x="359" y="173" on="1"/>
        <pt x="206" y="173" on="1"/>
        <pt x="165" y="0" on="1"/>
        <pt x="3" y="0" on="1"/>
        <pt x="190" y="696" on="1"/>
      </contour>
      <contour>
        <pt x="280" y="533" on="1"/>
        <pt x="228" y="292" on="1"/>
        <pt x="338" y="292" on="1"/>
        <pt x="292" y="533" on="1"/>
      </contour>
    </TTGlyph>
    <TTGlyph name="AE" xMin="-10" yMin="0" xMax="807" yMax="708">
      <contour>
        <pt x="543" y="583" on="1"/>
        <pt x="543" y="422" on="1"/>
        <pt x="761" y="422" on="1"/>
        <pt x="743" y="300" on="1"/>
        <pt x="543" y="300" on="1"/>
        <pt x="543" y="124" on="1"/>
        <pt x="807" y="124" on="1"/>
        <pt x="789" y="0" on="1"/>
        <pt x="379" y="0" on="1"/>
        <pt x="379" y="173" on="1"/>
        <pt x="220" y="173" on="1"/>
        <pt x="153" y="0" on="1"/>
        <pt x="-10" y="0" on="1"/>
        <pt x="278" y="708" on="1"/>
        <pt x="802" y="708" on="1"/>
        <pt x="784" y="583" on="1"/>
      </contour>
      <contour>
        <pt x="379" y="292" on="1"/>
        <pt x="379" y="546" on="1"/>
        <pt x="362" y="546" on="1"/>
        <pt x="262" y="292" on="1"/>
      </contour>
    </TTGlyph>
    <TTGlyph name="AEacute" xMin="-10" yMin="0" xMax="807" yMax="932">
      <contour>
        <pt x="543" y="583" on="1"/>
        <pt x="543" y="422" on="1"/>
        <pt x="761" y="422" on="1"/>
        <pt x="743" y="300" on="1"/>
        <pt x="543" y="300" on="1"/>
        <pt x="543" y="124" on="1"/>
        <pt x="807" y="124" on="1"/>
        <pt x="789" y="0" on="1"/>
        <pt x="379" y="0" on="1"/>
        <pt x="379" y="173" on="1"/>
        <pt x="220" y="173" on="1"/>
        <pt x="153" y="0" on="1"/>
        <pt x="-10" y="0" on="1"/>
        <pt x="278" y="708" on="1"/>
        <pt x="802" y="708" on="1"/>
        <pt x="784" y="583" on="1"/>
      </contour>
      <contour>
        <pt x="621" y="932" on="1"/>
        <pt x="671" y="826" on="1"/>
        <pt x="440" y="740" on="1"/>
        <pt x="396" y="821" on="1"/>
      </contour>
      <contour>
        <pt x="379" y="292" on="1"/>
        <pt x="379" y="546" on="1"/>
        <pt x="362" y="546" on="1"/>
        <pt x="262" y="292" on="1"/>
      </contour>
    </TTGlyph>
    <TTGlyph name="Aacute" xMin="3" yMin="0" xMax="564" yMax="932">
      <contour>
        <pt x="412" y="932" on="1"/>
        <pt x="463" y="826" on="1"/>
        <pt x="232" y="740" on="1"/>
        <pt x="187" y="821" on="1"/>
      </contour>
      <contour>
        <pt x="373" y="713" on="1"/>
        <pt x="564" y="0" on="1"/>
        <pt x="399" y="0" on="1"/>
        <pt x="359" y="173" on="1"/>
        <pt x="206" y="173" on="1"/>
        <pt x="165" y="0" on="1"/>
        <pt x="3" y="0" on="1"/>
        <pt x="190" y="696" on="1"/>
      </contour>
      <contour>
        <pt x="280" y="533" on="1"/>
        <pt x="228" y="292" on="1"/>
        <pt x="338" y="292" on="1"/>
        <pt x="292" y="533" on="1"/>
      </contour>
    </TTGlyph>
    <TTGlyph name="Abreve" xMin="3" yMin="0" xMax="564" yMax="905">
      <contour>
        <pt x="373" y="713" on="1"/>
        <pt x="564" y="0" on="1"/>
        <pt x="399" y="0" on="1"/>
        <pt x="359" y="173" on="1"/>
        <pt x="206" y="173" on="1"/>
        <pt x="165" y="0" on="1"/>
        <pt x="3" y="0" on="1"/>
        <pt x="190" y="696" on="1"/>
      </contour>
      <contour>
        <pt x="280" y="533" on="1"/>
        <pt x="228" y="292" on="1"/>
        <pt x="338" y="292" on="1"/>
        <pt x="292" y="533" on="1"/>
      </contour>
      <contour>
        <pt x="444" y="852" on="1"/>
        <pt x="383" y="768" on="0"/>
        <pt x="187" y="768" on="0"/>
        <pt x="124" y="852" on="1"/>
        <pt x="175" y="905" on="1"/>
        <pt x="231" y="861" on="0"/>
        <pt x="333" y="861" on="0"/>
        <pt x="394" y="905" on="1"/>
      </contour>
    </TTGlyph>
    <TTGlyph name="Acaron" xMin="3" yMin="0" xMax="564" yMax="925">
      <contour>
        <pt x="373" y="713" on="1"/>
        <pt x="564" y="0" on="1"/>
        <pt x="399" y="0" on="1"/>
        <pt x="359" y="173" on="1"/>
        <pt x="206" y="173" on="1"/>
        <pt x="165" y="0" on="1"/>
        <pt x="3" y="0" on="1"/>
        <pt x="190" y="696" on="1"/>
      </contour>
      <contour>
        <pt x="280" y="533" on="1"/>
        <pt x="228" y="292" on="1"/>
        <pt x="338" y="292" on="1"/>
        <pt x="292" y="533" on="1"/>
      </contour>
      <contour>
        <pt x="395" y="925" on="1"/>
        <pt x="450" y="868" on="1"/>
        <pt x="318" y="743" on="1"/>
        <pt x="250" y="743" on="1"/>
        <pt x="118" y="868" on="1"/>
        <pt x="173" y="925" on="1"/>
        <pt x="284" y="844" on="1"/>
      </contour>
    </TTGlyph>
    <TTGlyph name="Acircumflex" xMin="3" yMin="0" xMax="564" yMax="924">
      <contour>
        <pt x="318" y="924" on="1"/>
        <pt x="450" y="800" on="1"/>
        <pt x="395" y="743" on="1"/>
        <pt x="284" y="824" on="1"/>
        <pt x="173" y="743" on="1"/>
        <pt x="118" y="800" on="1"/>
        <pt x="250" y="924" on="1"/>
      </contour>
      <contour>
        <pt x="373" y="713" on="1"/>
        <pt x="564" y="0" on="1"/>
        <pt x="399" y="0" on="1"/>
        <pt x="359" y="173" on="1"/>
        <pt x="206" y="173" on="1"/>
        <pt x="165" y="0" on="1"/>
        <pt x="3" y="0" on="1"/>
        <pt x="190" y="696" on="1"/>
      </contour>
      <contour>
        <pt x="280" y="533" on="1"/>
        <pt x="228" y="292" on="1"/>
        <pt x="338" y="292" on="1"/>
        <pt x="292" y="533" on="1"/>
      </contour>
    </TTGlyph>
    <TTGlyph name="Adieresis" xMin="2" yMin="0" xMax="562" yMax="918">
      <contour>
        <pt x="182" y="918" on="1"/>
        <pt x="257" y="918" on="0"/>
        <pt x="257" y="835" on="1"/>
        <pt x="257" y="802" on="0"/>
        <pt x="218" y="760" on="0"/>
        <pt x="174" y="760" on="1"/>
        <pt x="99" y="760" on="0"/>
        <pt x="99" y="842" on="1"/>
        <pt x="99" y="875" on="0"/>
        <pt x="138" y="918" on="0"/>
      </contour>
      <contour>
        <pt x="391" y="918" on="1"/>
        <pt x="466" y="918" on="0"/>
        <pt x="466" y="835" on="1"/>
        <pt x="466" y="760" on="0"/>
        <pt x="382" y="760" on="1"/>
        <pt x="308" y="760" on="0"/>
        <pt x="308" y="842" on="1"/>
        <pt x="308" y="875" on="0"/>
        <pt x="347" y="918" on="0"/>
      </contour>
      <contour>
        <pt x="372" y="713" on="1"/>
        <pt x="562" y="0" on="1"/>
        <pt x="398" y="0" on="1"/>
        <pt x="358" y="173" on="1"/>
        <pt x="205" y="173" on="1"/>
        <pt x="164" y="0" on="1"/>
        <pt x="2" y="0" on="1"/>
        <pt x="189" y="696" on="1"/>
      </contour>
      <contour>
        <pt x="279" y="533" on="1"/>
        <pt x="227" y="292" on="1"/>
        <pt x="336" y="292" on="1"/>
        <pt x="290" y="533" on="1"/>
      </contour>
    </TTGlyph>
    <TTGlyph name="Agrave" xMin="3" yMin="0" xMax="564" yMax="932">
      <contour>
        <pt x="376" y="821" on="1"/>
        <pt x="332" y="740" on="1"/>
        <pt x="100" y="826" on="1"/>
        <pt x="151" y="932" on="1"/>
      </contour>
      <contour>
        <pt x="373" y="713" on="1"/>
        <pt x="564" y="0" on="1"/>
        <pt x="399" y="0" on="1"/>
        <pt x="359" y="173" on="1"/>
        <pt x="206" y="173" on="1"/>
        <pt x="165" y="0" on="1"/>
        <pt x="3" y="0" on="1"/>
        <pt x="190" y="696" on="1"/>
      </contour>
      <contour>
        <pt x="280" y="533" on="1"/>
        <pt x="228" y="292" on="1"/>
        <pt x="338" y="292" on="1"/>
        <pt x="292" y="533" on="1"/>
      </contour>
    </TTGlyph>
    <TTGlyph name="Amacron" xMin="3" yMin="0" xMax="564" yMax="880">
      <contour>
        <pt x="373" y="713" on="1"/>
        <pt x="564" y="0" on="1"/>
        <pt x="399" y="0" on="1"/>
        <pt x="359" y="173" on="1"/>
        <pt x="206" y="173" on="1"/>
        <pt x="165" y="0" on="1"/>
        <pt x="3" y="0" on="1"/>
        <pt x="190" y="696" on="1"/>
      </contour>
      <contour>
        <pt x="280" y="533" on="1"/>
        <pt x="228" y="292" on="1"/>
        <pt x="338" y="292" on="1"/>
        <pt x="292" y="533" on="1"/>
      </contour>
      <contour>
        <pt x="422" y="880" on="1"/>
        <pt x="422" y="779" on="1"/>
        <pt x="146" y="779" on="1"/>
        <pt x="146" y="880" on="1"/>
      </contour>
    </TTGlyph>
    <TTGlyph name="Aogonek" xMin="3" yMin="-196" xMax="564" yMax="713">
      <contour>
        <pt x="563" y="-175" on="1"/>
        <pt x="518" y="-196" on="0"/>
        <pt x="449" y="-196" on="0"/>
        <pt x="396" y="-148" on="0"/>
        <pt x="396" y="-108" on="1"/>
        <pt x="396" y="-55" on="0"/>
        <pt x="457" y="-10" on="1"/>
        <pt x="470" y="-1" on="0"/>
        <pt x="471" y="0" on="1"/>
        <pt x="399" y="0" on="1"/>
        <pt x="359" y="173" on="1"/>
        <pt x="206" y="173" on="1"/>
        <pt x="165" y="0" on="1"/>
        <pt x="3" y="0" on="1"/>
        <pt x="190" y="696" on="1"/>
        <pt x="373" y="713" on="1"/>
        <pt x="564" y="0" on="1"/>
        <pt x="483" y="-63" on="0"/>
        <pt x="483" y="-96" on="1"/>
        <pt x="483" y="-109" on="0"/>
        <pt x="499" y="-124" on="0"/>
        <pt x="526" y="-124" on="0"/>
        <pt x="548" y="-118" on="1"/>
      </contour>
      <contour>
        <pt x="338" y="292" on="1"/>
        <pt x="292" y="533" on="1"/>
        <pt x="280" y="533" on="1"/>
        <pt x="228" y="292" on="1"/>
      </contour>
    </TTGlyph>
    <TTGlyph name="Aring" xMin="2" yMin="0" xMax="562" yMax="944">
      <contour>
        <pt x="372" y="713" on="1"/>
        <pt x="562" y="0" on="1"/>
        <pt x="398" y="0" on="1"/>
        <pt x="358" y="173" on="1"/>
        <pt x="205" y="173" on="1"/>
        <pt x="164" y="0" on="1"/>
        <pt x="2" y="0" on="1"/>
        <pt x="189" y="696" on="1"/>
      </contour>
      <contour>
        <pt x="279" y="533" on="1"/>
        <pt x="227" y="292" on="1"/>
        <pt x="336" y="292" on="1"/>
        <pt x="290" y="533" on="1"/>
      </contour>
      <contour>
        <pt x="235" y="944" on="0"/>
        <pt x="335" y="944" on="0"/>
        <pt x="384" y="888" on="0"/>
        <pt x="384" y="805" on="0"/>
        <pt x="329" y="741" on="0"/>
        <pt x="231" y="741" on="0"/>
        <pt x="181" y="799" on="0"/>
        <pt x="181" y="883" on="0"/>
      </contour>
      <contour>
        <pt x="280" y="880" on="1"/>
        <pt x="264" y="880" on="0"/>
        <pt x="247" y="860" on="0"/>
        <pt x="247" y="844" on="1"/>
        <pt x="247" y="805" on="0"/>
        <pt x="284" y="805" on="1"/>
        <pt x="299" y="805" on="0"/>
        <pt x="317" y="825" on="0"/>
        <pt x="317" y="841" on="1"/>
        <pt x="317" y="880" on="0"/>
      </contour>
    </TTGlyph>
    <TTGlyph name="Aringbelow" xMin="3" yMin="-214" xMax="564" yMax="713">
      <contour>
        <pt x="373" y="713" on="1"/>
        <pt x="564" y="0" on="1"/>
        <pt x="399" y="0" on="1"/>
        <pt x="359" y="173" on="1"/>
        <pt x="206" y="173" on="1"/>
        <pt x="165" y="0" on="1"/>
        <pt x="3" y="0" on="1"/>
        <pt x="190" y="696" on="1"/>
      </contour>
      <contour>
        <pt x="280" y="533" on="1"/>
        <pt x="228" y="292" on="1"/>
        <pt x="338" y="292" on="1"/>
        <pt x="292" y="533" on="1"/>
      </contour>
      <contour>
        <pt x="186" y="-81" on="0"/>
        <pt x="237" y="-23" on="0"/>
        <pt x="330" y="-23" on="0"/>
        <pt x="376" y="-76" on="0"/>
        <pt x="376" y="-154" on="0"/>
        <pt x="325" y="-214" on="0"/>
        <pt x="232" y="-214" on="0"/>
        <pt x="186" y="-160" on="0"/>
      </contour>
      <contour>
        <pt x="279" y="-83" on="1"/>
        <pt x="248" y="-83" on="0"/>
        <pt x="248" y="-155" on="0"/>
        <pt x="284" y="-155" on="1"/>
        <pt x="298" y="-155" on="0"/>
        <pt x="315" y="-135" on="0"/>
        <pt x="315" y="-120" on="1"/>
        <pt x="315" y="-83" on="0"/>
      </contour>
    </TTGlyph>
    <TTGlyph name="Atilde" xMin="3" yMin="0" xMax="564" yMax="903">
      <contour>
        <pt x="373" y="713" on="1"/>
        <pt x="564" y="0" on="1"/>
        <pt x="399" y="0" on="1"/>
        <pt x="359" y="173" on="1"/>
        <pt x="206" y="173" on="1"/>
        <pt x="165" y="0" on="1"/>
        <pt x="3" y="0" on="1"/>
        <pt x="190" y="696" on="1"/>
      </contour>
      <contour>
        <pt x="280" y="533" on="1"/>
        <pt x="228" y="292" on="1"/>
        <pt x="338" y="292" on="1"/>
        <pt x="292" y="533" on="1"/>
      </contour>
      <contour>
        <pt x="334" y="768" on="1"/>
        <pt x="308" y="768" on="0"/>
        <pt x="235" y="800" on="0"/>
        <pt x="215" y="800" on="1"/>
        <pt x="178" y="800" on="0"/>
        <pt x="136" y="770" on="1"/>
        <pt x="104" y="843" on="1"/>
        <pt x="165" y="903" on="0"/>
        <pt x="231" y="903" on="1"/>
        <pt x="258" y="903" on="0"/>
        <pt x="330" y="871" on="0"/>
        <pt x="379" y="871" on="0"/>
        <pt x="431" y="902" on="1"/>
        <pt x="460" y="828" on="1"/>
        <pt x="392" y="768" on="0"/>
      </contour>
    </TTGlyph>
    <TTGlyph name="B" xMin="67" yMin="0" xMax="566" yMax="708">
      <contour>
        <pt x="67" y="708" on="1"/>
        <pt x="335" y="708" on="1"/>
        <pt x="434" y="708" on="0"/>
        <pt x="531" y="623" on="0"/>
        <pt x="531" y="485" on="0"/>
        <pt x="465" y="396" on="0"/>
        <pt x="406" y="383" on="1"/>
        <pt x="406" y="377" on="1"/>
        <pt x="493" y="366" on="0"/>
        <pt x="566" y="284" on="0"/>
        <pt x="566" y="209" on="1"/>
        <pt x="566" y="117" on="0"/>
        <pt x="429" y="0" on="0"/>
        <pt x="304" y="0" on="1"/>
        <pt x="67" y="0" on="1"/>
      </contour>
      <contour>
        <pt x="231" y="310" on="1"/>
        <pt x="231" y="117" on="1"/>
        <pt x="294" y="117" on="1"/>
        <pt x="350" y="117" on="0"/>
        <pt x="390" y="168" on="0"/>
        <pt x="390" y="258" on="0"/>
        <pt x="336" y="310" on="0"/>
        <pt x="278" y="310" on="1"/>
      </contour>
      <contour>
        <pt x="231" y="593" on="1"/>
        <pt x="231" y="427" on="1"/>
        <pt x="279" y="427" on="1"/>
        <pt x="363" y="427" on="0"/>
        <pt x="363" y="511" on="1"/>
        <pt x="363" y="553" on="0"/>
        <pt x="328" y="593" on="0"/>
        <pt x="285" y="593" on="1"/>
      </contour>
    </TTGlyph>
    <TTGlyph name="C" xMin="30" yMin="-12" xMax="538" yMax="720">
      <contour>
        <pt x="85" y="615" on="0"/>
        <pt x="216" y="720" on="0"/>
        <pt x="432" y="720" on="0"/>
        <pt x="530" y="609" on="0"/>
        <pt x="530" y="481" on="1"/>
        <pt x="367" y="473" on="1"/>
        <pt x="367" y="546" on="0"/>
        <pt x="337" y="592" on="0"/>
        <pt x="301" y="592" on="1"/>
        <pt x="245" y="592" on="0"/>
        <pt x="206" y="472" on="0"/>
        <pt x="206" y="228" on="0"/>
        <pt x="278" y="117" on="0"/>
        <pt x="361" y="117" on="1"/>
        <pt x="412" y="117" on="0"/>
        <pt x="505" y="147" on="1"/>
        <pt x="538" y="43" on="1"/>
        <pt x="430" y="-12" on="0"/>
        <pt x="315" y="-12" on="1"/>
        <pt x="30" y="-12" on="0"/>
        <pt x="30" y="352" on="1"/>
        <pt x="30" y="455" on="0"/>
      </contour>
    </TTGlyph>
    <TTGlyph name="Cacute" xMin="30" yMin="-12" xMax="538" yMax="932">
      <contour>
        <pt x="85" y="615" on="0"/>
        <pt x="216" y="720" on="0"/>
        <pt x="432" y="720" on="0"/>
        <pt x="530" y="609" on="0"/>
        <pt x="530" y="481" on="1"/>
        <pt x="367" y="473" on="1"/>
        <pt x="367" y="546" on="0"/>
        <pt x="337" y="592" on="0"/>
        <pt x="301" y="592" on="1"/>
        <pt x="245" y="592" on="0"/>
        <pt x="206" y="472" on="0"/>
        <pt x="206" y="228" on="0"/>
        <pt x="278" y="117" on="0"/>
        <pt x="361" y="117" on="1"/>
        <pt x="412" y="117" on="0"/>
        <pt x="505" y="147" on="1"/>
        <pt x="538" y="43" on="1"/>
        <pt x="430" y="-12" on="0"/>
        <pt x="315" y="-12" on="1"/>
        <pt x="30" y="-12" on="0"/>
        <pt x="30" y="352" on="1"/>
        <pt x="30" y="455" on="0"/>
      </contour>
      <contour>
        <pt x="412" y="932" on="1"/>
        <pt x="463" y="826" on="1"/>
        <pt x="231" y="740" on="1"/>
        <pt x="187" y="821" on="1"/>
      </contour>
    </TTGlyph>
    <TTGlyph name="Ccaron" xMin="30" yMin="-12" xMax="538" yMax="925">
      <contour>
        <pt x="85" y="615" on="0"/>
        <pt x="216" y="720" on="0"/>
        <pt x="432" y="720" on="0"/>
        <pt x="530" y="609" on="0"/>
        <pt x="530" y="481" on="1"/>
        <pt x="367" y="473" on="1"/>
        <pt x="367" y="546" on="0"/>
        <pt x="337" y="592" on="0"/>
        <pt x="301" y="592" on="1"/>
        <pt x="245" y="592" on="0"/>
        <pt x="206" y="472" on="0"/>
        <pt x="206" y="228" on="0"/>
        <pt x="278" y="117" on="0"/>
        <pt x="361" y="117" on="1"/>
        <pt x="412" y="117" on="0"/>
        <pt x="505" y="147" on="1"/>
        <pt x="538" y="43" on="1"/>
        <pt x="430" y="-12" on="0"/>
        <pt x="315" y="-12" on="1"/>
        <pt x="30" y="-12" on="0"/>
        <pt x="30" y="352" on="1"/>
        <pt x="30" y="455" on="0"/>
      </contour>
      <contour>
        <pt x="463" y="868" on="1"/>
        <pt x="331" y="743" on="1"/>
        <pt x="263" y="743" on="1"/>
        <pt x="131" y="868" on="1"/>
        <pt x="186" y="925" on="1"/>
        <pt x="297" y="844" on="1"/>
        <pt x="408" y="925" on="1"/>
      </contour>
    </TTGlyph>
    <TTGlyph name="Ccedilla" xMin="30" yMin="-196" xMax="538" yMax="720">
      <contour>
        <pt x="388" y="-109" on="1"/>
        <pt x="388" y="-152" on="0"/>
        <pt x="334" y="-196" on="0"/>
        <pt x="242" y="-196" on="0"/>
        <pt x="196" y="-174" on="1"/>
        <pt x="217" y="-121" on="1"/>
        <pt x="258" y="-132" on="0"/>
        <pt x="303" y="-132" on="0"/>
        <pt x="303" y="-93" on="0"/>
        <pt x="237" y="-81" on="1"/>
        <pt x="235" y="-81" on="0"/>
        <pt x="231" y="-80" on="0"/>
        <pt x="230" y="-80" on="1"/>
        <pt x="249" y="-6" on="1"/>
        <pt x="30" y="31" on="0"/>
        <pt x="30" y="352" on="1"/>
        <pt x="30" y="455" on="0"/>
        <pt x="85" y="615" on="0"/>
        <pt x="216" y="720" on="0"/>
        <pt x="432" y="720" on="0"/>
        <pt x="530" y="609" on="0"/>
        <pt x="530" y="481" on="1"/>
        <pt x="367" y="473" on="1"/>
        <pt x="367" y="542" on="0"/>
        <pt x="338" y="592" on="0"/>
        <pt x="271" y="592" on="0"/>
        <pt x="233" y="559" on="0"/>
        <pt x="223" y="525" on="1"/>
        <pt x="206" y="467" on="0"/>
        <pt x="206" y="228" on="0"/>
        <pt x="278" y="117" on="0"/>
        <pt x="361" y="117" on="1"/>
        <pt x="412" y="117" on="0"/>
        <pt x="505" y="147" on="1"/>
        <pt x="538" y="43" on="1"/>
        <pt x="434" y="-11" on="0"/>
        <pt x="317" y="-12" on="1"/>
        <pt x="314" y="-40" on="1"/>
        <pt x="316" y="-41" on="0"/>
        <pt x="342" y="-48" on="0"/>
        <pt x="351" y="-51" on="0"/>
        <pt x="372" y="-63" on="0"/>
        <pt x="376" y="-69" on="1"/>
        <pt x="388" y="-87" on="0"/>
      </contour>
    </TTGlyph>
    <TTGlyph name="Ccircumflex" xMin="30" yMin="-12" xMax="538" yMax="924">
      <contour>
        <pt x="85" y="615" on="0"/>
        <pt x="216" y="720" on="0"/>
        <pt x="432" y="720" on="0"/>
        <pt x="530" y="609" on="0"/>
        <pt x="530" y="481" on="1"/>
        <pt x="367" y="473" on="1"/>
        <pt x="367" y="546" on="0"/>
        <pt x="337" y="592" on="0"/>
        <pt x="301" y="592" on="1"/>
        <pt x="245" y="592" on="0"/>
        <pt x="206" y="472" on="0"/>
        <pt x="206" y="228" on="0"/>
        <pt x="278" y="117" on="0"/>
        <pt x="361" y="117" on="1"/>
        <pt x="412" y="117" on="0"/>
        <pt x="505" y="147" on="1"/>
        <pt x="538" y="43" on="1"/>
        <pt x="430" y="-12" on="0"/>
        <pt x="315" y="-12" on="1"/>
        <pt x="30" y="-12" on="0"/>
        <pt x="30" y="352" on="1"/>
        <pt x="30" y="455" on="0"/>
      </contour>
      <contour>
        <pt x="331" y="924" on="1"/>
        <pt x="463" y="800" on="1"/>
        <pt x="408" y="743" on="1"/>
        <pt x="297" y="824" on="1"/>
        <pt x="186" y="743" on="1"/>
        <pt x="131" y="800" on="1"/>
        <pt x="263" y="924" on="1"/>
      </contour>
    </TTGlyph>
    <TTGlyph name="Cdotaccent" xMin="30" yMin="-12" xMax="538" yMax="924">
      <contour>
        <pt x="85" y="615" on="0"/>
        <pt x="216" y="720" on="0"/>
        <pt x="432" y="720" on="0"/>
        <pt x="530" y="609" on="0"/>
        <pt x="530" y="481" on="1"/>
        <pt x="367" y="473" on="1"/>
        <pt x="367" y="546" on="0"/>
        <pt x="337" y="592" on="0"/>
        <pt x="301" y="592" on="1"/>
        <pt x="245" y="592" on="0"/>
        <pt x="206" y="472" on="0"/>
        <pt x="206" y="228" on="0"/>
        <pt x="278" y="117" on="0"/>
        <pt x="361" y="117" on="1"/>
        <pt x="412" y="117" on="0"/>
        <pt x="505" y="147" on="1"/>
        <pt x="538" y="43" on="1"/>
        <pt x="430" y="-12" on="0"/>
        <pt x="315" y="-12" on="1"/>
        <pt x="30" y="-12" on="0"/>
        <pt x="30" y="352" on="1"/>
        <pt x="30" y="455" on="0"/>
      </contour>
      <contour>
        <pt x="302" y="924" on="1"/>
        <pt x="381" y="924" on="0"/>
        <pt x="381" y="834" on="1"/>
        <pt x="381" y="755" on="0"/>
        <pt x="291" y="755" on="1"/>
        <pt x="212" y="755" on="0"/>
        <pt x="212" y="845" on="1"/>
        <pt x="212" y="879" on="0"/>
        <pt x="254" y="924" on="0"/>
      </contour>
    </TTGlyph>
    <TTGlyph name="D" xMin="67" yMin="0" xMax="574" yMax="708">
      <contour>
        <pt x="67" y="708" on="1"/>
        <pt x="295" y="708" on="1"/>
        <pt x="364" y="708" on="0"/>
        <pt x="467" y="666" on="0"/>
        <pt x="526" y="601" on="0"/>
        <pt x="544" y="552" on="1"/>
        <pt x="574" y="470" on="0"/>
        <pt x="574" y="352" on="1"/>
        <pt x="574" y="168" on="0"/>
        <pt x="484" y="72" on="1"/>
        <pt x="416" y="0" on="0"/>
        <pt x="297" y="0" on="1"/>
        <pt x="67" y="0" on="1"/>
      </contour>
      <contour>
        <pt x="231" y="584" on="1"/>
        <pt x="231" y="124" on="1"/>
        <pt x="294" y="124" on="1"/>
        <pt x="357" y="124" on="0"/>
        <pt x="399" y="241" on="0"/>
        <pt x="399" y="477" on="0"/>
        <pt x="350" y="584" on="0"/>
        <pt x="286" y="584" on="1"/>
      </contour>
    </TTGlyph>
    <TTGlyph name="Dcaron" xMin="61" yMin="0" xMax="568" yMax="925">
      <contour>
        <pt x="61" y="708" on="1"/>
        <pt x="289" y="708" on="1"/>
        <pt x="358" y="708" on="0"/>
        <pt x="461" y="666" on="0"/>
        <pt x="521" y="601" on="0"/>
        <pt x="557" y="503" on="0"/>
        <pt x="568" y="410" on="0"/>
        <pt x="568" y="296" on="0"/>
        <pt x="551" y="196" on="0"/>
        <pt x="509" y="105" on="0"/>
        <pt x="478" y="72" on="1"/>
        <pt x="410" y="0" on="0"/>
        <pt x="291" y="0" on="1"/>
        <pt x="61" y="0" on="1"/>
      </contour>
      <contour>
        <pt x="225" y="583" on="1"/>
        <pt x="225" y="124" on="1"/>
        <pt x="288" y="124" on="1"/>
        <pt x="351" y="124" on="0"/>
        <pt x="393" y="241" on="0"/>
        <pt x="393" y="477" on="0"/>
        <pt x="344" y="583" on="0"/>
        <pt x="280" y="583" on="1"/>
      </contour>
      <contour>
        <pt x="458" y="868" on="1"/>
        <pt x="326" y="743" on="1"/>
        <pt x="258" y="743" on="1"/>
        <pt x="126" y="868" on="1"/>
        <pt x="181" y="925" on="1"/>
        <pt x="292" y="844" on="1"/>
        <pt x="403" y="925" on="1"/>
      </contour>
    </TTGlyph>
    <TTGlyph name="Dcroat" xMin="-10" yMin="0" xMax="568" yMax="708">
      <contour>
        <pt x="61" y="708" on="1"/>
        <pt x="289" y="708" on="1"/>
        <pt x="358" y="708" on="0"/>
        <pt x="461" y="666" on="0"/>
        <pt x="521" y="601" on="0"/>
        <pt x="557" y="503" on="0"/>
        <pt x="568" y="410" on="0"/>
        <pt x="568" y="296" on="0"/>
        <pt x="551" y="196" on="0"/>
        <pt x="509" y="105" on="0"/>
        <pt x="478" y="72" on="1"/>
        <pt x="410" y="0" on="0"/>
        <pt x="291" y="0" on="1"/>
        <pt x="61" y="0" on="1"/>
        <pt x="61" y="301" on="1"/>
        <pt x="-10" y="301" on="1"/>
        <pt x="2" y="397" on="1"/>
        <pt x="61" y="409" on="1"/>
      </contour>
      <contour>
        <pt x="280" y="584" on="1"/>
        <pt x="225" y="584" on="1"/>
        <pt x="225" y="409" on="1"/>
        <pt x="321" y="409" on="1"/>
        <pt x="308" y="301" on="1"/>
        <pt x="225" y="301" on="1"/>
        <pt x="225" y="124" on="1"/>
        <pt x="288" y="124" on="1"/>
        <pt x="351" y="124" on="0"/>
        <pt x="393" y="241" on="0"/>
        <pt x="393" y="477" on="0"/>
        <pt x="344" y="584" on="0"/>
      </contour>
    </TTGlyph>
    <TTGlyph name="E" xMin="67" yMin="0" xMax="504" yMax="708">
      <contour>
        <pt x="67" y="708" on="1"/>
        <pt x="499" y="708" on="1"/>
        <pt x="481" y="583" on="1"/>
        <pt x="231" y="583" on="1"/>
        <pt x="231" y="422" on="1"/>
        <pt x="457" y="422" on="1"/>
        <pt x="440" y="300" on="1"/>
        <pt x="231" y="300" on="1"/>
        <pt x="231" y="124" on="1"/>
        <pt x="504" y="124" on="1"/>
        <pt x="486" y="0" on="1"/>
        <pt x="67" y="0" on="1"/>
      </contour>
    </TTGlyph>
    <TTGlyph name="Eacute" xMin="67" yMin="0" xMax="504" yMax="932">
      <contour>
        <pt x="414" y="932" on="1"/>
        <pt x="464" y="826" on="1"/>
        <pt x="233" y="740" on="1"/>
        <pt x="189" y="821" on="1"/>
      </contour>
      <contour>
        <pt x="67" y="708" on="1"/>
        <pt x="499" y="708" on="1"/>
        <pt x="481" y="583" on="1"/>
        <pt x="231" y="583" on="1"/>
        <pt x="231" y="422" on="1"/>
        <pt x="457" y="422" on="1"/>
        <pt x="440" y="300" on="1"/>
        <pt x="231" y="300" on="1"/>
        <pt x="231" y="124" on="1"/>
        <pt x="504" y="124" on="1"/>
        <pt x="486" y="0" on="1"/>
        <pt x="67" y="0" on="1"/>
      </contour>
    </TTGlyph>
    <TTGlyph name="Ebreve" xMin="67" yMin="0" xMax="504" yMax="905">
      <contour>
        <pt x="67" y="708" on="1"/>
        <pt x="499" y="708" on="1"/>
        <pt x="481" y="583" on="1"/>
        <pt x="231" y="583" on="1"/>
        <pt x="231" y="422" on="1"/>
        <pt x="457" y="422" on="1"/>
        <pt x="440" y="300" on="1"/>
        <pt x="231" y="300" on="1"/>
        <pt x="231" y="124" on="1"/>
        <pt x="504" y="124" on="1"/>
        <pt x="486" y="0" on="1"/>
        <pt x="67" y="0" on="1"/>
      </contour>
      <contour>
        <pt x="440" y="852" on="1"/>
        <pt x="379" y="768" on="0"/>
        <pt x="183" y="768" on="0"/>
        <pt x="120" y="852" on="1"/>
        <pt x="171" y="905" on="1"/>
        <pt x="227" y="861" on="0"/>
        <pt x="329" y="861" on="0"/>
        <pt x="390" y="905" on="1"/>
      </contour>
    </TTGlyph>
    <TTGlyph name="Ecaron" xMin="67" yMin="0" xMax="504" yMax="925">
      <contour>
        <pt x="231" y="583" on="1"/>
        <pt x="231" y="422" on="1"/>
        <pt x="457" y="422" on="1"/>
        <pt x="440" y="300" on="1"/>
        <pt x="231" y="300" on="1"/>
        <pt x="231" y="124" on="1"/>
        <pt x="504" y="124" on="1"/>
        <pt x="486" y="0" on="1"/>
        <pt x="67" y="0" on="1"/>
        <pt x="67" y="708" on="1"/>
        <pt x="499" y="708" on="1"/>
        <pt x="481" y="583" on="1"/>
      </contour>
      <contour>
        <pt x="446" y="868" on="1"/>
        <pt x="314" y="743" on="1"/>
        <pt x="246" y="743" on="1"/>
        <pt x="114" y="868" on="1"/>
        <pt x="169" y="925" on="1"/>
        <pt x="280" y="844" on="1"/>
        <pt x="391" y="925" on="1"/>
      </contour>
    </TTGlyph>
    <TTGlyph name="Ecircumflex" xMin="67" yMin="0" xMax="504" yMax="924">
      <contour>
        <pt x="314" y="924" on="1"/>
        <pt x="446" y="800" on="1"/>
        <pt x="391" y="743" on="1"/>
        <pt x="280" y="824" on="1"/>
        <pt x="169" y="743" on="1"/>
        <pt x="114" y="800" on="1"/>
        <pt x="246" y="924" on="1"/>
      </contour>
      <contour>
        <pt x="67" y="708" on="1"/>
        <pt x="499" y="708" on="1"/>
        <pt x="481" y="583" on="1"/>
        <pt x="231" y="583" on="1"/>
        <pt x="231" y="422" on="1"/>
        <pt x="457" y="422" on="1"/>
        <pt x="440" y="300" on="1"/>
        <pt x="231" y="300" on="1"/>
        <pt x="231" y="124" on="1"/>
        <pt x="504" y="124" on="1"/>
        <pt x="486" y="0" on="1"/>
        <pt x="67" y="0" on="1"/>
      </contour>
    </TTGlyph>
    <TTGlyph name="Edieresis" xMin="67" yMin="0" xMax="504" yMax="918">
      <contour>
        <pt x="180" y="918" on="1"/>
        <pt x="254" y="918" on="0"/>
        <pt x="254" y="835" on="1"/>
        <pt x="254" y="802" on="0"/>
        <pt x="215" y="760" on="0"/>
        <pt x="171" y="760" on="1"/>
        <pt x="96" y="760" on="0"/>
        <pt x="96" y="842" on="1"/>
        <pt x="96" y="875" on="0"/>
        <pt x="136" y="918" on="0"/>
      </contour>
      <contour>
        <pt x="388" y="918" on="1"/>
        <pt x="463" y="918" on="0"/>
        <pt x="463" y="835" on="1"/>
        <pt x="463" y="802" on="0"/>
        <pt x="424" y="760" on="0"/>
        <pt x="380" y="760" on="1"/>
        <pt x="305" y="760" on="0"/>
        <pt x="305" y="842" on="1"/>
        <pt x="305" y="875" on="0"/>
        <pt x="344" y="918" on="0"/>
      </contour>
      <contour>
        <pt x="67" y="708" on="1"/>
        <pt x="499" y="708" on="1"/>
        <pt x="481" y="583" on="1"/>
        <pt x="231" y="583" on="1"/>
        <pt x="231" y="422" on="1"/>
        <pt x="457" y="422" on="1"/>
        <pt x="440" y="300" on="1"/>
        <pt x="231" y="300" on="1"/>
        <pt x="231" y="124" on="1"/>
        <pt x="504" y="124" on="1"/>
        <pt x="486" y="0" on="1"/>
        <pt x="67" y="0" on="1"/>
      </contour>
    </TTGlyph>
    <TTGlyph name="Edotaccent" xMin="67" yMin="0" xMax="504" yMax="924">
      <contour>
        <pt x="231" y="583" on="1"/>
        <pt x="231" y="422" on="1"/>
        <pt x="457" y="422" on="1"/>
        <pt x="440" y="300" on="1"/>
        <pt x="231" y="300" on="1"/>
        <pt x="231" y="124" on="1"/>
        <pt x="504" y="124" on="1"/>
        <pt x="486" y="0" on="1"/>
        <pt x="67" y="0" on="1"/>
        <pt x="67" y="708" on="1"/>
        <pt x="499" y="708" on="1"/>
        <pt x="481" y="583" on="1"/>
      </contour>
      <contour>
        <pt x="285" y="924" on="1"/>
        <pt x="364" y="924" on="0"/>
        <pt x="364" y="834" on="1"/>
        <pt x="364" y="755" on="0"/>
        <pt x="274" y="755" on="1"/>
        <pt x="195" y="755" on="0"/>
        <pt x="195" y="845" on="1"/>
        <pt x="195" y="879" on="0"/>
        <pt x="237" y="924" on="0"/>
      </contour>
    </TTGlyph>
    <TTGlyph name="Egrave" xMin="67" yMin="0" xMax="504" yMax="932">
      <contour>
        <pt x="376" y="821" on="1"/>
        <pt x="332" y="740" on="1"/>
        <pt x="101" y="826" on="1"/>
        <pt x="151" y="932" on="1"/>
      </contour>
      <contour>
        <pt x="67" y="708" on="1"/>
        <pt x="499" y="708" on="1"/>
        <pt x="481" y="583" on="1"/>
        <pt x="231" y="583" on="1"/>
        <pt x="231" y="422" on="1"/>
        <pt x="457" y="422" on="1"/>
        <pt x="440" y="300" on="1"/>
        <pt x="231" y="300" on="1"/>
        <pt x="231" y="124" on="1"/>
        <pt x="504" y="124" on="1"/>
        <pt x="486" y="0" on="1"/>
        <pt x="67" y="0" on="1"/>
      </contour>
    </TTGlyph>
    <TTGlyph name="Emacron" xMin="67" yMin="0" xMax="504" yMax="880">
      <contour>
        <pt x="231" y="583" on="1"/>
        <pt x="231" y="422" on="1"/>
        <pt x="457" y="422" on="1"/>
        <pt x="440" y="300" on="1"/>
        <pt x="231" y="300" on="1"/>
        <pt x="231" y="124" on="1"/>
        <pt x="504" y="124" on="1"/>
        <pt x="486" y="0" on="1"/>
        <pt x="67" y="0" on="1"/>
        <pt x="67" y="708" on="1"/>
        <pt x="499" y="708" on="1"/>
        <pt x="481" y="583" on="1"/>
      </contour>
      <contour>
        <pt x="142" y="880" on="1"/>
        <pt x="418" y="880" on="1"/>
        <pt x="418" y="779" on="1"/>
        <pt x="142" y="779" on="1"/>
      </contour>
    </TTGlyph>
    <TTGlyph name="Eng" xMin="67" yMin="-199" xMax="563" yMax="700">
      <contour>
        <pt x="563" y="700" on="1"/>
        <pt x="563" y="96" on="1"/>
        <pt x="563" y="-8" on="0"/>
        <pt x="540" y="-48" on="1"/>
        <pt x="511" y="-100" on="0"/>
        <pt x="430" y="-169" on="0"/>
        <pt x="388" y="-199" on="1"/>
        <pt x="287" y="-109" on="1"/>
        <pt x="344" y="-60" on="0"/>
        <pt x="388" y="-4" on="0"/>
        <pt x="395" y="41" on="1"/>
        <pt x="255" y="317" on="1"/>
        <pt x="214" y="427" on="1"/>
        <pt x="208" y="424" on="1"/>
        <pt x="231" y="291" on="1"/>
        <pt x="231" y="0" on="1"/>
        <pt x="67" y="0" on="1"/>
        <pt x="67" y="700" on="1"/>
        <pt x="224" y="700" on="1"/>
        <pt x="372" y="389" on="1"/>
        <pt x="417" y="269" on="1"/>
        <pt x="423" y="272" on="1"/>
        <pt x="400" y="405" on="1"/>
        <pt x="400" y="700" on="1"/>
      </contour>
    </TTGlyph>
    <TTGlyph name="Eogonek" xMin="67" yMin="-196" xMax="504" yMax="708">
      <contour>
        <pt x="318" y="-108" on="1"/>
        <pt x="318" y="-53" on="0"/>
        <pt x="394" y="0" on="1"/>
        <pt x="67" y="0" on="1"/>
        <pt x="67" y="708" on="1"/>
        <pt x="499" y="708" on="1"/>
        <pt x="481" y="583" on="1"/>
        <pt x="231" y="583" on="1"/>
        <pt x="231" y="422" on="1"/>
        <pt x="457" y="422" on="1"/>
        <pt x="440" y="300" on="1"/>
        <pt x="231" y="300" on="1"/>
        <pt x="231" y="124" on="1"/>
        <pt x="504" y="124" on="1"/>
        <pt x="486" y="0" on="1"/>
        <pt x="464" y="-17" on="0"/>
        <pt x="443" y="-38" on="1"/>
        <pt x="405" y="-74" on="0"/>
        <pt x="405" y="-96" on="1"/>
        <pt x="405" y="-109" on="0"/>
        <pt x="421" y="-124" on="0"/>
        <pt x="448" y="-124" on="0"/>
        <pt x="470" y="-118" on="1"/>
        <pt x="485" y="-175" on="1"/>
        <pt x="440" y="-196" on="0"/>
        <pt x="371" y="-196" on="0"/>
        <pt x="318" y="-149" on="0"/>
      </contour>
    </TTGlyph>
    <TTGlyph name="Eth" xMin="8" yMin="0" xMax="586" yMax="708">
      <contour>
        <pt x="79" y="708" on="1"/>
        <pt x="306" y="708" on="1"/>
        <pt x="375" y="708" on="0"/>
        <pt x="479" y="666" on="0"/>
        <pt x="538" y="601" on="0"/>
        <pt x="556" y="552" on="1"/>
        <pt x="586" y="470" on="0"/>
        <pt x="586" y="352" on="1"/>
        <pt x="586" y="209" on="0"/>
        <pt x="525" y="109" on="1"/>
        <pt x="494" y="58" on="0"/>
        <pt x="383" y="0" on="0"/>
        <pt x="308" y="0" on="1"/>
        <pt x="79" y="0" on="1"/>
        <pt x="79" y="301" on="1"/>
        <pt x="8" y="301" on="1"/>
        <pt x="19" y="397" on="1"/>
        <pt x="58" y="408" on="1"/>
        <pt x="79" y="409" on="1"/>
      </contour>
      <contour>
        <pt x="242" y="584" on="1"/>
        <pt x="242" y="409" on="1"/>
        <pt x="339" y="409" on="1"/>
        <pt x="325" y="301" on="1"/>
        <pt x="242" y="301" on="1"/>
        <pt x="242" y="124" on="1"/>
        <pt x="305" y="124" on="1"/>
        <pt x="381" y="124" on="0"/>
        <pt x="400" y="217" on="1"/>
        <pt x="410" y="269" on="0"/>
        <pt x="410" y="478" on="0"/>
        <pt x="361" y="584" on="0"/>
        <pt x="297" y="584" on="1"/>
      </contour>
    </TTGlyph>
    <TTGlyph name="Euro" xMin="32" yMin="61" xMax="530" yMax="626">
      <contour>
        <pt x="376" y="521" on="1"/>
        <pt x="290" y="521" on="0"/>
        <pt x="264" y="443" on="1"/>
        <pt x="437" y="443" on="1"/>
        <pt x="404" y="356" on="1"/>
        <pt x="251" y="356" on="1"/>
        <pt x="250" y="343" on="0"/>
        <pt x="250" y="316" on="1"/>
        <pt x="389" y="316" on="1"/>
        <pt x="356" y="232" on="1"/>
        <pt x="256" y="232" on="1"/>
        <pt x="263" y="198" on="0"/>
        <pt x="303" y="167" on="0"/>
        <pt x="343" y="167" on="1"/>
        <pt x="411" y="167" on="0"/>
        <pt x="470" y="198" on="1"/>
        <pt x="498" y="122" on="1"/>
        <pt x="466" y="97" on="0"/>
        <pt x="369" y="61" on="0"/>
        <pt x="317" y="61" on="1"/>
        <pt x="150" y="61" on="0"/>
        <pt x="119" y="232" on="1"/>
        <pt x="32" y="232" on="1"/>
        <pt x="51" y="310" on="1"/>
        <pt x="113" y="314" on="1"/>
        <pt x="113" y="328" on="0"/>
        <pt x="115" y="356" on="1"/>
        <pt x="50" y="356" on="1"/>
        <pt x="69" y="435" on="1"/>
        <pt x="131" y="441" on="1"/>
        <pt x="156" y="526" on="0"/>
        <pt x="271" y="626" on="0"/>
        <pt x="458" y="626" on="0"/>
        <pt x="530" y="573" on="1"/>
        <pt x="489" y="492" on="1"/>
        <pt x="427" y="521" on="0"/>
      </contour>
    </TTGlyph>
    <TTGlyph name="F" xMin="67" yMin="0" xMax="484" yMax="708">
      <contour>
        <pt x="67" y="708" on="1"/>
        <pt x="484" y="708" on="1"/>
        <pt x="467" y="584" on="1"/>
        <pt x="231" y="584" on="1"/>
        <pt x="231" y="418" on="1"/>
        <pt x="438" y="418" on="1"/>
        <pt x="421" y="296" on="1"/>
        <pt x="231" y="296" on="1"/>
        <pt x="231" y="0" on="1"/>
        <pt x="67" y="0" on="1"/>
      </contour>
    </TTGlyph>
    <TTGlyph name="G" xMin="32" yMin="-12" xMax="551" yMax="720">
      <contour>
        <pt x="32" y="520" on="0"/>
        <pt x="179" y="720" on="0"/>
        <pt x="442" y="720" on="0"/>
        <pt x="546" y="602" on="0"/>
        <pt x="546" y="484" on="1"/>
        <pt x="384" y="474" on="1"/>
        <pt x="384" y="543" on="0"/>
        <pt x="353" y="592" on="0"/>
        <pt x="278" y="592" on="0"/>
        <pt x="236" y="555" on="0"/>
        <pt x="226" y="518" on="1"/>
        <pt x="208" y="455" on="0"/>
        <pt x="208" y="220" on="0"/>
        <pt x="270" y="116" on="0"/>
        <pt x="340" y="116" on="1"/>
        <pt x="374" y="116" on="0"/>
        <pt x="401" y="124" on="1"/>
        <pt x="401" y="240" on="1"/>
        <pt x="305" y="240" on="1"/>
        <pt x="320" y="354" on="1"/>
        <pt x="551" y="354" on="1"/>
        <pt x="551" y="45" on="1"/>
        <pt x="490" y="16" on="0"/>
        <pt x="381" y="-12" on="0"/>
        <pt x="234" y="-12" on="0"/>
        <pt x="128" y="35" on="0"/>
        <pt x="72" y="104" on="0"/>
        <pt x="40" y="213" on="0"/>
        <pt x="32" y="302" on="0"/>
        <pt x="32" y="364" on="1"/>
      </contour>
    </TTGlyph>
    <TTGlyph name="Gbreve" xMin="33" yMin="-12" xMax="552" yMax="905">
      <contour>
        <pt x="33" y="520" on="0"/>
        <pt x="179" y="720" on="0"/>
        <pt x="443" y="720" on="0"/>
        <pt x="547" y="602" on="0"/>
        <pt x="547" y="484" on="1"/>
        <pt x="384" y="474" on="1"/>
        <pt x="384" y="543" on="0"/>
        <pt x="354" y="592" on="0"/>
        <pt x="279" y="592" on="0"/>
        <pt x="236" y="555" on="0"/>
        <pt x="226" y="518" on="1"/>
        <pt x="208" y="455" on="0"/>
        <pt x="208" y="221" on="0"/>
        <pt x="270" y="116" on="0"/>
        <pt x="340" y="116" on="1"/>
        <pt x="375" y="116" on="0"/>
        <pt x="402" y="124" on="1"/>
        <pt x="402" y="240" on="1"/>
        <pt x="305" y="240" on="1"/>
        <pt x="321" y="354" on="1"/>
        <pt x="552" y="354" on="1"/>
        <pt x="552" y="45" on="1"/>
        <pt x="491" y="16" on="0"/>
        <pt x="382" y="-12" on="0"/>
        <pt x="235" y="-12" on="0"/>
        <pt x="129" y="35" on="0"/>
        <pt x="73" y="104" on="0"/>
        <pt x="41" y="213" on="0"/>
        <pt x="33" y="302" on="0"/>
        <pt x="33" y="364" on="1"/>
      </contour>
      <contour>
        <pt x="471" y="852" on="1"/>
        <pt x="410" y="768" on="0"/>
        <pt x="216" y="768" on="0"/>
        <pt x="151" y="852" on="1"/>
        <pt x="202" y="905" on="1"/>
        <pt x="258" y="861" on="0"/>
        <pt x="360" y="861" on="0"/>
        <pt x="421" y="905" on="1"/>
      </contour>
    </TTGlyph>
    <TTGlyph name="Gcircumflex" xMin="33" yMin="-12" xMax="552" yMax="924">
      <contour>
        <pt x="33" y="520" on="0"/>
        <pt x="179" y="720" on="0"/>
        <pt x="443" y="720" on="0"/>
        <pt x="547" y="602" on="0"/>
        <pt x="547" y="484" on="1"/>
        <pt x="384" y="474" on="1"/>
        <pt x="384" y="543" on="0"/>
        <pt x="354" y="592" on="0"/>
        <pt x="279" y="592" on="0"/>
        <pt x="236" y="555" on="0"/>
        <pt x="226" y="518" on="1"/>
        <pt x="208" y="455" on="0"/>
        <pt x="208" y="221" on="0"/>
        <pt x="270" y="116" on="0"/>
        <pt x="340" y="116" on="1"/>
        <pt x="375" y="116" on="0"/>
        <pt x="402" y="124" on="1"/>
        <pt x="402" y="240" on="1"/>
        <pt x="305" y="240" on="1"/>
        <pt x="321" y="354" on="1"/>
        <pt x="552" y="354" on="1"/>
        <pt x="552" y="45" on="1"/>
        <pt x="491" y="16" on="0"/>
        <pt x="382" y="-12" on="0"/>
        <pt x="235" y="-12" on="0"/>
        <pt x="129" y="35" on="0"/>
        <pt x="73" y="104" on="0"/>
        <pt x="41" y="213" on="0"/>
        <pt x="33" y="302" on="0"/>
        <pt x="33" y="364" on="1"/>
      </contour>
      <contour>
        <pt x="345" y="924" on="1"/>
        <pt x="477" y="800" on="1"/>
        <pt x="422" y="743" on="1"/>
        <pt x="311" y="824" on="1"/>
        <pt x="200" y="743" on="1"/>
        <pt x="145" y="800" on="1"/>
        <pt x="277" y="924" on="1"/>
      </contour>
    </TTGlyph>
    <TTGlyph name="Gcommaaccent" xMin="33" yMin="-244" xMax="552" yMax="720">
      <contour>
        <pt x="33" y="520" on="0"/>
        <pt x="179" y="720" on="0"/>
        <pt x="443" y="720" on="0"/>
        <pt x="547" y="602" on="0"/>
        <pt x="547" y="484" on="1"/>
        <pt x="384" y="474" on="1"/>
        <pt x="384" y="543" on="0"/>
        <pt x="354" y="592" on="0"/>
        <pt x="279" y="592" on="0"/>
        <pt x="236" y="555" on="0"/>
        <pt x="226" y="518" on="1"/>
        <pt x="208" y="455" on="0"/>
        <pt x="208" y="221" on="0"/>
        <pt x="270" y="116" on="0"/>
        <pt x="340" y="116" on="1"/>
        <pt x="375" y="116" on="0"/>
        <pt x="402" y="124" on="1"/>
        <pt x="402" y="240" on="1"/>
        <pt x="305" y="240" on="1"/>
        <pt x="321" y="354" on="1"/>
        <pt x="552" y="354" on="1"/>
        <pt x="552" y="45" on="1"/>
        <pt x="491" y="16" on="0"/>
        <pt x="382" y="-12" on="0"/>
        <pt x="235" y="-12" on="0"/>
        <pt x="129" y="35" on="0"/>
        <pt x="73" y="104" on="0"/>
        <pt x="41" y="213" on="0"/>
        <pt x="33" y="302" on="0"/>
        <pt x="33" y="364" on="1"/>
      </contour>
      <contour>
        <pt x="360" y="-29" on="1"/>
        <pt x="368" y="-98" on="0"/>
        <pt x="368" y="-145" on="0"/>
        <pt x="326" y="-199" on="0"/>
        <pt x="261" y="-244" on="1"/>
        <pt x="210" y="-195" on="1"/>
        <pt x="242" y="-163" on="0"/>
        <pt x="261" y="-134" on="0"/>
        <pt x="261" y="-111" on="0"/>
        <pt x="250" y="-40" on="1"/>
      </contour>
    </TTGlyph>
    <TTGlyph name="Gdotaccent" xMin="33" yMin="-12" xMax="552" yMax="924">
      <contour>
        <pt x="33" y="520" on="0"/>
        <pt x="179" y="720" on="0"/>
        <pt x="443" y="720" on="0"/>
        <pt x="547" y="602" on="0"/>
        <pt x="547" y="484" on="1"/>
        <pt x="384" y="474" on="1"/>
        <pt x="384" y="543" on="0"/>
        <pt x="354" y="592" on="0"/>
        <pt x="279" y="592" on="0"/>
        <pt x="236" y="555" on="0"/>
        <pt x="226" y="518" on="1"/>
        <pt x="208" y="455" on="0"/>
        <pt x="208" y="221" on="0"/>
        <pt x="270" y="116" on="0"/>
        <pt x="340" y="116" on="1"/>
        <pt x="375" y="116" on="0"/>
        <pt x="402" y="124" on="1"/>
        <pt x="402" y="240" on="1"/>
        <pt x="305" y="240" on="1"/>
        <pt x="321" y="354" on="1"/>
        <pt x="552" y="354" on="1"/>
        <pt x="552" y="45" on="1"/>
        <pt x="491" y="16" on="0"/>
        <pt x="382" y="-12" on="0"/>
        <pt x="235" y="-12" on="0"/>
        <pt x="129" y="35" on="0"/>
        <pt x="73" y="104" on="0"/>
        <pt x="41" y="213" on="0"/>
        <pt x="33" y="302" on="0"/>
        <pt x="33" y="364" on="1"/>
      </contour>
      <contour>
        <pt x="316" y="924" on="1"/>
        <pt x="395" y="924" on="0"/>
        <pt x="395" y="834" on="1"/>
        <pt x="395" y="755" on="0"/>
        <pt x="305" y="755" on="1"/>
        <pt x="226" y="755" on="0"/>
        <pt x="226" y="845" on="1"/>
        <pt x="226" y="879" on="0"/>
        <pt x="268" y="924" on="0"/>
      </contour>
    </TTGlyph>
    <TTGlyph name="H" xMin="67" yMin="0" xMax="560" yMax="708">
      <contour>
        <pt x="397" y="0" on="1"/>
        <pt x="397" y="296" on="1"/>
        <pt x="231" y="296" on="1"/>
        <pt x="231" y="0" on="1"/>
        <pt x="67" y="0" on="1"/>
        <pt x="67" y="708" on="1"/>
        <pt x="231" y="708" on="1"/>
        <pt x="231" y="426" on="1"/>
        <pt x="397" y="426" on="1"/>
        <pt x="397" y="708" on="1"/>
        <pt x="560" y="708" on="1"/>
        <pt x="560" y="0" on="1"/>
      </contour>
    </TTGlyph>
    <TTGlyph name="Hbar" xMin="22" yMin="0" xMax="635" yMax="708">
      <contour>
        <pt x="575" y="708" on="1"/>
        <pt x="575" y="607" on="1"/>
        <pt x="635" y="607" on="1"/>
        <pt x="635" y="509" on="1"/>
        <pt x="575" y="509" on="1"/>
        <pt x="575" y="0" on="1"/>
        <pt x="412" y="0" on="1"/>
        <pt x="412" y="296" on="1"/>
        <pt x="246" y="296" on="1"/>
        <pt x="246" y="0" on="1"/>
        <pt x="82" y="0" on="1"/>
        <pt x="82" y="509" on="1"/>
        <pt x="22" y="509" on="1"/>
        <pt x="22" y="607" on="1"/>
        <pt x="82" y="607" on="1"/>
        <pt x="82" y="708" on="1"/>
        <pt x="246" y="708" on="1"/>
        <pt x="246" y="607" on="1"/>
        <pt x="412" y="607" on="1"/>
        <pt x="412" y="708" on="1"/>
      </contour>
      <contour>
        <pt x="246" y="426" on="1"/>
        <pt x="412" y="426" on="1"/>
        <pt x="412" y="509" on="1"/>
        <pt x="246" y="509" on="1"/>
      </contour>
    </TTGlyph>
    <TTGlyph name="Hcircumflex" xMin="67" yMin="0" xMax="560" yMax="924">
      <contour>
        <pt x="560" y="708" on="1"/>
        <pt x="560" y="0" on="1"/>
        <pt x="397" y="0" on="1"/>
        <pt x="397" y="296" on="1"/>
        <pt x="231" y="296" on="1"/>
        <pt x="231" y="0" on="1"/>
        <pt x="67" y="0" on="1"/>
        <pt x="67" y="708" on="1"/>
        <pt x="231" y="708" on="1"/>
        <pt x="231" y="426" on="1"/>
        <pt x="397" y="426" on="1"/>
        <pt x="397" y="708" on="1"/>
      </contour>
      <contour>
        <pt x="349" y="924" on="1"/>
        <pt x="481" y="800" on="1"/>
        <pt x="426" y="743" on="1"/>
        <pt x="315" y="824" on="1"/>
        <pt x="204" y="743" on="1"/>
        <pt x="149" y="800" on="1"/>
        <pt x="281" y="924" on="1"/>
      </contour>
    </TTGlyph>
    <TTGlyph name="I" xMin="67" yMin="0" xMax="231" yMax="708">
      <contour>
        <pt x="231" y="708" on="1"/>
        <pt x="231" y="0" on="1"/>
        <pt x="67" y="0" on="1"/>
        <pt x="67" y="708" on="1"/>
      </contour>
    </TTGlyph>
    <TTGlyph name="IJ" xMin="67" yMin="-172" xMax="528" yMax="708">
      <contour>
        <pt x="231" y="708" on="1"/>
        <pt x="231" y="0" on="1"/>
        <pt x="67" y="0" on="1"/>
        <pt x="67" y="708" on="1"/>
      </contour>
      <contour>
        <pt x="528" y="708" on="1"/>
        <pt x="528" y="112" on="1"/>
        <pt x="528" y="18" on="0"/>
        <pt x="442" y="-114" on="0"/>
        <pt x="315" y="-172" on="1"/>
        <pt x="232" y="-65" on="1"/>
        <pt x="309" y="-26" on="0"/>
        <pt x="364" y="59" on="0"/>
        <pt x="364" y="149" on="1"/>
        <pt x="364" y="708" on="1"/>
      </contour>
    </TTGlyph>
    <TTGlyph name="Iacute" xMin="48" yMin="0" xMax="324" yMax="932">
      <contour>
        <pt x="274" y="932" on="1"/>
        <pt x="324" y="826" on="1"/>
        <pt x="93" y="740" on="1"/>
        <pt x="48" y="821" on="1"/>
      </contour>
      <contour>
        <pt x="231" y="708" on="1"/>
        <pt x="231" y="0" on="1"/>
        <pt x="68" y="0" on="1"/>
        <pt x="68" y="708" on="1"/>
      </contour>
    </TTGlyph>
    <TTGlyph name="Ibreve" xMin="-10" yMin="0" xMax="310" yMax="905">
      <contour>
        <pt x="231" y="708" on="1"/>
        <pt x="231" y="0" on="1"/>
        <pt x="67" y="0" on="1"/>
        <pt x="67" y="708" on="1"/>
      </contour>
      <contour>
        <pt x="310" y="852" on="1"/>
        <pt x="249" y="768" on="0"/>
        <pt x="55" y="768" on="0"/>
        <pt x="-10" y="852" on="1"/>
        <pt x="41" y="905" on="1"/>
        <pt x="97" y="861" on="0"/>
        <pt x="199" y="861" on="0"/>
        <pt x="260" y="905" on="1"/>
      </contour>
    </TTGlyph>
    <TTGlyph name="Icaron" xMin="-10" yMin="0" xMax="311" yMax="925">
      <contour>
        <pt x="231" y="708" on="1"/>
        <pt x="231" y="0" on="1"/>
        <pt x="67" y="0" on="1"/>
        <pt x="67" y="708" on="1"/>
      </contour>
      <contour>
        <pt x="311" y="868" on="1"/>
        <pt x="184" y="743" on="1"/>
        <pt x="117" y="743" on="1"/>
        <pt x="-10" y="868" on="1"/>
        <pt x="44" y="925" on="1"/>
        <pt x="150" y="844" on="1"/>
        <pt x="256" y="925" on="1"/>
      </contour>
    </TTGlyph>
    <TTGlyph name="Icircumflex" xMin="-12" yMin="0" xMax="313" yMax="924">
      <contour>
        <pt x="184" y="924" on="1"/>
        <pt x="313" y="800" on="1"/>
        <pt x="258" y="743" on="1"/>
        <pt x="150" y="824" on="1"/>
        <pt x="43" y="743" on="1"/>
        <pt x="-12" y="800" on="1"/>
        <pt x="117" y="924" on="1"/>
      </contour>
      <contour>
        <pt x="231" y="708" on="1"/>
        <pt x="231" y="0" on="1"/>
        <pt x="67" y="0" on="1"/>
        <pt x="67" y="708" on="1"/>
      </contour>
    </TTGlyph>
    <TTGlyph name="Idieresis" xMin="-26" yMin="0" xMax="327" yMax="918">
      <contour>
        <pt x="58" y="918" on="1"/>
        <pt x="132" y="918" on="0"/>
        <pt x="132" y="835" on="1"/>
        <pt x="132" y="802" on="0"/>
        <pt x="93" y="760" on="0"/>
        <pt x="49" y="760" on="1"/>
        <pt x="-26" y="760" on="0"/>
        <pt x="-26" y="842" on="1"/>
        <pt x="-26" y="875" on="0"/>
        <pt x="14" y="918" on="0"/>
      </contour>
      <contour>
        <pt x="252" y="918" on="1"/>
        <pt x="327" y="918" on="0"/>
        <pt x="327" y="835" on="1"/>
        <pt x="327" y="802" on="0"/>
        <pt x="288" y="760" on="0"/>
        <pt x="244" y="760" on="1"/>
        <pt x="169" y="760" on="0"/>
        <pt x="169" y="842" on="1"/>
        <pt x="169" y="875" on="0"/>
        <pt x="208" y="918" on="0"/>
      </contour>
      <contour>
        <pt x="231" y="708" on="1"/>
        <pt x="231" y="0" on="1"/>
        <pt x="67" y="0" on="1"/>
        <pt x="67" y="708" on="1"/>
      </contour>
    </TTGlyph>
    <TTGlyph name="Idotaccent" xMin="65" yMin="0" xMax="234" yMax="924">
      <contour>
        <pt x="231" y="708" on="1"/>
        <pt x="231" y="0" on="1"/>
        <pt x="67" y="0" on="1"/>
        <pt x="67" y="708" on="1"/>
      </contour>
      <contour>
        <pt x="155" y="924" on="1"/>
        <pt x="234" y="924" on="0"/>
        <pt x="234" y="834" on="1"/>
        <pt x="234" y="755" on="0"/>
        <pt x="144" y="755" on="1"/>
        <pt x="65" y="755" on="0"/>
        <pt x="65" y="845" on="1"/>
        <pt x="65" y="879" on="0"/>
        <pt x="107" y="924" on="0"/>
      </contour>
    </TTGlyph>
    <TTGlyph name="Igrave" xMin="-29" yMin="0" xMax="247" yMax="932">
      <contour>
        <pt x="247" y="821" on="1"/>
        <pt x="203" y="740" on="1"/>
        <pt x="-29" y="826" on="1"/>
        <pt x="22" y="932" on="1"/>
      </contour>
      <contour>
        <pt x="231" y="708" on="1"/>
        <pt x="231" y="0" on="1"/>
        <pt x="67" y="0" on="1"/>
        <pt x="67" y="708" on="1"/>
      </contour>
    </TTGlyph>
    <TTGlyph name="Imacron" xMin="13" yMin="0" xMax="288" yMax="880">
      <contour>
        <pt x="231" y="708" on="1"/>
        <pt x="231" y="0" on="1"/>
        <pt x="67" y="0" on="1"/>
        <pt x="67" y="708" on="1"/>
      </contour>
      <contour>
        <pt x="288" y="880" on="1"/>
        <pt x="288" y="779" on="1"/>
        <pt x="13" y="779" on="1"/>
        <pt x="13" y="880" on="1"/>
      </contour>
    </TTGlyph>
    <TTGlyph name="Iogonek" xMin="63" yMin="-196" xMax="231" yMax="708">
      <contour>
        <pt x="231" y="708" on="1"/>
        <pt x="231" y="0" on="1"/>
        <pt x="207" y="-18" on="0"/>
        <pt x="187" y="-40" on="1"/>
        <pt x="151" y="-76" on="0"/>
        <pt x="151" y="-96" on="1"/>
        <pt x="151" y="-124" on="0"/>
        <pt x="177" y="-124" on="1"/>
        <pt x="195" y="-124" on="0"/>
        <pt x="215" y="-118" on="1"/>
        <pt x="230" y="-175" on="1"/>
        <pt x="185" y="-196" on="0"/>
        <pt x="117" y="-196" on="0"/>
        <pt x="63" y="-148" on="0"/>
        <pt x="63" y="-66" on="0"/>
        <pt x="102" y="-31" on="1"/>
        <pt x="113" y="-21" on="0"/>
        <pt x="139" y="0" on="1"/>
        <pt x="67" y="0" on="1"/>
        <pt x="67" y="708" on="1"/>
      </contour>
    </TTGlyph>
    <TTGlyph name="Itilde" xMin="-13" yMin="0" xMax="311" yMax="903">
      <contour>
        <pt x="231" y="708" on="1"/>
        <pt x="231" y="0" on="1"/>
        <pt x="67" y="0" on="1"/>
        <pt x="67" y="708" on="1"/>
      </contour>
      <contour>
        <pt x="198" y="768" on="1"/>
        <pt x="173" y="768" on="0"/>
        <pt x="103" y="800" on="0"/>
        <pt x="56" y="800" on="0"/>
        <pt x="19" y="770" on="1"/>
        <pt x="-13" y="846" on="1"/>
        <pt x="45" y="903" on="0"/>
        <pt x="102" y="903" on="1"/>
        <pt x="128" y="903" on="0"/>
        <pt x="194" y="871" on="0"/>
        <pt x="240" y="871" on="0"/>
        <pt x="284" y="898" on="1"/>
        <pt x="311" y="820" on="1"/>
        <pt x="253" y="768" on="0"/>
      </contour>
    </TTGlyph>
    <TTGlyph name="J" xMin="-65" yMin="-172" xMax="231" yMax="708">
      <contour>
        <pt x="231" y="708" on="1"/>
        <pt x="231" y="112" on="1"/>
        <pt x="231" y="18" on="0"/>
        <pt x="146" y="-114" on="0"/>
        <pt x="18" y="-172" on="1"/>
        <pt x="-65" y="-65" on="1"/>
        <pt x="12" y="-26" on="0"/>
        <pt x="67" y="59" on="0"/>
        <pt x="67" y="149" on="1"/>
        <pt x="67" y="708" on="1"/>
      </contour>
    </TTGlyph>
    <TTGlyph name="Jcircumflex" xMin="-66" yMin="-172" xMax="309" yMax="924">
      <contour>
        <pt x="230" y="708" on="1"/>
        <pt x="230" y="112" on="1"/>
        <pt x="230" y="18" on="0"/>
        <pt x="144" y="-114" on="0"/>
        <pt x="16" y="-172" on="1"/>
        <pt x="-66" y="-65" on="1"/>
        <pt x="11" y="-26" on="0"/>
        <pt x="66" y="59" on="0"/>
        <pt x="66" y="149" on="1"/>
        <pt x="66" y="708" on="1"/>
      </contour>
      <contour>
        <pt x="182" y="924" on="1"/>
        <pt x="309" y="800" on="1"/>
        <pt x="254" y="743" on="1"/>
        <pt x="148" y="824" on="1"/>
        <pt x="43" y="743" on="1"/>
        <pt x="-12" y="800" on="1"/>
        <pt x="115" y="924" on="1"/>
      </contour>
    </TTGlyph>
    <TTGlyph name="K" xMin="67" yMin="0" xMax="592" yMax="713">
      <contour>
        <pt x="231" y="708" on="1"/>
        <pt x="231" y="0" on="1"/>
        <pt x="67" y="0" on="1"/>
        <pt x="67" y="708" on="1"/>
      </contour>
      <contour>
        <pt x="434" y="713" on="1"/>
        <pt x="575" y="651" on="1"/>
        <pt x="392" y="358" on="1"/>
        <pt x="592" y="0" on="1"/>
        <pt x="409" y="0" on="1"/>
        <pt x="233" y="343" on="1"/>
      </contour>
    </TTGlyph>
    <TTGlyph name="Kcommaaccent" xMin="67" yMin="-244" xMax="592" yMax="713">
      <contour>
        <pt x="246" y="-164" on="0"/>
        <pt x="265" y="-134" on="0"/>
        <pt x="265" y="-110" on="0"/>
        <pt x="255" y="-40" on="1"/>
        <pt x="365" y="-29" on="1"/>
        <pt x="373" y="-98" on="0"/>
        <pt x="373" y="-145" on="0"/>
        <pt x="330" y="-199" on="0"/>
        <pt x="265" y="-244" on="1"/>
        <pt x="215" y="-195" on="1"/>
      </contour>
      <contour>
        <pt x="231" y="708" on="1"/>
        <pt x="231" y="0" on="1"/>
        <pt x="67" y="0" on="1"/>
        <pt x="67" y="708" on="1"/>
      </contour>
      <contour>
        <pt x="434" y="713" on="1"/>
        <pt x="575" y="651" on="1"/>
        <pt x="392" y="358" on="1"/>
        <pt x="592" y="0" on="1"/>
        <pt x="409" y="0" on="1"/>
        <pt x="233" y="343" on="1"/>
      </contour>
    </TTGlyph>
    <TTGlyph name="L" xMin="67" yMin="0" xMax="470" yMax="708">
      <contour>
        <pt x="231" y="708" on="1"/>
        <pt x="231" y="124" on="1"/>
        <pt x="470" y="124" on="1"/>
        <pt x="452" y="0" on="1"/>
        <pt x="67" y="0" on="1"/>
        <pt x="67" y="708" on="1"/>
      </contour>
    </TTGlyph>
    <TTGlyph name="Lacute" xMin="67" yMin="0" xMax="470" yMax="932">
      <contour>
        <pt x="231" y="708" on="1"/>
        <pt x="231" y="124" on="1"/>
        <pt x="470" y="124" on="1"/>
        <pt x="452" y="0" on="1"/>
        <pt x="67" y="0" on="1"/>
        <pt x="67" y="708" on="1"/>
      </contour>
      <contour>
        <pt x="325" y="932" on="1"/>
        <pt x="375" y="826" on="1"/>
        <pt x="144" y="740" on="1"/>
        <pt x="100" y="821" on="1"/>
      </contour>
    </TTGlyph>
    <TTGlyph name="Lcaron" xMin="67" yMin="0" xMax="470" yMax="759">
      <contour>
        <pt x="441" y="759" on="1"/>
        <pt x="453" y="696" on="0"/>
        <pt x="453" y="614" on="0"/>
        <pt x="411" y="548" on="0"/>
        <pt x="341" y="484" on="1"/>
        <pt x="280" y="545" on="1"/>
        <pt x="336" y="603" on="0"/>
        <pt x="336" y="636" on="1"/>
        <pt x="336" y="654" on="0"/>
        <pt x="323" y="734" on="1"/>
      </contour>
      <contour>
        <pt x="231" y="708" on="1"/>
        <pt x="231" y="124" on="1"/>
        <pt x="470" y="124" on="1"/>
        <pt x="452" y="0" on="1"/>
        <pt x="67" y="0" on="1"/>
        <pt x="67" y="708" on="1"/>
      </contour>
    </TTGlyph>
    <TTGlyph name="Lcommaaccent" xMin="67" yMin="-244" xMax="470" yMax="708">
      <contour>
        <pt x="231" y="708" on="1"/>
        <pt x="231" y="124" on="1"/>
        <pt x="470" y="124" on="1"/>
        <pt x="452" y="0" on="1"/>
        <pt x="67" y="0" on="1"/>
        <pt x="67" y="708" on="1"/>
      </contour>
      <contour>
        <pt x="301" y="-29" on="1"/>
        <pt x="309" y="-98" on="0"/>
        <pt x="309" y="-145" on="0"/>
        <pt x="267" y="-199" on="0"/>
        <pt x="202" y="-244" on="1"/>
        <pt x="151" y="-195" on="1"/>
        <pt x="183" y="-163" on="0"/>
        <pt x="202" y="-134" on="0"/>
        <pt x="202" y="-111" on="0"/>
        <pt x="191" y="-40" on="1"/>
      </contour>
    </TTGlyph>
    <TTGlyph name="Ldot" xMin="67" yMin="0" xMax="470" yMax="708">
      <contour>
        <pt x="231" y="708" on="1"/>
        <pt x="231" y="124" on="1"/>
        <pt x="470" y="124" on="1"/>
        <pt x="452" y="0" on="1"/>
        <pt x="67" y="0" on="1"/>
        <pt x="67" y="708" on="1"/>
      </contour>
      <contour>
        <pt x="382" y="468" on="1"/>
        <pt x="459" y="468" on="0"/>
        <pt x="459" y="383" on="1"/>
        <pt x="459" y="351" on="0"/>
        <pt x="417" y="306" on="0"/>
        <pt x="374" y="306" on="1"/>
        <pt x="297" y="306" on="0"/>
        <pt x="297" y="390" on="1"/>
        <pt x="297" y="423" on="0"/>
        <pt x="339" y="468" on="0"/>
      </contour>
    </TTGlyph>
    <TTGlyph name="Lslash" xMin="18" yMin="0" xMax="497" yMax="700">
      <contour>
        <pt x="258" y="700" on="1"/>
        <pt x="258" y="439" on="1"/>
        <pt x="374" y="487" on="1"/>
        <pt x="374" y="371" on="1"/>
        <pt x="258" y="323" on="1"/>
        <pt x="258" y="124" on="1"/>
        <pt x="497" y="124" on="1"/>
        <pt x="480" y="0" on="1"/>
        <pt x="94" y="0" on="1"/>
        <pt x="94" y="257" on="1"/>
        <pt x="18" y="227" on="1"/>
        <pt x="18" y="343" on="1"/>
        <pt x="94" y="374" on="1"/>
        <pt x="94" y="700" on="1"/>
      </contour>
    </TTGlyph>
    <TTGlyph name="M" xMin="40" yMin="0" xMax="717" yMax="708">
      <contour>
        <pt x="668" y="708" on="1"/>
        <pt x="717" y="0" on="1"/>
        <pt x="568" y="0" on="1"/>
        <pt x="547" y="379" on="1"/>
        <pt x="559" y="481" on="1"/>
        <pt x="550" y="481" on="1"/>
        <pt x="444" y="43" on="1"/>
        <pt x="295" y="34" on="1"/>
        <pt x="184" y="480" on="1"/>
        <pt x="175" y="480" on="1"/>
        <pt x="187" y="381" on="1"/>
        <pt x="171" y="0" on="1"/>
        <pt x="40" y="0" on="1"/>
        <pt x="78" y="708" on="1"/>
        <pt x="264" y="708" on="1"/>
        <pt x="364" y="298" on="1"/>
        <pt x="379" y="199" on="1"/>
        <pt x="385" y="199" on="1"/>
        <pt x="396" y="297" on="1"/>
        <pt x="486" y="708" on="1"/>
      </contour>
    </TTGlyph>
    <TTGlyph name="Macute" xMin="43" yMin="0" xMax="720" yMax="932">
      <contour>
        <pt x="671" y="708" on="1"/>
        <pt x="720" y="0" on="1"/>
        <pt x="571" y="0" on="1"/>
        <pt x="550" y="379" on="1"/>
        <pt x="562" y="481" on="1"/>
        <pt x="553" y="481" on="1"/>
        <pt x="448" y="43" on="1"/>
        <pt x="298" y="34" on="1"/>
        <pt x="187" y="480" on="1"/>
        <pt x="179" y="480" on="1"/>
        <pt x="191" y="381" on="1"/>
        <pt x="174" y="0" on="1"/>
        <pt x="43" y="0" on="1"/>
        <pt x="81" y="708" on="1"/>
        <pt x="267" y="708" on="1"/>
        <pt x="367" y="298" on="1"/>
        <pt x="382" y="199" on="1"/>
        <pt x="388" y="199" on="1"/>
        <pt x="399" y="297" on="1"/>
        <pt x="490" y="708" on="1"/>
      </contour>
      <contour>
        <pt x="510" y="932" on="1"/>
        <pt x="561" y="826" on="1"/>
        <pt x="329" y="740" on="1"/>
        <pt x="285" y="821" on="1"/>
      </contour>
    </TTGlyph>
    <TTGlyph name="N" xMin="67" yMin="0" xMax="563" yMax="708">
      <contour>
        <pt x="563" y="708" on="1"/>
        <pt x="563" y="0" on="1"/>
        <pt x="408" y="0" on="1"/>
        <pt x="255" y="317" on="1"/>
        <pt x="214" y="427" on="1"/>
        <pt x="207" y="425" on="1"/>
        <pt x="231" y="301" on="1"/>
        <pt x="231" y="0" on="1"/>
        <pt x="67" y="0" on="1"/>
        <pt x="67" y="708" on="1"/>
        <pt x="224" y="708" on="1"/>
        <pt x="371" y="393" on="1"/>
        <pt x="417" y="270" on="1"/>
        <pt x="423" y="273" on="1"/>
        <pt x="400" y="402" on="1"/>
        <pt x="400" y="708" on="1"/>
      </contour>
    </TTGlyph>
    <TTGlyph name="Nacute" xMin="67" yMin="0" xMax="563" yMax="932">
      <contour>
        <pt x="497" y="826" on="1"/>
        <pt x="266" y="740" on="1"/>
        <pt x="222" y="821" on="1"/>
        <pt x="447" y="932" on="1"/>
      </contour>
      <contour>
        <pt x="563" y="708" on="1"/>
        <pt x="563" y="0" on="1"/>
        <pt x="408" y="0" on="1"/>
        <pt x="255" y="317" on="1"/>
        <pt x="214" y="427" on="1"/>
        <pt x="207" y="425" on="1"/>
        <pt x="231" y="301" on="1"/>
        <pt x="231" y="0" on="1"/>
        <pt x="67" y="0" on="1"/>
        <pt x="67" y="708" on="1"/>
        <pt x="224" y="708" on="1"/>
        <pt x="371" y="393" on="1"/>
        <pt x="417" y="270" on="1"/>
        <pt x="423" y="273" on="1"/>
        <pt x="400" y="402" on="1"/>
        <pt x="400" y="708" on="1"/>
      </contour>
    </TTGlyph>
    <TTGlyph name="Ncaron" xMin="67" yMin="0" xMax="563" yMax="925">
      <contour>
        <pt x="482" y="868" on="1"/>
        <pt x="350" y="743" on="1"/>
        <pt x="282" y="743" on="1"/>
        <pt x="150" y="868" on="1"/>
        <pt x="205" y="925" on="1"/>
        <pt x="316" y="844" on="1"/>
        <pt x="427" y="925" on="1"/>
      </contour>
      <contour>
        <pt x="563" y="708" on="1"/>
        <pt x="563" y="0" on="1"/>
        <pt x="408" y="0" on="1"/>
        <pt x="255" y="317" on="1"/>
        <pt x="214" y="427" on="1"/>
        <pt x="207" y="425" on="1"/>
        <pt x="231" y="301" on="1"/>
        <pt x="231" y="0" on="1"/>
        <pt x="67" y="0" on="1"/>
        <pt x="67" y="708" on="1"/>
        <pt x="224" y="708" on="1"/>
        <pt x="371" y="393" on="1"/>
        <pt x="417" y="270" on="1"/>
        <pt x="423" y="273" on="1"/>
        <pt x="400" y="402" on="1"/>
        <pt x="400" y="708" on="1"/>
      </contour>
    </TTGlyph>
    <TTGlyph name="Ncommaaccent" xMin="67" yMin="-244" xMax="563" yMax="708">
      <contour>
        <pt x="370" y="-29" on="1"/>
        <pt x="378" y="-91" on="0"/>
        <pt x="378" y="-147" on="0"/>
        <pt x="333" y="-200" on="0"/>
        <pt x="271" y="-244" on="1"/>
        <pt x="220" y="-195" on="1"/>
        <pt x="252" y="-164" on="0"/>
        <pt x="271" y="-134" on="0"/>
        <pt x="271" y="-111" on="0"/>
        <pt x="260" y="-40" on="1"/>
      </contour>
      <contour>
        <pt x="563" y="708" on="1"/>
        <pt x="563" y="0" on="1"/>
        <pt x="408" y="0" on="1"/>
        <pt x="255" y="317" on="1"/>
        <pt x="214" y="427" on="1"/>
        <pt x="207" y="425" on="1"/>
        <pt x="231" y="301" on="1"/>
        <pt x="231" y="0" on="1"/>
        <pt x="67" y="0" on="1"/>
        <pt x="67" y="708" on="1"/>
        <pt x="224" y="708" on="1"/>
        <pt x="371" y="393" on="1"/>
        <pt x="417" y="270" on="1"/>
        <pt x="423" y="273" on="1"/>
        <pt x="400" y="402" on="1"/>
        <pt x="400" y="708" on="1"/>
      </contour>
    </TTGlyph>
    <TTGlyph name="Ntilde" xMin="67" yMin="0" xMax="563" yMax="902">
      <contour>
        <pt x="367" y="772" on="1"/>
        <pt x="342" y="772" on="0"/>
        <pt x="268" y="803" on="0"/>
        <pt x="220" y="803" on="0"/>
        <pt x="168" y="770" on="1"/>
        <pt x="144" y="842" on="1"/>
        <pt x="207" y="899" on="0"/>
        <pt x="264" y="899" on="1"/>
        <pt x="291" y="899" on="0"/>
        <pt x="363" y="868" on="0"/>
        <pt x="412" y="868" on="0"/>
        <pt x="464" y="902" on="1"/>
        <pt x="488" y="828" on="1"/>
        <pt x="425" y="772" on="0"/>
      </contour>
      <contour>
        <pt x="563" y="708" on="1"/>
        <pt x="563" y="0" on="1"/>
        <pt x="408" y="0" on="1"/>
        <pt x="241" y="358" on="1"/>
        <pt x="214" y="427" on="1"/>
        <pt x="207" y="425" on="1"/>
        <pt x="231" y="301" on="1"/>
        <pt x="231" y="0" on="1"/>
        <pt x="67" y="0" on="1"/>
        <pt x="67" y="708" on="1"/>
        <pt x="224" y="708" on="1"/>
        <pt x="391" y="335" on="1"/>
        <pt x="417" y="270" on="1"/>
        <pt x="423" y="273" on="1"/>
        <pt x="400" y="402" on="1"/>
        <pt x="400" y="708" on="1"/>
      </contour>
    </TTGlyph>
    <TTGlyph name="O" xMin="40" yMin="-12" xMax="595" yMax="720">
      <contour>
        <pt x="252" y="592" on="0"/>
        <pt x="216" y="483" on="0"/>
        <pt x="216" y="222" on="0"/>
        <pt x="256" y="116" on="0"/>
        <pt x="383" y="116" on="0"/>
        <pt x="419" y="224" on="0"/>
        <pt x="419" y="362" on="1"/>
        <pt x="419" y="514" on="0"/>
        <pt x="391" y="554" on="1"/>
        <pt x="364" y="592" on="0"/>
      </contour>
      <contour>
        <pt x="327" y="720" on="1"/>
        <pt x="595" y="720" on="0"/>
        <pt x="595" y="367" on="1"/>
        <pt x="595" y="187" on="0"/>
        <pt x="451" y="-12" on="0"/>
        <pt x="308" y="-12" on="1"/>
        <pt x="40" y="-12" on="0"/>
        <pt x="40" y="340" on="1"/>
        <pt x="40" y="520" on="0"/>
        <pt x="184" y="720" on="0"/>
      </contour>
    </TTGlyph>
    <TTGlyph name="OE" xMin="40" yMin="-12" xMax="821" yMax="720">
      <contour>
        <pt x="548" y="583" on="1"/>
        <pt x="548" y="422" on="1"/>
        <pt x="774" y="422" on="1"/>
        <pt x="757" y="300" on="1"/>
        <pt x="548" y="300" on="1"/>
        <pt x="548" y="124" on="1"/>
        <pt x="821" y="124" on="1"/>
        <pt x="803" y="0" on="1"/>
        <pt x="385" y="0" on="1"/>
        <pt x="337" y="-12" on="0"/>
        <pt x="304" y="-12" on="1"/>
        <pt x="40" y="-12" on="0"/>
        <pt x="40" y="340" on="1"/>
        <pt x="40" y="520" on="0"/>
        <pt x="183" y="720" on="0"/>
        <pt x="324" y="720" on="1"/>
        <pt x="355" y="720" on="0"/>
        <pt x="395" y="708" on="1"/>
        <pt x="816" y="708" on="1"/>
        <pt x="798" y="583" on="1"/>
      </contour>
      <contour>
        <pt x="309" y="592" on="1"/>
        <pt x="251" y="592" on="0"/>
        <pt x="216" y="483" on="0"/>
        <pt x="216" y="346" on="1"/>
        <pt x="216" y="196" on="0"/>
        <pt x="244" y="154" on="1"/>
        <pt x="270" y="116" on="0"/>
        <pt x="322" y="116" on="1"/>
        <pt x="359" y="116" on="0"/>
        <pt x="384" y="131" on="1"/>
        <pt x="384" y="575" on="1"/>
        <pt x="352" y="592" on="0"/>
      </contour>
    </TTGlyph>
    <TTGlyph name="Oacute" xMin="40" yMin="-12" xMax="595" yMax="932">
      <contour>
        <pt x="450" y="932" on="1"/>
        <pt x="501" y="826" on="1"/>
        <pt x="269" y="740" on="1"/>
        <pt x="225" y="821" on="1"/>
      </contour>
      <contour>
        <pt x="252" y="592" on="0"/>
        <pt x="216" y="483" on="0"/>
        <pt x="216" y="222" on="0"/>
        <pt x="256" y="116" on="0"/>
        <pt x="383" y="116" on="0"/>
        <pt x="419" y="224" on="0"/>
        <pt x="419" y="362" on="1"/>
        <pt x="419" y="514" on="0"/>
        <pt x="391" y="554" on="1"/>
        <pt x="364" y="592" on="0"/>
      </contour>
      <contour>
        <pt x="327" y="720" on="1"/>
        <pt x="595" y="720" on="0"/>
        <pt x="595" y="367" on="1"/>
        <pt x="595" y="187" on="0"/>
        <pt x="451" y="-12" on="0"/>
        <pt x="308" y="-12" on="1"/>
        <pt x="40" y="-12" on="0"/>
        <pt x="40" y="340" on="1"/>
        <pt x="40" y="520" on="0"/>
        <pt x="184" y="720" on="0"/>
      </contour>
    </TTGlyph>
    <TTGlyph name="Obreve" xMin="40" yMin="-12" xMax="595" yMax="905">
      <contour>
        <pt x="252" y="592" on="0"/>
        <pt x="216" y="483" on="0"/>
        <pt x="216" y="222" on="0"/>
        <pt x="256" y="116" on="0"/>
        <pt x="383" y="116" on="0"/>
        <pt x="419" y="224" on="0"/>
        <pt x="419" y="362" on="1"/>
        <pt x="419" y="514" on="0"/>
        <pt x="391" y="554" on="1"/>
        <pt x="364" y="592" on="0"/>
      </contour>
      <contour>
        <pt x="327" y="719" on="1"/>
        <pt x="595" y="719" on="0"/>
        <pt x="595" y="367" on="1"/>
        <pt x="595" y="187" on="0"/>
        <pt x="451" y="-12" on="0"/>
        <pt x="308" y="-12" on="1"/>
        <pt x="40" y="-12" on="0"/>
        <pt x="40" y="340" on="1"/>
        <pt x="40" y="520" on="0"/>
        <pt x="184" y="719" on="0"/>
      </contour>
      <contour>
        <pt x="482" y="852" on="1"/>
        <pt x="421" y="768" on="0"/>
        <pt x="227" y="768" on="0"/>
        <pt x="162" y="852" on="1"/>
        <pt x="213" y="905" on="1"/>
        <pt x="269" y="861" on="0"/>
        <pt x="371" y="861" on="0"/>
        <pt x="432" y="905" on="1"/>
      </contour>
    </TTGlyph>
    <TTGlyph name="Ocaron" xMin="40" yMin="-12" xMax="595" yMax="925">
      <contour>
        <pt x="252" y="592" on="0"/>
        <pt x="216" y="483" on="0"/>
        <pt x="216" y="222" on="0"/>
        <pt x="256" y="116" on="0"/>
        <pt x="383" y="116" on="0"/>
        <pt x="419" y="224" on="0"/>
        <pt x="419" y="362" on="1"/>
        <pt x="419" y="514" on="0"/>
        <pt x="391" y="554" on="1"/>
        <pt x="364" y="592" on="0"/>
      </contour>
      <contour>
        <pt x="327" y="719" on="1"/>
        <pt x="595" y="719" on="0"/>
        <pt x="595" y="367" on="1"/>
        <pt x="595" y="187" on="0"/>
        <pt x="451" y="-12" on="0"/>
        <pt x="308" y="-12" on="1"/>
        <pt x="40" y="-12" on="0"/>
        <pt x="40" y="340" on="1"/>
        <pt x="40" y="520" on="0"/>
        <pt x="184" y="719" on="0"/>
      </contour>
      <contour>
        <pt x="488" y="868" on="1"/>
        <pt x="356" y="743" on="1"/>
        <pt x="288" y="743" on="1"/>
        <pt x="156" y="868" on="1"/>
        <pt x="211" y="925" on="1"/>
        <pt x="322" y="844" on="1"/>
        <pt x="433" y="925" on="1"/>
      </contour>
    </TTGlyph>
    <TTGlyph name="Ocircumflex" xMin="40" yMin="-12" xMax="595" yMax="924">
      <contour>
        <pt x="356" y="924" on="1"/>
        <pt x="488" y="800" on="1"/>
        <pt x="433" y="743" on="1"/>
        <pt x="322" y="824" on="1"/>
        <pt x="211" y="743" on="1"/>
        <pt x="156" y="800" on="1"/>
        <pt x="288" y="924" on="1"/>
      </contour>
      <contour>
        <pt x="252" y="592" on="0"/>
        <pt x="216" y="483" on="0"/>
        <pt x="216" y="222" on="0"/>
        <pt x="256" y="116" on="0"/>
        <pt x="383" y="116" on="0"/>
        <pt x="419" y="224" on="0"/>
        <pt x="419" y="362" on="1"/>
        <pt x="419" y="514" on="0"/>
        <pt x="391" y="554" on="1"/>
        <pt x="364" y="592" on="0"/>
      </contour>
      <contour>
        <pt x="327" y="720" on="1"/>
        <pt x="595" y="720" on="0"/>
        <pt x="595" y="367" on="1"/>
        <pt x="595" y="187" on="0"/>
        <pt x="451" y="-12" on="0"/>
        <pt x="308" y="-12" on="1"/>
        <pt x="40" y="-12" on="0"/>
        <pt x="40" y="340" on="1"/>
        <pt x="40" y="520" on="0"/>
        <pt x="184" y="720" on="0"/>
      </contour>
    </TTGlyph>
    <TTGlyph name="Odieresis" xMin="40" yMin="-12" xMax="595" yMax="918">
      <contour>
        <pt x="222" y="918" on="1"/>
        <pt x="297" y="918" on="0"/>
        <pt x="297" y="835" on="1"/>
        <pt x="297" y="802" on="0"/>
        <pt x="257" y="760" on="0"/>
        <pt x="214" y="760" on="1"/>
        <pt x="138" y="760" on="0"/>
        <pt x="138" y="842" on="1"/>
        <pt x="138" y="875" on="0"/>
        <pt x="178" y="918" on="0"/>
      </contour>
      <contour>
        <pt x="430" y="918" on="1"/>
        <pt x="505" y="918" on="0"/>
        <pt x="505" y="835" on="1"/>
        <pt x="505" y="760" on="0"/>
        <pt x="422" y="760" on="1"/>
        <pt x="347" y="760" on="0"/>
        <pt x="347" y="842" on="1"/>
        <pt x="347" y="875" on="0"/>
        <pt x="387" y="918" on="0"/>
      </contour>
      <contour>
        <pt x="252" y="592" on="0"/>
        <pt x="216" y="483" on="0"/>
        <pt x="216" y="222" on="0"/>
        <pt x="256" y="116" on="0"/>
        <pt x="383" y="116" on="0"/>
        <pt x="419" y="224" on="0"/>
        <pt x="419" y="362" on="1"/>
        <pt x="419" y="514" on="0"/>
        <pt x="391" y="554" on="1"/>
        <pt x="364" y="592" on="0"/>
      </contour>
      <contour>
        <pt x="327" y="719" on="1"/>
        <pt x="595" y="719" on="0"/>
        <pt x="595" y="367" on="1"/>
        <pt x="595" y="187" on="0"/>
        <pt x="451" y="-12" on="0"/>
        <pt x="308" y="-12" on="1"/>
        <pt x="40" y="-12" on="0"/>
        <pt x="40" y="340" on="1"/>
        <pt x="40" y="520" on="0"/>
        <pt x="184" y="719" on="0"/>
      </contour>
    </TTGlyph>
    <TTGlyph name="Ograve" xMin="40" yMin="-12" xMax="595" yMax="932">
      <contour>
        <pt x="413" y="821" on="1"/>
        <pt x="369" y="740" on="1"/>
        <pt x="137" y="826" on="1"/>
        <pt x="188" y="932" on="1"/>
      </contour>
      <contour>
        <pt x="252" y="592" on="0"/>
        <pt x="216" y="483" on="0"/>
        <pt x="216" y="222" on="0"/>
        <pt x="256" y="116" on="0"/>
        <pt x="383" y="116" on="0"/>
        <pt x="419" y="224" on="0"/>
        <pt x="419" y="362" on="1"/>
        <pt x="419" y="514" on="0"/>
        <pt x="391" y="554" on="1"/>
        <pt x="364" y="592" on="0"/>
      </contour>
      <contour>
        <pt x="327" y="720" on="1"/>
        <pt x="595" y="720" on="0"/>
        <pt x="595" y="367" on="1"/>
        <pt x="595" y="187" on="0"/>
        <pt x="451" y="-12" on="0"/>
        <pt x="308" y="-12" on="1"/>
        <pt x="40" y="-12" on="0"/>
        <pt x="40" y="340" on="1"/>
        <pt x="40" y="520" on="0"/>
        <pt x="184" y="720" on="0"/>
      </contour>
    </TTGlyph>
    <TTGlyph name="Ohorn" xMin="40" yMin="-12" xMax="714" yMax="774">
      <contour>
        <pt x="40" y="520" on="0"/>
        <pt x="184" y="719" on="0"/>
        <pt x="469" y="719" on="0"/>
        <pt x="537" y="621" on="1"/>
        <pt x="574" y="637" on="0"/>
        <pt x="599" y="676" on="0"/>
        <pt x="599" y="715" on="1"/>
        <pt x="599" y="716" on="0"/>
        <pt x="596" y="764" on="1"/>
        <pt x="714" y="774" on="1"/>
        <pt x="714" y="725" on="0"/>
        <pt x="710" y="696" on="1"/>
        <pt x="703" y="642" on="0"/>
        <pt x="645" y="579" on="0"/>
        <pt x="569" y="553" on="1"/>
        <pt x="594" y="480" on="0"/>
        <pt x="594" y="367" on="1"/>
        <pt x="594" y="187" on="0"/>
        <pt x="450" y="-12" on="0"/>
        <pt x="307" y="-12" on="1"/>
        <pt x="161" y="-12" on="0"/>
        <pt x="97" y="88" on="1"/>
        <pt x="48" y="166" on="0"/>
        <pt x="42" y="282" on="1"/>
        <pt x="40" y="308" on="0"/>
        <pt x="40" y="340" on="1"/>
      </contour>
      <contour>
        <pt x="252" y="592" on="0"/>
        <pt x="215" y="483" on="0"/>
        <pt x="215" y="346" on="1"/>
        <pt x="215" y="194" on="0"/>
        <pt x="243" y="154" on="1"/>
        <pt x="270" y="116" on="0"/>
        <pt x="383" y="116" on="0"/>
        <pt x="419" y="224" on="0"/>
        <pt x="419" y="362" on="1"/>
        <pt x="419" y="514" on="0"/>
        <pt x="391" y="554" on="1"/>
        <pt x="364" y="592" on="0"/>
      </contour>
    </TTGlyph>
    <TTGlyph name="Ohungarumlaut" xMin="40" yMin="-12" xMax="599" yMax="968">
      <contour>
        <pt x="319" y="968" on="1"/>
        <pt x="399" y="885" on="1"/>
        <pt x="221" y="737" on="1"/>
        <pt x="153" y="798" on="1"/>
      </contour>
      <contour>
        <pt x="520" y="965" on="1"/>
        <pt x="599" y="878" on="1"/>
        <pt x="413" y="737" on="1"/>
        <pt x="349" y="801" on="1"/>
      </contour>
      <contour>
        <pt x="252" y="592" on="0"/>
        <pt x="216" y="483" on="0"/>
        <pt x="216" y="222" on="0"/>
        <pt x="256" y="116" on="0"/>
        <pt x="383" y="116" on="0"/>
        <pt x="419" y="224" on="0"/>
        <pt x="419" y="362" on="1"/>
        <pt x="419" y="514" on="0"/>
        <pt x="391" y="554" on="1"/>
        <pt x="364" y="592" on="0"/>
      </contour>
      <contour>
        <pt x="327" y="720" on="1"/>
        <pt x="595" y="720" on="0"/>
        <pt x="595" y="367" on="1"/>
        <pt x="595" y="187" on="0"/>
        <pt x="451" y="-12" on="0"/>
        <pt x="308" y="-12" on="1"/>
        <pt x="40" y="-12" on="0"/>
        <pt x="40" y="340" on="1"/>
        <pt x="40" y="520" on="0"/>
        <pt x="184" y="720" on="0"/>
      </contour>
    </TTGlyph>
    <TTGlyph name="Omacron" xMin="40" yMin="-12" xMax="595" yMax="880">
      <contour>
        <pt x="252" y="592" on="0"/>
        <pt x="216" y="483" on="0"/>
        <pt x="216" y="222" on="0"/>
        <pt x="256" y="116" on="0"/>
        <pt x="383" y="116" on="0"/>
        <pt x="419" y="224" on="0"/>
        <pt x="419" y="362" on="1"/>
        <pt x="419" y="514" on="0"/>
        <pt x="391" y="554" on="1"/>
        <pt x="364" y="592" on="0"/>
      </contour>
      <contour>
        <pt x="327" y="719" on="1"/>
        <pt x="595" y="719" on="0"/>
        <pt x="595" y="367" on="1"/>
        <pt x="595" y="187" on="0"/>
        <pt x="451" y="-12" on="0"/>
        <pt x="308" y="-12" on="1"/>
        <pt x="40" y="-12" on="0"/>
        <pt x="40" y="340" on="1"/>
        <pt x="40" y="520" on="0"/>
        <pt x="184" y="719" on="0"/>
      </contour>
      <contour>
        <pt x="185" y="880" on="1"/>
        <pt x="461" y="880" on="1"/>
        <pt x="461" y="779" on="1"/>
        <pt x="185" y="779" on="1"/>
      </contour>
    </TTGlyph>
    <TTGlyph name="Oslash" xMin="40" yMin="-82" xMax="595" yMax="781">
      <contour>
        <pt x="595" y="367" on="1"/>
        <pt x="595" y="187" on="0"/>
        <pt x="451" y="-12" on="0"/>
        <pt x="308" y="-12" on="1"/>
        <pt x="255" y="-12" on="0"/>
        <pt x="208" y="3" on="1"/>
        <pt x="172" y="-82" on="1"/>
        <pt x="106" y="-54" on="1"/>
        <pt x="145" y="37" on="1"/>
        <pt x="40" y="116" on="0"/>
        <pt x="40" y="340" on="1"/>
        <pt x="40" y="520" on="0"/>
        <pt x="184" y="720" on="0"/>
        <pt x="327" y="720" on="1"/>
        <pt x="383" y="720" on="0"/>
        <pt x="432" y="702" on="1"/>
        <pt x="465" y="781" on="1"/>
        <pt x="532" y="752" on="1"/>
        <pt x="495" y="666" on="1"/>
        <pt x="595" y="585" on="0"/>
      </contour>
      <contour>
        <pt x="374" y="572" on="1"/>
        <pt x="349" y="592" on="0"/>
        <pt x="281" y="592" on="0"/>
        <pt x="241" y="565" on="0"/>
        <pt x="220" y="516" on="0"/>
        <pt x="209" y="448" on="0"/>
        <pt x="209" y="364" on="0"/>
        <pt x="213" y="254" on="0"/>
        <pt x="228" y="219" on="1"/>
      </contour>
      <contour>
        <pt x="266" y="131" on="1"/>
        <pt x="287" y="116" on="0"/>
        <pt x="354" y="116" on="0"/>
        <pt x="394" y="142" on="0"/>
        <pt x="404" y="166" on="1"/>
        <pt x="426" y="213" on="0"/>
        <pt x="426" y="328" on="1"/>
        <pt x="426" y="437" on="0"/>
        <pt x="410" y="479" on="1"/>
      </contour>
    </TTGlyph>
    <TTGlyph name="Oslashacute" xMin="40" yMin="-82" xMax="595" yMax="932">
      <contour>
        <pt x="327" y="720" on="1"/>
        <pt x="383" y="720" on="0"/>
        <pt x="432" y="702" on="1"/>
        <pt x="465" y="781" on="1"/>
        <pt x="532" y="752" on="1"/>
        <pt x="495" y="666" on="1"/>
        <pt x="595" y="585" on="0"/>
        <pt x="595" y="367" on="1"/>
        <pt x="595" y="187" on="0"/>
        <pt x="451" y="-12" on="0"/>
        <pt x="308" y="-12" on="1"/>
        <pt x="255" y="-12" on="0"/>
        <pt x="208" y="3" on="1"/>
        <pt x="172" y="-82" on="1"/>
        <pt x="106" y="-54" on="1"/>
        <pt x="145" y="37" on="1"/>
        <pt x="40" y="116" on="0"/>
        <pt x="40" y="340" on="1"/>
        <pt x="40" y="520" on="0"/>
        <pt x="184" y="720" on="0"/>
      </contour>
      <contour>
        <pt x="310" y="592" on="1"/>
        <pt x="248" y="592" on="0"/>
        <pt x="209" y="483" on="0"/>
        <pt x="209" y="257" on="0"/>
        <pt x="228" y="219" on="1"/>
        <pt x="374" y="572" on="1"/>
        <pt x="349" y="592" on="0"/>
      </contour>
      <contour>
        <pt x="324" y="116" on="1"/>
        <pt x="387" y="116" on="0"/>
        <pt x="426" y="225" on="0"/>
        <pt x="426" y="442" on="0"/>
        <pt x="410" y="479" on="1"/>
        <pt x="266" y="131" on="1"/>
        <pt x="287" y="116" on="0"/>
      </contour>
      <contour>
        <pt x="434" y="932" on="1"/>
        <pt x="484" y="826" on="1"/>
        <pt x="253" y="740" on="1"/>
        <pt x="209" y="821" on="1"/>
      </contour>
    </TTGlyph>
    <TTGlyph name="Otilde" xMin="40" yMin="-12" xMax="595" yMax="902">
      <contour>
        <pt x="252" y="592" on="0"/>
        <pt x="216" y="483" on="0"/>
        <pt x="216" y="222" on="0"/>
        <pt x="256" y="116" on="0"/>
        <pt x="383" y="116" on="0"/>
        <pt x="419" y="224" on="0"/>
        <pt x="419" y="362" on="1"/>
        <pt x="419" y="514" on="0"/>
        <pt x="391" y="554" on="1"/>
        <pt x="364" y="592" on="0"/>
      </contour>
      <contour>
        <pt x="327" y="719" on="1"/>
        <pt x="595" y="719" on="0"/>
        <pt x="595" y="367" on="1"/>
        <pt x="595" y="187" on="0"/>
        <pt x="451" y="-12" on="0"/>
        <pt x="308" y="-12" on="1"/>
        <pt x="40" y="-12" on="0"/>
        <pt x="40" y="340" on="1"/>
        <pt x="40" y="520" on="0"/>
        <pt x="184" y="719" on="0"/>
      </contour>
      <contour>
        <pt x="379" y="768" on="1"/>
        <pt x="353" y="768" on="0"/>
        <pt x="278" y="799" on="0"/>
        <pt x="259" y="799" on="1"/>
        <pt x="223" y="799" on="0"/>
        <pt x="180" y="770" on="1"/>
        <pt x="148" y="842" on="1"/>
        <pt x="209" y="902" on="0"/>
        <pt x="276" y="902" on="1"/>
        <pt x="302" y="902" on="0"/>
        <pt x="374" y="871" on="0"/>
        <pt x="425" y="871" on="0"/>
        <pt x="475" y="901" on="1"/>
        <pt x="504" y="827" on="1"/>
        <pt x="436" y="768" on="0"/>
      </contour>
    </TTGlyph>
    <TTGlyph name="P" xMin="67" yMin="0" xMax="557" yMax="708">
      <contour>
        <pt x="67" y="708" on="1"/>
        <pt x="323" y="708" on="1"/>
        <pt x="460" y="708" on="0"/>
        <pt x="512" y="643" on="1"/>
        <pt x="557" y="585" on="0"/>
        <pt x="557" y="495" on="1"/>
        <pt x="557" y="402" on="0"/>
        <pt x="502" y="332" on="1"/>
        <pt x="473" y="294" on="0"/>
        <pt x="356" y="249" on="0"/>
        <pt x="274" y="249" on="1"/>
        <pt x="231" y="249" on="1"/>
        <pt x="231" y="0" on="1"/>
        <pt x="67" y="0" on="1"/>
      </contour>
      <contour>
        <pt x="231" y="596" on="1"/>
        <pt x="231" y="367" on="1"/>
        <pt x="285" y="367" on="1"/>
        <pt x="336" y="367" on="0"/>
        <pt x="381" y="421" on="0"/>
        <pt x="381" y="538" on="0"/>
        <pt x="343" y="596" on="0"/>
        <pt x="285" y="596" on="1"/>
      </contour>
    </TTGlyph>
    <TTGlyph name="Q" xMin="39" yMin="-185" xMax="593" yMax="719">
      <contour>
        <pt x="39" y="340" on="1"/>
        <pt x="39" y="520" on="0"/>
        <pt x="183" y="719" on="0"/>
        <pt x="326" y="719" on="1"/>
        <pt x="472" y="719" on="0"/>
        <pt x="536" y="618" on="1"/>
        <pt x="585" y="541" on="0"/>
        <pt x="592" y="426" on="1"/>
        <pt x="593" y="399" on="0"/>
        <pt x="593" y="367" on="1"/>
        <pt x="593" y="189" on="0"/>
        <pt x="452" y="-10" on="0"/>
        <pt x="312" y="-11" on="1"/>
        <pt x="312" y="-21" on="1"/>
        <pt x="573" y="-72" on="1"/>
        <pt x="526" y="-185" on="1"/>
        <pt x="207" y="-100" on="1"/>
        <pt x="236" y="-4" on="1"/>
        <pt x="39" y="36" on="0"/>
      </contour>
      <contour>
        <pt x="382" y="116" on="0"/>
        <pt x="418" y="225" on="0"/>
        <pt x="418" y="485" on="0"/>
        <pt x="377" y="592" on="0"/>
        <pt x="251" y="592" on="0"/>
        <pt x="214" y="483" on="0"/>
        <pt x="214" y="346" on="1"/>
        <pt x="214" y="194" on="0"/>
        <pt x="242" y="154" on="1"/>
        <pt x="269" y="116" on="0"/>
      </contour>
    </TTGlyph>
    <TTGlyph name="R" xMin="67" yMin="0" xMax="565" yMax="708">
      <contour>
        <pt x="67" y="708" on="1"/>
        <pt x="332" y="708" on="1"/>
        <pt x="541" y="708" on="0"/>
        <pt x="541" y="507" on="1"/>
        <pt x="541" y="361" on="0"/>
        <pt x="411" y="304" on="1"/>
        <pt x="565" y="0" on="1"/>
        <pt x="389" y="0" on="1"/>
        <pt x="273" y="265" on="1"/>
        <pt x="228" y="265" on="1"/>
        <pt x="228" y="0" on="1"/>
        <pt x="67" y="0" on="1"/>
      </contour>
      <contour>
        <pt x="230" y="588" on="1"/>
        <pt x="230" y="387" on="1"/>
        <pt x="277" y="387" on="1"/>
        <pt x="366" y="387" on="0"/>
        <pt x="366" y="494" on="1"/>
        <pt x="366" y="540" on="0"/>
        <pt x="325" y="588" on="0"/>
        <pt x="275" y="588" on="1"/>
      </contour>
    </TTGlyph>
    <TTGlyph name="Racute" xMin="67" yMin="0" xMax="565" yMax="932">
      <contour>
        <pt x="67" y="708" on="1"/>
        <pt x="332" y="708" on="1"/>
        <pt x="542" y="708" on="0"/>
        <pt x="542" y="507" on="1"/>
        <pt x="542" y="362" on="0"/>
        <pt x="411" y="304" on="1"/>
        <pt x="565" y="0" on="1"/>
        <pt x="389" y="0" on="1"/>
        <pt x="273" y="265" on="1"/>
        <pt x="228" y="265" on="1"/>
        <pt x="228" y="0" on="1"/>
        <pt x="67" y="0" on="1"/>
      </contour>
      <contour>
        <pt x="230" y="587" on="1"/>
        <pt x="230" y="387" on="1"/>
        <pt x="277" y="387" on="1"/>
        <pt x="366" y="387" on="0"/>
        <pt x="366" y="494" on="1"/>
        <pt x="366" y="541" on="0"/>
        <pt x="325" y="587" on="0"/>
        <pt x="275" y="587" on="1"/>
      </contour>
      <contour>
        <pt x="436" y="932" on="1"/>
        <pt x="486" y="826" on="1"/>
        <pt x="255" y="740" on="1"/>
        <pt x="211" y="821" on="1"/>
      </contour>
    </TTGlyph>
    <TTGlyph name="Rcaron" xMin="67" yMin="0" xMax="565" yMax="925">
      <contour>
        <pt x="67" y="708" on="1"/>
        <pt x="332" y="708" on="1"/>
        <pt x="542" y="708" on="0"/>
        <pt x="542" y="507" on="1"/>
        <pt x="542" y="362" on="0"/>
        <pt x="411" y="304" on="1"/>
        <pt x="565" y="0" on="1"/>
        <pt x="389" y="0" on="1"/>
        <pt x="273" y="265" on="1"/>
        <pt x="228" y="265" on="1"/>
        <pt x="228" y="0" on="1"/>
        <pt x="67" y="0" on="1"/>
      </contour>
      <contour>
        <pt x="230" y="587" on="1"/>
        <pt x="230" y="387" on="1"/>
        <pt x="277" y="387" on="1"/>
        <pt x="366" y="387" on="0"/>
        <pt x="366" y="494" on="1"/>
        <pt x="366" y="541" on="0"/>
        <pt x="325" y="587" on="0"/>
        <pt x="275" y="587" on="1"/>
      </contour>
      <contour>
        <pt x="256" y="743" on="1"/>
        <pt x="124" y="868" on="1"/>
        <pt x="179" y="925" on="1"/>
        <pt x="290" y="844" on="1"/>
        <pt x="401" y="925" on="1"/>
        <pt x="456" y="868" on="1"/>
        <pt x="324" y="743" on="1"/>
      </contour>
    </TTGlyph>
    <TTGlyph name="Rcommaaccent" xMin="67" yMin="-244" xMax="565" yMax="708">
      <contour>
        <pt x="67" y="708" on="1"/>
        <pt x="332" y="708" on="1"/>
        <pt x="542" y="708" on="0"/>
        <pt x="542" y="507" on="1"/>
        <pt x="542" y="362" on="0"/>
        <pt x="411" y="304" on="1"/>
        <pt x="565" y="0" on="1"/>
        <pt x="389" y="0" on="1"/>
        <pt x="273" y="265" on="1"/>
        <pt x="228" y="265" on="1"/>
        <pt x="228" y="0" on="1"/>
        <pt x="67" y="0" on="1"/>
      </contour>
      <contour>
        <pt x="230" y="587" on="1"/>
        <pt x="230" y="387" on="1"/>
        <pt x="277" y="387" on="1"/>
        <pt x="366" y="387" on="0"/>
        <pt x="366" y="494" on="1"/>
        <pt x="366" y="541" on="0"/>
        <pt x="325" y="587" on="0"/>
        <pt x="275" y="587" on="1"/>
      </contour>
      <contour>
        <pt x="356" y="-29" on="1"/>
        <pt x="364" y="-98" on="0"/>
        <pt x="364" y="-145" on="0"/>
        <pt x="322" y="-199" on="0"/>
        <pt x="257" y="-244" on="1"/>
        <pt x="206" y="-195" on="1"/>
        <pt x="238" y="-163" on="0"/>
        <pt x="257" y="-134" on="0"/>
        <pt x="257" y="-111" on="0"/>
        <pt x="246" y="-40" on="1"/>
      </contour>
    </TTGlyph>
    <TTGlyph name="S" xMin="22" yMin="-12" xMax="512" yMax="720">
      <contour>
        <pt x="274" y="720" on="1"/>
        <pt x="478" y="720" on="0"/>
        <pt x="497" y="531" on="1"/>
        <pt x="345" y="507" on="1"/>
        <pt x="330" y="599" on="0"/>
        <pt x="257" y="599" on="1"/>
        <pt x="227" y="599" on="0"/>
        <pt x="192" y="565" on="0"/>
        <pt x="192" y="518" on="0"/>
        <pt x="207" y="486" on="0"/>
        <pt x="248" y="454" on="0"/>
        <pt x="272" y="439" on="0"/>
        <pt x="340" y="403" on="0"/>
        <pt x="389" y="376" on="0"/>
        <pt x="435" y="346" on="0"/>
        <pt x="462" y="322" on="1"/>
        <pt x="512" y="276" on="0"/>
        <pt x="512" y="113" on="0"/>
        <pt x="372" y="-12" on="0"/>
        <pt x="262" y="-12" on="1"/>
        <pt x="202" y="-12" on="0"/>
        <pt x="73" y="28" on="0"/>
        <pt x="22" y="63" on="1"/>
        <pt x="81" y="172" on="1"/>
        <pt x="179" y="117" on="0"/>
        <pt x="259" y="117" on="1"/>
        <pt x="291" y="117" on="0"/>
        <pt x="342" y="151" on="0"/>
        <pt x="342" y="184" on="1"/>
        <pt x="342" y="220" on="0"/>
        <pt x="308" y="245" on="1"/>
        <pt x="268" y="274" on="0"/>
        <pt x="224" y="294" on="1"/>
        <pt x="185" y="310" on="0"/>
        <pt x="108" y="358" on="0"/>
        <pt x="79" y="387" on="0"/>
        <pt x="63" y="408" on="1"/>
        <pt x="32" y="450" on="0"/>
        <pt x="32" y="513" on="1"/>
        <pt x="32" y="603" on="0"/>
        <pt x="171" y="720" on="0"/>
      </contour>
    </TTGlyph>
    <TTGlyph name="Sacute" xMin="22" yMin="-13" xMax="512" yMax="930">
      <contour>
        <pt x="387" y="930" on="1"/>
        <pt x="437" y="824" on="1"/>
        <pt x="205" y="739" on="1"/>
        <pt x="161" y="819" on="1"/>
      </contour>
      <contour>
        <pt x="274" y="718" on="1"/>
        <pt x="478" y="718" on="0"/>
        <pt x="497" y="530" on="1"/>
        <pt x="345" y="506" on="1"/>
        <pt x="329" y="598" on="0"/>
        <pt x="257" y="598" on="1"/>
        <pt x="227" y="598" on="0"/>
        <pt x="192" y="564" on="0"/>
        <pt x="192" y="520" on="0"/>
        <pt x="207" y="490" on="0"/>
        <pt x="224" y="469" on="0"/>
        <pt x="263" y="443" on="0"/>
        <pt x="286" y="430" on="0"/>
        <pt x="340" y="402" on="0"/>
        <pt x="390" y="374" on="0"/>
        <pt x="435" y="345" on="0"/>
        <pt x="462" y="321" on="1"/>
        <pt x="512" y="275" on="0"/>
        <pt x="512" y="112" on="0"/>
        <pt x="372" y="-13" on="0"/>
        <pt x="262" y="-13" on="1"/>
        <pt x="202" y="-13" on="0"/>
        <pt x="73" y="27" on="0"/>
        <pt x="22" y="62" on="1"/>
        <pt x="81" y="171" on="1"/>
        <pt x="179" y="116" on="0"/>
        <pt x="259" y="116" on="1"/>
        <pt x="291" y="116" on="0"/>
        <pt x="342" y="150" on="0"/>
        <pt x="342" y="183" on="1"/>
        <pt x="342" y="201" on="0"/>
        <pt x="329" y="223" on="0"/>
        <pt x="321" y="235" on="0"/>
        <pt x="303" y="248" on="0"/>
        <pt x="291" y="257" on="0"/>
        <pt x="266" y="270" on="0"/>
        <pt x="253" y="277" on="0"/>
        <pt x="223" y="292" on="0"/>
        <pt x="181" y="313" on="0"/>
        <pt x="149" y="330" on="0"/>
        <pt x="88" y="373" on="0"/>
        <pt x="73" y="392" on="1"/>
        <pt x="32" y="446" on="0"/>
        <pt x="32" y="512" on="1"/>
        <pt x="32" y="601" on="0"/>
        <pt x="171" y="718" on="0"/>
      </contour>
    </TTGlyph>
    <TTGlyph name="Scaron" xMin="22" yMin="-12" xMax="512" yMax="925">
      <contour>
        <pt x="377" y="925" on="1"/>
        <pt x="432" y="868" on="1"/>
        <pt x="300" y="743" on="1"/>
        <pt x="232" y="743" on="1"/>
        <pt x="100" y="868" on="1"/>
        <pt x="155" y="925" on="1"/>
        <pt x="266" y="844" on="1"/>
      </contour>
      <contour>
        <pt x="274" y="720" on="1"/>
        <pt x="478" y="720" on="0"/>
        <pt x="497" y="531" on="1"/>
        <pt x="345" y="507" on="1"/>
        <pt x="330" y="599" on="0"/>
        <pt x="257" y="599" on="1"/>
        <pt x="227" y="599" on="0"/>
        <pt x="192" y="565" on="0"/>
        <pt x="192" y="518" on="0"/>
        <pt x="207" y="486" on="0"/>
        <pt x="248" y="454" on="0"/>
        <pt x="272" y="439" on="0"/>
        <pt x="340" y="403" on="0"/>
        <pt x="389" y="376" on="0"/>
        <pt x="435" y="346" on="0"/>
        <pt x="462" y="322" on="1"/>
        <pt x="512" y="276" on="0"/>
        <pt x="512" y="113" on="0"/>
        <pt x="372" y="-12" on="0"/>
        <pt x="262" y="-12" on="1"/>
        <pt x="202" y="-12" on="0"/>
        <pt x="73" y="28" on="0"/>
        <pt x="22" y="63" on="1"/>
        <pt x="81" y="172" on="1"/>
        <pt x="179" y="117" on="0"/>
        <pt x="259" y="117" on="1"/>
        <pt x="291" y="117" on="0"/>
        <pt x="342" y="151" on="0"/>
        <pt x="342" y="184" on="1"/>
        <pt x="342" y="220" on="0"/>
        <pt x="308" y="245" on="1"/>
        <pt x="268" y="274" on="0"/>
        <pt x="224" y="294" on="1"/>
        <pt x="185" y="310" on="0"/>
        <pt x="108" y="358" on="0"/>
        <pt x="79" y="387" on="0"/>
        <pt x="63" y="408" on="1"/>
        <pt x="32" y="450" on="0"/>
        <pt x="32" y="513" on="1"/>
        <pt x="32" y="603" on="0"/>
        <pt x="171" y="720" on="0"/>
      </contour>
    </TTGlyph>
    <TTGlyph name="Scedilla" xMin="22" yMin="-196" xMax="512" yMax="720">
      <contour>
        <pt x="274" y="720" on="1"/>
        <pt x="478" y="720" on="0"/>
        <pt x="497" y="531" on="1"/>
        <pt x="341" y="507" on="1"/>
        <pt x="332" y="599" on="0"/>
        <pt x="257" y="599" on="1"/>
        <pt x="227" y="599" on="0"/>
        <pt x="192" y="565" on="0"/>
        <pt x="192" y="518" on="0"/>
        <pt x="207" y="486" on="0"/>
        <pt x="248" y="454" on="0"/>
        <pt x="272" y="439" on="0"/>
        <pt x="340" y="403" on="0"/>
        <pt x="389" y="376" on="0"/>
        <pt x="435" y="346" on="0"/>
        <pt x="462" y="322" on="1"/>
        <pt x="512" y="276" on="0"/>
        <pt x="512" y="119" on="0"/>
        <pt x="392" y="-1" on="0"/>
        <pt x="294" y="-10" on="1"/>
        <pt x="291" y="-40" on="1"/>
        <pt x="297" y="-42" on="0"/>
        <pt x="319" y="-48" on="0"/>
        <pt x="325" y="-50" on="1"/>
        <pt x="364" y="-66" on="0"/>
        <pt x="364" y="-152" on="0"/>
        <pt x="310" y="-196" on="0"/>
        <pt x="217" y="-196" on="0"/>
        <pt x="173" y="-174" on="1"/>
        <pt x="193" y="-121" on="1"/>
        <pt x="234" y="-132" on="0"/>
        <pt x="280" y="-132" on="0"/>
        <pt x="280" y="-112" on="1"/>
        <pt x="280" y="-96" on="0"/>
        <pt x="218" y="-82" on="0"/>
        <pt x="206" y="-80" on="1"/>
        <pt x="225" y="-10" on="1"/>
        <pt x="109" y="2" on="0"/>
        <pt x="22" y="63" on="1"/>
        <pt x="81" y="172" on="1"/>
        <pt x="179" y="117" on="0"/>
        <pt x="259" y="117" on="1"/>
        <pt x="291" y="117" on="0"/>
        <pt x="342" y="151" on="0"/>
        <pt x="342" y="184" on="1"/>
        <pt x="342" y="220" on="0"/>
        <pt x="308" y="245" on="1"/>
        <pt x="268" y="274" on="0"/>
        <pt x="224" y="294" on="1"/>
        <pt x="185" y="310" on="0"/>
        <pt x="108" y="358" on="0"/>
        <pt x="79" y="387" on="0"/>
        <pt x="63" y="408" on="1"/>
        <pt x="32" y="450" on="0"/>
        <pt x="32" y="513" on="1"/>
        <pt x="32" y="603" on="0"/>
        <pt x="171" y="720" on="0"/>
      </contour>
    </TTGlyph>
    <TTGlyph name="Scircumflex" xMin="22" yMin="-12" xMax="512" yMax="924">
      <contour>
        <pt x="274" y="720" on="1"/>
        <pt x="478" y="720" on="0"/>
        <pt x="497" y="531" on="1"/>
        <pt x="341" y="507" on="1"/>
        <pt x="332" y="599" on="0"/>
        <pt x="257" y="599" on="1"/>
        <pt x="227" y="599" on="0"/>
        <pt x="192" y="565" on="0"/>
        <pt x="192" y="518" on="0"/>
        <pt x="207" y="486" on="0"/>
        <pt x="248" y="454" on="0"/>
        <pt x="272" y="439" on="0"/>
        <pt x="340" y="403" on="0"/>
        <pt x="389" y="376" on="0"/>
        <pt x="435" y="346" on="0"/>
        <pt x="462" y="322" on="1"/>
        <pt x="512" y="276" on="0"/>
        <pt x="512" y="113" on="0"/>
        <pt x="372" y="-12" on="0"/>
        <pt x="262" y="-12" on="1"/>
        <pt x="202" y="-12" on="0"/>
        <pt x="73" y="28" on="0"/>
        <pt x="22" y="63" on="1"/>
        <pt x="81" y="172" on="1"/>
        <pt x="179" y="117" on="0"/>
        <pt x="259" y="117" on="1"/>
        <pt x="291" y="117" on="0"/>
        <pt x="342" y="151" on="0"/>
        <pt x="342" y="184" on="1"/>
        <pt x="342" y="220" on="0"/>
        <pt x="308" y="245" on="1"/>
        <pt x="268" y="274" on="0"/>
        <pt x="224" y="294" on="1"/>
        <pt x="185" y="310" on="0"/>
        <pt x="108" y="358" on="0"/>
        <pt x="79" y="387" on="0"/>
        <pt x="63" y="408" on="1"/>
        <pt x="32" y="450" on="0"/>
        <pt x="32" y="513" on="1"/>
        <pt x="32" y="603" on="0"/>
        <pt x="171" y="720" on="0"/>
      </contour>
      <contour>
        <pt x="300" y="924" on="1"/>
        <pt x="432" y="800" on="1"/>
        <pt x="377" y="743" on="1"/>
        <pt x="266" y="824" on="1"/>
        <pt x="155" y="743" on="1"/>
        <pt x="100" y="800" on="1"/>
        <pt x="232" y="924" on="1"/>
      </contour>
    </TTGlyph>
    <TTGlyph name="Scommaaccent" xMin="22" yMin="-244" xMax="512" yMax="720">
      <contour>
        <pt x="274" y="720" on="1"/>
        <pt x="478" y="720" on="0"/>
        <pt x="497" y="531" on="1"/>
        <pt x="341" y="507" on="1"/>
        <pt x="332" y="599" on="0"/>
        <pt x="257" y="599" on="1"/>
        <pt x="227" y="599" on="0"/>
        <pt x="192" y="565" on="0"/>
        <pt x="192" y="518" on="0"/>
        <pt x="207" y="486" on="0"/>
        <pt x="248" y="454" on="0"/>
        <pt x="272" y="439" on="0"/>
        <pt x="340" y="403" on="0"/>
        <pt x="389" y="376" on="0"/>
        <pt x="435" y="346" on="0"/>
        <pt x="462" y="322" on="1"/>
        <pt x="512" y="276" on="0"/>
        <pt x="512" y="113" on="0"/>
        <pt x="372" y="-12" on="0"/>
        <pt x="262" y="-12" on="1"/>
        <pt x="202" y="-12" on="0"/>
        <pt x="73" y="28" on="0"/>
        <pt x="22" y="63" on="1"/>
        <pt x="81" y="172" on="1"/>
        <pt x="179" y="117" on="0"/>
        <pt x="259" y="117" on="1"/>
        <pt x="291" y="117" on="0"/>
        <pt x="342" y="151" on="0"/>
        <pt x="342" y="184" on="1"/>
        <pt x="342" y="220" on="0"/>
        <pt x="308" y="245" on="1"/>
        <pt x="268" y="274" on="0"/>
        <pt x="224" y="294" on="1"/>
        <pt x="185" y="310" on="0"/>
        <pt x="108" y="358" on="0"/>
        <pt x="79" y="387" on="0"/>
        <pt x="63" y="408" on="1"/>
        <pt x="32" y="450" on="0"/>
        <pt x="32" y="513" on="1"/>
        <pt x="32" y="603" on="0"/>
        <pt x="171" y="720" on="0"/>
      </contour>
      <contour>
        <pt x="324" y="-29" on="1"/>
        <pt x="332" y="-81" on="0"/>
        <pt x="332" y="-146" on="0"/>
        <pt x="290" y="-199" on="0"/>
        <pt x="225" y="-244" on="1"/>
        <pt x="174" y="-195" on="1"/>
        <pt x="206" y="-163" on="0"/>
        <pt x="225" y="-134" on="0"/>
        <pt x="225" y="-111" on="0"/>
        <pt x="214" y="-40" on="1"/>
      </contour>
    </TTGlyph>
    <TTGlyph name="T" xMin="9" yMin="0" xMax="502" yMax="708">
      <contour>
        <pt x="342" y="585" on="1"/>
        <pt x="342" y="0" on="1"/>
        <pt x="178" y="0" on="1"/>
        <pt x="178" y="585" on="1"/>
        <pt x="9" y="585" on="1"/>
        <pt x="25" y="708" on="1"/>
        <pt x="502" y="708" on="1"/>
        <pt x="486" y="585" on="1"/>
      </contour>
    </TTGlyph>
    <TTGlyph name="Tbar" xMin="13" yMin="0" xMax="505" yMax="708">
      <contour>
        <pt x="345" y="585" on="1"/>
        <pt x="345" y="393" on="1"/>
        <pt x="470" y="393" on="1"/>
        <pt x="470" y="295" on="1"/>
        <pt x="345" y="295" on="1"/>
        <pt x="345" y="0" on="1"/>
        <pt x="182" y="0" on="1"/>
        <pt x="182" y="295" on="1"/>
        <pt x="48" y="295" on="1"/>
        <pt x="48" y="393" on="1"/>
        <pt x="182" y="393" on="1"/>
        <pt x="182" y="585" on="1"/>
        <pt x="13" y="585" on="1"/>
        <pt x="28" y="708" on="1"/>
        <pt x="505" y="708" on="1"/>
        <pt x="490" y="585" on="1"/>
      </contour>
    </TTGlyph>
    <TTGlyph name="Tcaron" xMin="9" yMin="0" xMax="502" yMax="925">
      <contour>
        <pt x="342" y="585" on="1"/>
        <pt x="342" y="0" on="1"/>
        <pt x="178" y="0" on="1"/>
        <pt x="178" y="585" on="1"/>
        <pt x="9" y="585" on="1"/>
        <pt x="25" y="708" on="1"/>
        <pt x="502" y="708" on="1"/>
        <pt x="486" y="585" on="1"/>
      </contour>
      <contour>
        <pt x="221" y="743" on="1"/>
        <pt x="89" y="868" on="1"/>
        <pt x="144" y="925" on="1"/>
        <pt x="255" y="844" on="1"/>
        <pt x="366" y="925" on="1"/>
        <pt x="421" y="868" on="1"/>
        <pt x="289" y="743" on="1"/>
      </contour>
    </TTGlyph>
    <TTGlyph name="Tcedilla" xMin="9" yMin="-196" xMax="502" yMax="708">
      <contour>
        <pt x="342" y="585" on="1"/>
        <pt x="342" y="0" on="1"/>
        <pt x="283" y="0" on="1"/>
        <pt x="278" y="-40" on="1"/>
        <pt x="283" y="-42" on="0"/>
        <pt x="307" y="-48" on="0"/>
        <pt x="313" y="-50" on="1"/>
        <pt x="352" y="-66" on="0"/>
        <pt x="352" y="-152" on="0"/>
        <pt x="298" y="-196" on="0"/>
        <pt x="206" y="-196" on="0"/>
        <pt x="160" y="-174" on="1"/>
        <pt x="181" y="-121" on="1"/>
        <pt x="222" y="-132" on="0"/>
        <pt x="267" y="-132" on="0"/>
        <pt x="267" y="-112" on="1"/>
        <pt x="267" y="-96" on="0"/>
        <pt x="200" y="-81" on="0"/>
        <pt x="194" y="-80" on="1"/>
        <pt x="215" y="0" on="1"/>
        <pt x="178" y="0" on="1"/>
        <pt x="178" y="585" on="1"/>
        <pt x="9" y="585" on="1"/>
        <pt x="25" y="708" on="1"/>
        <pt x="502" y="708" on="1"/>
        <pt x="486" y="585" on="1"/>
      </contour>
    </TTGlyph>
    <TTGlyph name="Tcommaaccent" xMin="9" yMin="-244" xMax="502" yMax="708">
      <contour>
        <pt x="342" y="585" on="1"/>
        <pt x="342" y="0" on="1"/>
        <pt x="178" y="0" on="1"/>
        <pt x="178" y="585" on="1"/>
        <pt x="9" y="585" on="1"/>
        <pt x="25" y="708" on="1"/>
        <pt x="502" y="708" on="1"/>
        <pt x="486" y="585" on="1"/>
      </contour>
      <contour>
        <pt x="193" y="-164" on="0"/>
        <pt x="212" y="-134" on="0"/>
        <pt x="212" y="-110" on="0"/>
        <pt x="202" y="-40" on="1"/>
        <pt x="312" y="-29" on="1"/>
        <pt x="320" y="-98" on="0"/>
        <pt x="320" y="-145" on="0"/>
        <pt x="277" y="-199" on="0"/>
        <pt x="212" y="-244" on="1"/>
        <pt x="162" y="-195" on="1"/>
      </contour>
    </TTGlyph>
    <TTGlyph name="Thorn" xMin="60" yMin="0" xMax="550" yMax="708">
      <contour>
        <pt x="224" y="708" on="1"/>
        <pt x="224" y="589" on="1"/>
        <pt x="317" y="589" on="1"/>
        <pt x="447" y="589" on="0"/>
        <pt x="550" y="473" on="0"/>
        <pt x="550" y="376" on="1"/>
        <pt x="550" y="284" on="0"/>
        <pt x="496" y="213" on="1"/>
        <pt x="467" y="175" on="0"/>
        <pt x="349" y="130" on="0"/>
        <pt x="267" y="130" on="1"/>
        <pt x="224" y="130" on="1"/>
        <pt x="224" y="0" on="1"/>
        <pt x="60" y="0" on="1"/>
        <pt x="60" y="708" on="1"/>
      </contour>
      <contour>
        <pt x="224" y="476" on="1"/>
        <pt x="224" y="247" on="1"/>
        <pt x="279" y="247" on="1"/>
        <pt x="330" y="247" on="0"/>
        <pt x="375" y="302" on="0"/>
        <pt x="375" y="418" on="0"/>
        <pt x="337" y="476" on="0"/>
        <pt x="279" y="476" on="1"/>
      </contour>
    </TTGlyph>
    <TTGlyph name="U" xMin="60" yMin="-12" xMax="569" yMax="708">
      <contour>
        <pt x="558" y="708" on="1"/>
        <pt x="558" y="167" on="1"/>
        <pt x="569" y="9" on="1"/>
        <pt x="450" y="-7" on="1"/>
        <pt x="430" y="51" on="1"/>
        <pt x="425" y="50" on="1"/>
        <pt x="361" y="-12" on="0"/>
        <pt x="174" y="-12" on="0"/>
        <pt x="60" y="86" on="0"/>
        <pt x="60" y="185" on="1"/>
        <pt x="60" y="708" on="1"/>
        <pt x="224" y="708" on="1"/>
        <pt x="224" y="203" on="1"/>
        <pt x="224" y="112" on="0"/>
        <pt x="312" y="112" on="1"/>
        <pt x="367" y="112" on="0"/>
        <pt x="394" y="153" on="1"/>
        <pt x="394" y="708" on="1"/>
      </contour>
    </TTGlyph>
    <TTGlyph name="Uacute" xMin="60" yMin="-12" xMax="569" yMax="932">
      <contour>
        <pt x="438" y="932" on="1"/>
        <pt x="488" y="826" on="1"/>
        <pt x="257" y="740" on="1"/>
        <pt x="213" y="821" on="1"/>
      </contour>
      <contour>
        <pt x="558" y="708" on="1"/>
        <pt x="558" y="167" on="1"/>
        <pt x="569" y="9" on="1"/>
        <pt x="450" y="-7" on="1"/>
        <pt x="430" y="51" on="1"/>
        <pt x="425" y="50" on="1"/>
        <pt x="361" y="-12" on="0"/>
        <pt x="174" y="-12" on="0"/>
        <pt x="60" y="86" on="0"/>
        <pt x="60" y="185" on="1"/>
        <pt x="60" y="708" on="1"/>
        <pt x="224" y="708" on="1"/>
        <pt x="224" y="203" on="1"/>
        <pt x="224" y="112" on="0"/>
        <pt x="312" y="112" on="1"/>
        <pt x="367" y="112" on="0"/>
        <pt x="394" y="153" on="1"/>
        <pt x="394" y="708" on="1"/>
      </contour>
    </TTGlyph>
    <TTGlyph name="Ubreve" xMin="60" yMin="-12" xMax="569" yMax="905">
      <contour>
        <pt x="558" y="708" on="1"/>
        <pt x="558" y="167" on="1"/>
        <pt x="569" y="9" on="1"/>
        <pt x="450" y="-7" on="1"/>
        <pt x="430" y="51" on="1"/>
        <pt x="425" y="50" on="1"/>
        <pt x="361" y="-12" on="0"/>
        <pt x="174" y="-12" on="0"/>
        <pt x="60" y="86" on="0"/>
        <pt x="60" y="185" on="1"/>
        <pt x="60" y="708" on="1"/>
        <pt x="224" y="708" on="1"/>
        <pt x="224" y="203" on="1"/>
        <pt x="224" y="112" on="0"/>
        <pt x="312" y="112" on="1"/>
        <pt x="367" y="112" on="0"/>
        <pt x="394" y="153" on="1"/>
        <pt x="394" y="708" on="1"/>
      </contour>
      <contour>
        <pt x="409" y="768" on="0"/>
        <pt x="215" y="768" on="0"/>
        <pt x="152" y="852" on="1"/>
        <pt x="203" y="905" on="1"/>
        <pt x="259" y="861" on="0"/>
        <pt x="362" y="861" on="0"/>
        <pt x="421" y="905" on="1"/>
        <pt x="472" y="852" on="1"/>
      </contour>
    </TTGlyph>
    <TTGlyph name="Ucaron" xMin="60" yMin="-12" xMax="569" yMax="925">
      <contour>
        <pt x="558" y="708" on="1"/>
        <pt x="558" y="167" on="1"/>
        <pt x="569" y="9" on="1"/>
        <pt x="450" y="-7" on="1"/>
        <pt x="430" y="51" on="1"/>
        <pt x="425" y="50" on="1"/>
        <pt x="361" y="-12" on="0"/>
        <pt x="174" y="-12" on="0"/>
        <pt x="60" y="86" on="0"/>
        <pt x="60" y="185" on="1"/>
        <pt x="60" y="708" on="1"/>
        <pt x="224" y="708" on="1"/>
        <pt x="224" y="203" on="1"/>
        <pt x="224" y="112" on="0"/>
        <pt x="312" y="112" on="1"/>
        <pt x="367" y="112" on="0"/>
        <pt x="394" y="153" on="1"/>
        <pt x="394" y="708" on="1"/>
      </contour>
      <contour>
        <pt x="276" y="743" on="1"/>
        <pt x="144" y="868" on="1"/>
        <pt x="198" y="925" on="1"/>
        <pt x="310" y="844" on="1"/>
        <pt x="421" y="925" on="1"/>
        <pt x="476" y="868" on="1"/>
        <pt x="343" y="743" on="1"/>
      </contour>
    </TTGlyph>
    <TTGlyph name="Ucircumflex" xMin="60" yMin="-12" xMax="569" yMax="924">
      <contour>
        <pt x="343" y="924" on="1"/>
        <pt x="476" y="800" on="1"/>
        <pt x="421" y="743" on="1"/>
        <pt x="310" y="824" on="1"/>
        <pt x="198" y="743" on="1"/>
        <pt x="144" y="800" on="1"/>
        <pt x="276" y="924" on="1"/>
      </contour>
      <contour>
        <pt x="558" y="708" on="1"/>
        <pt x="558" y="167" on="1"/>
        <pt x="569" y="9" on="1"/>
        <pt x="450" y="-7" on="1"/>
        <pt x="430" y="51" on="1"/>
        <pt x="425" y="50" on="1"/>
        <pt x="361" y="-12" on="0"/>
        <pt x="174" y="-12" on="0"/>
        <pt x="60" y="86" on="0"/>
        <pt x="60" y="185" on="1"/>
        <pt x="60" y="708" on="1"/>
        <pt x="224" y="708" on="1"/>
        <pt x="224" y="203" on="1"/>
        <pt x="224" y="112" on="0"/>
        <pt x="312" y="112" on="1"/>
        <pt x="367" y="112" on="0"/>
        <pt x="394" y="153" on="1"/>
        <pt x="394" y="708" on="1"/>
      </contour>
    </TTGlyph>
    <TTGlyph name="Udieresis" xMin="60" yMin="-12" xMax="569" yMax="918">
      <contour>
        <pt x="209" y="918" on="1"/>
        <pt x="284" y="918" on="0"/>
        <pt x="284" y="835" on="1"/>
        <pt x="284" y="802" on="0"/>
        <pt x="244" y="760" on="0"/>
        <pt x="201" y="760" on="1"/>
        <pt x="126" y="760" on="0"/>
        <pt x="126" y="842" on="1"/>
        <pt x="126" y="875" on="0"/>
        <pt x="165" y="918" on="0"/>
      </contour>
      <contour>
        <pt x="418" y="918" on="1"/>
        <pt x="493" y="918" on="0"/>
        <pt x="493" y="835" on="1"/>
        <pt x="493" y="760" on="0"/>
        <pt x="409" y="760" on="1"/>
        <pt x="334" y="760" on="0"/>
        <pt x="334" y="842" on="1"/>
        <pt x="334" y="875" on="0"/>
        <pt x="374" y="918" on="0"/>
      </contour>
      <contour>
        <pt x="558" y="708" on="1"/>
        <pt x="558" y="167" on="1"/>
        <pt x="569" y="9" on="1"/>
        <pt x="450" y="-7" on="1"/>
        <pt x="430" y="51" on="1"/>
        <pt x="425" y="50" on="1"/>
        <pt x="361" y="-12" on="0"/>
        <pt x="174" y="-12" on="0"/>
        <pt x="60" y="86" on="0"/>
        <pt x="60" y="185" on="1"/>
        <pt x="60" y="708" on="1"/>
        <pt x="224" y="708" on="1"/>
        <pt x="224" y="203" on="1"/>
        <pt x="224" y="112" on="0"/>
        <pt x="312" y="112" on="1"/>
        <pt x="367" y="112" on="0"/>
        <pt x="394" y="153" on="1"/>
        <pt x="394" y="708" on="1"/>
      </contour>
    </TTGlyph>
    <TTGlyph name="Ugrave" xMin="60" yMin="-12" xMax="569" yMax="932">
      <contour>
        <pt x="433" y="821" on="1"/>
        <pt x="389" y="740" on="1"/>
        <pt x="158" y="826" on="1"/>
        <pt x="208" y="932" on="1"/>
      </contour>
      <contour>
        <pt x="558" y="708" on="1"/>
        <pt x="558" y="167" on="1"/>
        <pt x="569" y="9" on="1"/>
        <pt x="450" y="-7" on="1"/>
        <pt x="430" y="51" on="1"/>
        <pt x="425" y="50" on="1"/>
        <pt x="361" y="-12" on="0"/>
        <pt x="174" y="-12" on="0"/>
        <pt x="60" y="86" on="0"/>
        <pt x="60" y="185" on="1"/>
        <pt x="60" y="708" on="1"/>
        <pt x="224" y="708" on="1"/>
        <pt x="224" y="203" on="1"/>
        <pt x="224" y="112" on="0"/>
        <pt x="312" y="112" on="1"/>
        <pt x="367" y="112" on="0"/>
        <pt x="394" y="153" on="1"/>
        <pt x="394" y="708" on="1"/>
      </contour>
    </TTGlyph>
    <TTGlyph name="Uhorn" xMin="60" yMin="-12" xMax="732" yMax="774">
      <contour>
        <pt x="558" y="708" on="1"/>
        <pt x="558" y="623" on="1"/>
        <pt x="593" y="639" on="0"/>
        <pt x="616" y="678" on="0"/>
        <pt x="616" y="740" on="0"/>
        <pt x="613" y="764" on="1"/>
        <pt x="732" y="774" on="1"/>
        <pt x="732" y="732" on="0"/>
        <pt x="727" y="696" on="1"/>
        <pt x="720" y="637" on="0"/>
        <pt x="652" y="572" on="0"/>
        <pt x="558" y="545" on="1"/>
        <pt x="558" y="167" on="1"/>
        <pt x="569" y="9" on="1"/>
        <pt x="450" y="-7" on="1"/>
        <pt x="430" y="51" on="1"/>
        <pt x="425" y="50" on="1"/>
        <pt x="361" y="-12" on="0"/>
        <pt x="174" y="-12" on="0"/>
        <pt x="60" y="86" on="0"/>
        <pt x="60" y="185" on="1"/>
        <pt x="60" y="708" on="1"/>
        <pt x="224" y="708" on="1"/>
        <pt x="224" y="203" on="1"/>
        <pt x="224" y="112" on="0"/>
        <pt x="312" y="112" on="1"/>
        <pt x="367" y="112" on="0"/>
        <pt x="394" y="153" on="1"/>
        <pt x="394" y="708" on="1"/>
      </contour>
    </TTGlyph>
    <TTGlyph name="Uhungarumlaut" xMin="60" yMin="-12" xMax="587" yMax="968">
      <contour>
        <pt x="558" y="708" on="1"/>
        <pt x="558" y="167" on="1"/>
        <pt x="569" y="9" on="1"/>
        <pt x="450" y="-7" on="1"/>
        <pt x="430" y="51" on="1"/>
        <pt x="425" y="50" on="1"/>
        <pt x="361" y="-12" on="0"/>
        <pt x="174" y="-12" on="0"/>
        <pt x="60" y="86" on="0"/>
        <pt x="60" y="185" on="1"/>
        <pt x="60" y="708" on="1"/>
        <pt x="224" y="708" on="1"/>
        <pt x="224" y="203" on="1"/>
        <pt x="224" y="112" on="0"/>
        <pt x="312" y="112" on="1"/>
        <pt x="367" y="112" on="0"/>
        <pt x="394" y="153" on="1"/>
        <pt x="394" y="708" on="1"/>
      </contour>
      <contour>
        <pt x="308" y="968" on="1"/>
        <pt x="388" y="885" on="1"/>
        <pt x="209" y="737" on="1"/>
        <pt x="142" y="798" on="1"/>
      </contour>
      <contour>
        <pt x="508" y="965" on="1"/>
        <pt x="587" y="878" on="1"/>
        <pt x="402" y="737" on="1"/>
        <pt x="338" y="801" on="1"/>
      </contour>
    </TTGlyph>
    <TTGlyph name="Umacron" xMin="60" yMin="-12" xMax="569" yMax="880">
      <contour>
        <pt x="558" y="708" on="1"/>
        <pt x="558" y="167" on="1"/>
        <pt x="569" y="9" on="1"/>
        <pt x="450" y="-7" on="1"/>
        <pt x="430" y="51" on="1"/>
        <pt x="425" y="50" on="1"/>
        <pt x="361" y="-12" on="0"/>
        <pt x="174" y="-12" on="0"/>
        <pt x="60" y="86" on="0"/>
        <pt x="60" y="185" on="1"/>
        <pt x="60" y="708" on="1"/>
        <pt x="224" y="708" on="1"/>
        <pt x="224" y="203" on="1"/>
        <pt x="224" y="112" on="0"/>
        <pt x="312" y="112" on="1"/>
        <pt x="367" y="112" on="0"/>
        <pt x="394" y="153" on="1"/>
        <pt x="394" y="708" on="1"/>
      </contour>
      <contour>
        <pt x="173" y="880" on="1"/>
        <pt x="449" y="880" on="1"/>
        <pt x="449" y="779" on="1"/>
        <pt x="173" y="779" on="1"/>
      </contour>
    </TTGlyph>
    <TTGlyph name="Uogonek" xMin="60" yMin="-196" xMax="569" yMax="708">
      <contour>
        <pt x="558" y="708" on="1"/>
        <pt x="558" y="167" on="1"/>
        <pt x="569" y="9" on="1"/>
        <pt x="522" y="-27" on="0"/>
        <pt x="512" y="-37" on="1"/>
        <pt x="471" y="-78" on="0"/>
        <pt x="471" y="-96" on="1"/>
        <pt x="471" y="-124" on="0"/>
        <pt x="498" y="-124" on="1"/>
        <pt x="514" y="-124" on="0"/>
        <pt x="536" y="-118" on="1"/>
        <pt x="551" y="-175" on="1"/>
        <pt x="503" y="-196" on="0"/>
        <pt x="437" y="-196" on="0"/>
        <pt x="384" y="-149" on="0"/>
        <pt x="384" y="-67" on="0"/>
        <pt x="416" y="-38" on="1"/>
        <pt x="436" y="-17" on="0"/>
        <pt x="450" y="-7" on="1"/>
        <pt x="430" y="51" on="1"/>
        <pt x="425" y="50" on="1"/>
        <pt x="361" y="-12" on="0"/>
        <pt x="174" y="-12" on="0"/>
        <pt x="60" y="86" on="0"/>
        <pt x="60" y="185" on="1"/>
        <pt x="60" y="708" on="1"/>
        <pt x="224" y="708" on="1"/>
        <pt x="224" y="203" on="1"/>
        <pt x="224" y="112" on="0"/>
        <pt x="312" y="112" on="1"/>
        <pt x="367" y="112" on="0"/>
        <pt x="394" y="153" on="1"/>
        <pt x="394" y="708" on="1"/>
      </contour>
    </TTGlyph>
    <TTGlyph name="Uring" xMin="60" yMin="-12" xMax="569" yMax="944">
      <contour>
        <pt x="558" y="708" on="1"/>
        <pt x="558" y="167" on="1"/>
        <pt x="569" y="9" on="1"/>
        <pt x="450" y="-7" on="1"/>
        <pt x="430" y="51" on="1"/>
        <pt x="425" y="50" on="1"/>
        <pt x="361" y="-12" on="0"/>
        <pt x="174" y="-12" on="0"/>
        <pt x="60" y="86" on="0"/>
        <pt x="60" y="185" on="1"/>
        <pt x="60" y="708" on="1"/>
        <pt x="224" y="708" on="1"/>
        <pt x="224" y="203" on="1"/>
        <pt x="224" y="112" on="0"/>
        <pt x="312" y="112" on="1"/>
        <pt x="367" y="112" on="0"/>
        <pt x="394" y="153" on="1"/>
        <pt x="394" y="708" on="1"/>
      </contour>
      <contour>
        <pt x="208" y="883" on="0"/>
        <pt x="261" y="944" on="0"/>
        <pt x="362" y="944" on="0"/>
        <pt x="411" y="888" on="0"/>
        <pt x="411" y="805" on="0"/>
        <pt x="356" y="741" on="0"/>
        <pt x="257" y="741" on="0"/>
        <pt x="208" y="799" on="0"/>
      </contour>
      <contour>
        <pt x="307" y="879" on="1"/>
        <pt x="292" y="879" on="0"/>
        <pt x="275" y="859" on="0"/>
        <pt x="275" y="844" on="1"/>
        <pt x="275" y="806" on="0"/>
        <pt x="311" y="806" on="1"/>
        <pt x="326" y="806" on="0"/>
        <pt x="343" y="826" on="0"/>
        <pt x="343" y="841" on="1"/>
        <pt x="343" y="879" on="0"/>
      </contour>
    </TTGlyph>
    <TTGlyph name="Utilde" xMin="60" yMin="-12" xMax="569" yMax="903">
      <contour>
        <pt x="558" y="708" on="1"/>
        <pt x="558" y="167" on="1"/>
        <pt x="569" y="9" on="1"/>
        <pt x="450" y="-7" on="1"/>
        <pt x="430" y="51" on="1"/>
        <pt x="425" y="50" on="1"/>
        <pt x="361" y="-12" on="0"/>
        <pt x="174" y="-12" on="0"/>
        <pt x="60" y="86" on="0"/>
        <pt x="60" y="185" on="1"/>
        <pt x="60" y="708" on="1"/>
        <pt x="224" y="708" on="1"/>
        <pt x="224" y="203" on="1"/>
        <pt x="224" y="112" on="0"/>
        <pt x="312" y="112" on="1"/>
        <pt x="367" y="112" on="0"/>
        <pt x="394" y="153" on="1"/>
        <pt x="394" y="708" on="1"/>
      </contour>
      <contour>
        <pt x="362" y="768" on="1"/>
        <pt x="336" y="768" on="0"/>
        <pt x="262" y="800" on="0"/>
        <pt x="242" y="800" on="1"/>
        <pt x="206" y="800" on="0"/>
        <pt x="164" y="770" on="1"/>
        <pt x="132" y="843" on="1"/>
        <pt x="193" y="903" on="0"/>
        <pt x="259" y="903" on="1"/>
        <pt x="285" y="903" on="0"/>
        <pt x="357" y="871" on="0"/>
        <pt x="406" y="871" on="0"/>
        <pt x="458" y="902" on="1"/>
        <pt x="488" y="828" on="1"/>
        <pt x="420" y="768" on="0"/>
      </contour>
    </TTGlyph>
    <TTGlyph name="V" xMin="-1" yMin="0" xMax="565" yMax="713">
      <contour>
        <pt x="565" y="692" on="1"/>
        <pt x="369" y="0" on="1"/>
        <pt x="190" y="0" on="1"/>
        <pt x="-1" y="692" on="1"/>
        <pt x="158" y="713" on="1"/>
        <pt x="269" y="262" on="1"/>
        <pt x="284" y="144" on="1"/>
        <pt x="289" y="144" on="1"/>
        <pt x="304" y="261" on="1"/>
        <pt x="415" y="713" on="1"/>
      </contour>
    </TTGlyph>
    <TTGlyph name="W" xMin="9" yMin="0" xMax="802" yMax="713">
      <contour>
        <pt x="802" y="693" on="1"/>
        <pt x="672" y="0" on="1"/>
        <pt x="477" y="0" on="1"/>
        <pt x="405" y="408" on="1"/>
        <pt x="397" y="408" on="1"/>
        <pt x="399" y="344" on="1"/>
        <pt x="334" y="0" on="1"/>
        <pt x="150" y="0" on="1"/>
        <pt x="9" y="693" on="1"/>
        <pt x="171" y="712" on="1"/>
        <pt x="254" y="252" on="1"/>
        <pt x="253" y="168" on="1"/>
        <pt x="259" y="168" on="1"/>
        <pt x="335" y="653" on="1"/>
        <pt x="495" y="668" on="1"/>
        <pt x="571" y="236" on="1"/>
        <pt x="570" y="168" on="1"/>
        <pt x="576" y="168" on="1"/>
        <pt x="658" y="713" on="1"/>
      </contour>
    </TTGlyph>
    <TTGlyph name="Wacute" xMin="9" yMin="0" xMax="802" yMax="932">
      <contour>
        <pt x="534" y="932" on="1"/>
        <pt x="584" y="826" on="1"/>
        <pt x="353" y="740" on="1"/>
        <pt x="309" y="821" on="1"/>
      </contour>
      <contour>
        <pt x="802" y="693" on="1"/>
        <pt x="672" y="0" on="1"/>
        <pt x="477" y="0" on="1"/>
        <pt x="405" y="408" on="1"/>
        <pt x="397" y="408" on="1"/>
        <pt x="399" y="344" on="1"/>
        <pt x="334" y="0" on="1"/>
        <pt x="150" y="0" on="1"/>
        <pt x="9" y="693" on="1"/>
        <pt x="171" y="712" on="1"/>
        <pt x="254" y="252" on="1"/>
        <pt x="253" y="168" on="1"/>
        <pt x="259" y="168" on="1"/>
        <pt x="335" y="653" on="1"/>
        <pt x="495" y="668" on="1"/>
        <pt x="571" y="236" on="1"/>
        <pt x="570" y="168" on="1"/>
        <pt x="576" y="168" on="1"/>
        <pt x="658" y="713" on="1"/>
      </contour>
    </TTGlyph>
    <TTGlyph name="Wcircumflex" xMin="9" yMin="0" xMax="802" yMax="924">
      <contour>
        <pt x="442" y="924" on="1"/>
        <pt x="574" y="800" on="1"/>
        <pt x="519" y="743" on="1"/>
        <pt x="408" y="824" on="1"/>
        <pt x="297" y="743" on="1"/>
        <pt x="242" y="800" on="1"/>
        <pt x="374" y="924" on="1"/>
      </contour>
      <contour>
        <pt x="802" y="693" on="1"/>
        <pt x="672" y="0" on="1"/>
        <pt x="477" y="0" on="1"/>
        <pt x="405" y="408" on="1"/>
        <pt x="397" y="408" on="1"/>
        <pt x="399" y="344" on="1"/>
        <pt x="334" y="0" on="1"/>
        <pt x="150" y="0" on="1"/>
        <pt x="9" y="693" on="1"/>
        <pt x="171" y="712" on="1"/>
        <pt x="254" y="252" on="1"/>
        <pt x="253" y="168" on="1"/>
        <pt x="259" y="168" on="1"/>
        <pt x="335" y="653" on="1"/>
        <pt x="495" y="668" on="1"/>
        <pt x="571" y="236" on="1"/>
        <pt x="570" y="168" on="1"/>
        <pt x="576" y="168" on="1"/>
        <pt x="658" y="713" on="1"/>
      </contour>
    </TTGlyph>
    <TTGlyph name="Wdieresis" xMin="9" yMin="0" xMax="802" yMax="918">
      <contour>
        <pt x="300" y="760" on="1"/>
        <pt x="225" y="760" on="0"/>
        <pt x="225" y="842" on="1"/>
        <pt x="225" y="875" on="0"/>
        <pt x="265" y="918" on="0"/>
        <pt x="309" y="918" on="1"/>
        <pt x="383" y="918" on="0"/>
        <pt x="383" y="835" on="1"/>
        <pt x="383" y="802" on="0"/>
        <pt x="344" y="760" on="0"/>
      </contour>
      <contour>
        <pt x="509" y="760" on="1"/>
        <pt x="434" y="760" on="0"/>
        <pt x="434" y="842" on="1"/>
        <pt x="434" y="875" on="0"/>
        <pt x="473" y="918" on="0"/>
        <pt x="517" y="918" on="1"/>
        <pt x="592" y="918" on="0"/>
        <pt x="592" y="835" on="1"/>
        <pt x="592" y="802" on="0"/>
        <pt x="553" y="760" on="0"/>
      </contour>
      <contour>
        <pt x="802" y="693" on="1"/>
        <pt x="672" y="0" on="1"/>
        <pt x="477" y="0" on="1"/>
        <pt x="405" y="408" on="1"/>
        <pt x="397" y="408" on="1"/>
        <pt x="399" y="344" on="1"/>
        <pt x="334" y="0" on="1"/>
        <pt x="150" y="0" on="1"/>
        <pt x="9" y="693" on="1"/>
        <pt x="171" y="712" on="1"/>
        <pt x="254" y="252" on="1"/>
        <pt x="253" y="168" on="1"/>
        <pt x="259" y="168" on="1"/>
        <pt x="335" y="653" on="1"/>
        <pt x="495" y="668" on="1"/>
        <pt x="571" y="236" on="1"/>
        <pt x="570" y="168" on="1"/>
        <pt x="576" y="168" on="1"/>
        <pt x="658" y="713" on="1"/>
      </contour>
    </TTGlyph>
    <TTGlyph name="Wgrave" xMin="9" yMin="0" xMax="802" yMax="932">
      <contour>
        <pt x="230" y="826" on="1"/>
        <pt x="280" y="932" on="1"/>
        <pt x="505" y="821" on="1"/>
        <pt x="461" y="740" on="1"/>
      </contour>
      <contour>
        <pt x="802" y="693" on="1"/>
        <pt x="672" y="0" on="1"/>
        <pt x="477" y="0" on="1"/>
        <pt x="405" y="408" on="1"/>
        <pt x="397" y="408" on="1"/>
        <pt x="399" y="344" on="1"/>
        <pt x="334" y="0" on="1"/>
        <pt x="150" y="0" on="1"/>
        <pt x="9" y="693" on="1"/>
        <pt x="171" y="712" on="1"/>
        <pt x="254" y="252" on="1"/>
        <pt x="253" y="168" on="1"/>
        <pt x="259" y="168" on="1"/>
        <pt x="335" y="653" on="1"/>
        <pt x="495" y="668" on="1"/>
        <pt x="571" y="236" on="1"/>
        <pt x="570" y="168" on="1"/>
        <pt x="576" y="168" on="1"/>
        <pt x="658" y="713" on="1"/>
      </contour>
    </TTGlyph>
    <TTGlyph name="X" xMin="13" yMin="-6" xMax="577" yMax="713">
      <contour>
        <pt x="559" y="692" on="1"/>
        <pt x="376" y="366" on="1"/>
        <pt x="577" y="14" on="1"/>
        <pt x="411" y="-6" on="1"/>
        <pt x="288" y="240" on="1"/>
        <pt x="174" y="-6" on="1"/>
        <pt x="18" y="14" on="1"/>
        <pt x="199" y="353" on="1"/>
        <pt x="13" y="692" on="1"/>
        <pt x="181" y="713" on="1"/>
        <pt x="290" y="485" on="1"/>
        <pt x="403" y="713" on="1"/>
      </contour>
    </TTGlyph>
    <TTGlyph name="Y" xMin="-8" yMin="0" xMax="538" yMax="713">
      <contour>
        <pt x="350" y="0" on="1"/>
        <pt x="187" y="0" on="1"/>
        <pt x="187" y="245" on="1"/>
        <pt x="180" y="261" on="0"/>
        <pt x="-8" y="693" on="1"/>
        <pt x="148" y="713" on="1"/>
        <pt x="266" y="395" on="1"/>
        <pt x="272" y="395" on="1"/>
        <pt x="395" y="713" on="1"/>
        <pt x="538" y="692" on="1"/>
        <pt x="350" y="245" on="1"/>
      </contour>
    </TTGlyph>
    <TTGlyph name="Yacute" xMin="-8" yMin="0" xMax="538" yMax="932">
      <contour>
        <pt x="400" y="932" on="1"/>
        <pt x="450" y="826" on="1"/>
        <pt x="219" y="740" on="1"/>
        <pt x="175" y="821" on="1"/>
      </contour>
      <contour>
        <pt x="350" y="0" on="1"/>
        <pt x="187" y="0" on="1"/>
        <pt x="187" y="245" on="1"/>
        <pt x="180" y="261" on="0"/>
        <pt x="-8" y="693" on="1"/>
        <pt x="148" y="713" on="1"/>
        <pt x="266" y="395" on="1"/>
        <pt x="272" y="395" on="1"/>
        <pt x="395" y="713" on="1"/>
        <pt x="538" y="692" on="1"/>
        <pt x="350" y="245" on="1"/>
      </contour>
    </TTGlyph>
    <TTGlyph name="Ycircumflex" xMin="-8" yMin="0" xMax="538" yMax="924">
      <contour>
        <pt x="350" y="0" on="1"/>
        <pt x="187" y="0" on="1"/>
        <pt x="187" y="245" on="1"/>
        <pt x="180" y="261" on="0"/>
        <pt x="-8" y="693" on="1"/>
        <pt x="148" y="713" on="1"/>
        <pt x="266" y="395" on="1"/>
        <pt x="272" y="395" on="1"/>
        <pt x="395" y="713" on="1"/>
        <pt x="538" y="692" on="1"/>
        <pt x="350" y="245" on="1"/>
      </contour>
      <contour>
        <pt x="300" y="924" on="1"/>
        <pt x="432" y="800" on="1"/>
        <pt x="377" y="743" on="1"/>
        <pt x="266" y="824" on="1"/>
        <pt x="155" y="743" on="1"/>
        <pt x="100" y="800" on="1"/>
        <pt x="232" y="924" on="1"/>
      </contour>
    </TTGlyph>
    <TTGlyph name="Ydieresis" xMin="-8" yMin="0" xMax="538" yMax="918">
      <contour>
        <pt x="166" y="918" on="1"/>
        <pt x="240" y="918" on="0"/>
        <pt x="240" y="835" on="1"/>
        <pt x="240" y="802" on="0"/>
        <pt x="201" y="760" on="0"/>
        <pt x="157" y="760" on="1"/>
        <pt x="82" y="760" on="0"/>
        <pt x="82" y="842" on="1"/>
        <pt x="82" y="875" on="0"/>
        <pt x="122" y="918" on="0"/>
      </contour>
      <contour>
        <pt x="374" y="918" on="1"/>
        <pt x="449" y="918" on="0"/>
        <pt x="449" y="835" on="1"/>
        <pt x="449" y="802" on="0"/>
        <pt x="410" y="760" on="0"/>
        <pt x="366" y="760" on="1"/>
        <pt x="291" y="760" on="0"/>
        <pt x="291" y="842" on="1"/>
        <pt x="291" y="875" on="0"/>
        <pt x="330" y="918" on="0"/>
      </contour>
      <contour>
        <pt x="350" y="0" on="1"/>
        <pt x="187" y="0" on="1"/>
        <pt x="187" y="245" on="1"/>
        <pt x="180" y="261" on="0"/>
        <pt x="-8" y="693" on="1"/>
        <pt x="148" y="713" on="1"/>
        <pt x="266" y="395" on="1"/>
        <pt x="272" y="395" on="1"/>
        <pt x="395" y="713" on="1"/>
        <pt x="538" y="692" on="1"/>
        <pt x="350" y="245" on="1"/>
      </contour>
    </TTGlyph>
    <TTGlyph name="Ygrave" xMin="-8" yMin="0" xMax="538" yMax="932">
      <contour>
        <pt x="350" y="0" on="1"/>
        <pt x="187" y="0" on="1"/>
        <pt x="187" y="245" on="1"/>
        <pt x="180" y="261" on="0"/>
        <pt x="-8" y="693" on="1"/>
        <pt x="148" y="713" on="1"/>
        <pt x="266" y="395" on="1"/>
        <pt x="272" y="395" on="1"/>
        <pt x="395" y="713" on="1"/>
        <pt x="538" y="692" on="1"/>
        <pt x="350" y="245" on="1"/>
      </contour>
      <contour>
        <pt x="89" y="826" on="1"/>
        <pt x="140" y="932" on="1"/>
        <pt x="365" y="821" on="1"/>
        <pt x="321" y="740" on="1"/>
      </contour>
    </TTGlyph>
    <TTGlyph name="Ytilde" xMin="-8" yMin="0" xMax="538" yMax="903">
      <contour>
        <pt x="350" y="0" on="1"/>
        <pt x="187" y="0" on="1"/>
        <pt x="187" y="245" on="1"/>
        <pt x="180" y="261" on="0"/>
        <pt x="-8" y="693" on="1"/>
        <pt x="148" y="713" on="1"/>
        <pt x="266" y="395" on="1"/>
        <pt x="272" y="395" on="1"/>
        <pt x="395" y="713" on="1"/>
        <pt x="538" y="692" on="1"/>
        <pt x="350" y="245" on="1"/>
      </contour>
      <contour>
        <pt x="311" y="768" on="1"/>
        <pt x="285" y="768" on="0"/>
        <pt x="210" y="800" on="0"/>
        <pt x="191" y="800" on="1"/>
        <pt x="154" y="800" on="0"/>
        <pt x="113" y="770" on="1"/>
        <pt x="81" y="843" on="1"/>
        <pt x="142" y="903" on="0"/>
        <pt x="208" y="903" on="1"/>
        <pt x="234" y="903" on="0"/>
        <pt x="306" y="871" on="0"/>
        <pt x="355" y="871" on="0"/>
        <pt x="407" y="902" on="1"/>
        <pt x="437" y="828" on="1"/>
        <pt x="368" y="768" on="0"/>
      </contour>
    </TTGlyph>
    <TTGlyph name="Z" xMin="22" yMin="0" xMax="493" yMax="707">
      <contour>
        <pt x="483" y="707" on="1"/>
        <pt x="483" y="595" on="1"/>
        <pt x="205" y="122" on="1"/>
        <pt x="493" y="122" on="1"/>
        <pt x="481" y="0" on="1"/>
        <pt x="23" y="0" on="1"/>
        <pt x="23" y="113" on="1"/>
        <pt x="296" y="585" on="1"/>
        <pt x="22" y="585" on="1"/>
        <pt x="35" y="707" on="1"/>
      </contour>
    </TTGlyph>
    <TTGlyph name="Zacute" xMin="22" yMin="0" xMax="493" yMax="932">
      <contour>
        <pt x="483" y="707" on="1"/>
        <pt x="483" y="595" on="1"/>
        <pt x="205" y="122" on="1"/>
        <pt x="493" y="122" on="1"/>
        <pt x="481" y="0" on="1"/>
        <pt x="23" y="0" on="1"/>
        <pt x="23" y="113" on="1"/>
        <pt x="296" y="585" on="1"/>
        <pt x="22" y="585" on="1"/>
        <pt x="35" y="707" on="1"/>
      </contour>
      <contour>
        <pt x="371" y="932" on="1"/>
        <pt x="422" y="826" on="1"/>
        <pt x="190" y="740" on="1"/>
        <pt x="146" y="821" on="1"/>
      </contour>
    </TTGlyph>
    <TTGlyph name="Zcaron" xMin="22" yMin="0" xMax="493" yMax="925">
      <contour>
        <pt x="483" y="708" on="1"/>
        <pt x="483" y="595" on="1"/>
        <pt x="205" y="122" on="1"/>
        <pt x="493" y="122" on="1"/>
        <pt x="481" y="0" on="1"/>
        <pt x="23" y="0" on="1"/>
        <pt x="23" y="113" on="1"/>
        <pt x="296" y="585" on="1"/>
        <pt x="22" y="585" on="1"/>
        <pt x="35" y="708" on="1"/>
      </contour>
      <contour>
        <pt x="424" y="868" on="1"/>
        <pt x="291" y="743" on="1"/>
        <pt x="224" y="743" on="1"/>
        <pt x="92" y="868" on="1"/>
        <pt x="147" y="925" on="1"/>
        <pt x="258" y="844" on="1"/>
        <pt x="369" y="925" on="1"/>
      </contour>
    </TTGlyph>
    <TTGlyph name="Zdotaccent" xMin="22" yMin="0" xMax="493" yMax="924">
      <contour>
        <pt x="483" y="707" on="1"/>
        <pt x="483" y="595" on="1"/>
        <pt x="205" y="122" on="1"/>
        <pt x="493" y="122" on="1"/>
        <pt x="481" y="0" on="1"/>
        <pt x="23" y="0" on="1"/>
        <pt x="23" y="113" on="1"/>
        <pt x="296" y="585" on="1"/>
        <pt x="22" y="585" on="1"/>
        <pt x="35" y="707" on="1"/>
      </contour>
      <contour>
        <pt x="252" y="755" on="1"/>
        <pt x="172" y="755" on="0"/>
        <pt x="172" y="845" on="1"/>
        <pt x="172" y="879" on="0"/>
        <pt x="215" y="924" on="0"/>
        <pt x="263" y="924" on="1"/>
        <pt x="342" y="924" on="0"/>
        <pt x="342" y="834" on="1"/>
        <pt x="342" y="755" on="0"/>
      </contour>
    </TTGlyph>
    <TTGlyph name="a" xMin="15" yMin="-12" xMax="473" yMax="545">
      <contour>
        <pt x="279" y="364" on="1"/>
        <pt x="279" y="397" on="0"/>
        <pt x="251" y="428" on="0"/>
        <pt x="171" y="428" on="0"/>
        <pt x="79" y="399" on="1"/>
        <pt x="36" y="493" on="1"/>
        <pt x="70" y="512" on="0"/>
        <pt x="191" y="545" on="0"/>
        <pt x="308" y="545" on="0"/>
        <pt x="387" y="517" on="0"/>
        <pt x="422" y="462" on="0"/>
        <pt x="433" y="408" on="0"/>
        <pt x="433" y="367" on="1"/>
        <pt x="433" y="179" on="1"/>
        <pt x="433" y="142" on="0"/>
        <pt x="448" y="96" on="0"/>
        <pt x="473" y="69" on="1"/>
        <pt x="386" y="-12" on="1"/>
        <pt x="363" y="-1" on="0"/>
        <pt x="320" y="43" on="0"/>
        <pt x="310" y="62" on="1"/>
        <pt x="306" y="62" on="1"/>
        <pt x="248" y="-12" on="0"/>
        <pt x="159" y="-12" on="1"/>
        <pt x="15" y="-12" on="0"/>
        <pt x="15" y="137" on="1"/>
        <pt x="15" y="216" on="0"/>
        <pt x="106" y="294" on="0"/>
        <pt x="192" y="309" on="1"/>
        <pt x="279" y="324" on="1"/>
      </contour>
      <contour>
        <pt x="160" y="153" on="1"/>
        <pt x="160" y="104" on="0"/>
        <pt x="212" y="104" on="1"/>
        <pt x="252" y="104" on="0"/>
        <pt x="280" y="132" on="1"/>
        <pt x="280" y="226" on="1"/>
        <pt x="216" y="217" on="0"/>
        <pt x="160" y="186" on="0"/>
      </contour>
    </TTGlyph>
    <TTGlyph name="aacute" xMin="19" yMin="-12" xMax="477" yMax="768">
      <contour>
        <pt x="406" y="665" on="1"/>
        <pt x="182" y="568" on="1"/>
        <pt x="135" y="646" on="1"/>
        <pt x="351" y="768" on="1"/>
      </contour>
      <contour>
        <pt x="74" y="512" on="0"/>
        <pt x="195" y="545" on="0"/>
        <pt x="312" y="545" on="0"/>
        <pt x="391" y="517" on="0"/>
        <pt x="426" y="462" on="0"/>
        <pt x="437" y="408" on="0"/>
        <pt x="437" y="367" on="1"/>
        <pt x="437" y="179" on="1"/>
        <pt x="437" y="142" on="0"/>
        <pt x="452" y="96" on="0"/>
        <pt x="477" y="69" on="1"/>
        <pt x="390" y="-12" on="1"/>
        <pt x="367" y="-1" on="0"/>
        <pt x="324" y="43" on="0"/>
        <pt x="314" y="62" on="1"/>
        <pt x="310" y="62" on="1"/>
        <pt x="252" y="-12" on="0"/>
        <pt x="163" y="-12" on="1"/>
        <pt x="19" y="-12" on="0"/>
        <pt x="19" y="137" on="1"/>
        <pt x="19" y="216" on="0"/>
        <pt x="110" y="294" on="0"/>
        <pt x="196" y="309" on="1"/>
        <pt x="283" y="324" on="1"/>
        <pt x="283" y="364" on="1"/>
        <pt x="283" y="397" on="0"/>
        <pt x="255" y="428" on="0"/>
        <pt x="175" y="428" on="0"/>
        <pt x="83" y="399" on="1"/>
        <pt x="40" y="493" on="1"/>
      </contour>
      <contour>
        <pt x="164" y="153" on="1"/>
        <pt x="164" y="104" on="0"/>
        <pt x="216" y="104" on="1"/>
        <pt x="256" y="104" on="0"/>
        <pt x="284" y="132" on="1"/>
        <pt x="284" y="226" on="1"/>
        <pt x="220" y="217" on="0"/>
        <pt x="164" y="186" on="0"/>
      </contour>
    </TTGlyph>
    <TTGlyph name="abreve" xMin="15" yMin="-12" xMax="473" yMax="725">
      <contour>
        <pt x="279" y="364" on="1"/>
        <pt x="279" y="397" on="0"/>
        <pt x="251" y="428" on="0"/>
        <pt x="171" y="428" on="0"/>
        <pt x="79" y="399" on="1"/>
        <pt x="36" y="493" on="1"/>
        <pt x="70" y="512" on="0"/>
        <pt x="191" y="545" on="0"/>
        <pt x="308" y="545" on="0"/>
        <pt x="387" y="517" on="0"/>
        <pt x="422" y="462" on="0"/>
        <pt x="433" y="408" on="0"/>
        <pt x="433" y="367" on="1"/>
        <pt x="433" y="179" on="1"/>
        <pt x="433" y="142" on="0"/>
        <pt x="448" y="96" on="0"/>
        <pt x="473" y="69" on="1"/>
        <pt x="386" y="-12" on="1"/>
        <pt x="365" y="-1" on="0"/>
        <pt x="323" y="43" on="0"/>
        <pt x="313" y="62" on="1"/>
        <pt x="310" y="62" on="1"/>
        <pt x="250" y="-12" on="0"/>
        <pt x="159" y="-12" on="1"/>
        <pt x="15" y="-12" on="0"/>
        <pt x="15" y="137" on="1"/>
        <pt x="15" y="216" on="0"/>
        <pt x="106" y="294" on="0"/>
        <pt x="192" y="309" on="1"/>
        <pt x="279" y="324" on="1"/>
      </contour>
      <contour>
        <pt x="160" y="150" on="1"/>
        <pt x="160" y="97" on="0"/>
        <pt x="212" y="97" on="1"/>
        <pt x="251" y="97" on="0"/>
        <pt x="280" y="124" on="1"/>
        <pt x="280" y="226" on="1"/>
        <pt x="216" y="216" on="0"/>
        <pt x="160" y="185" on="0"/>
      </contour>
      <contour>
        <pt x="400" y="672" on="1"/>
        <pt x="339" y="588" on="0"/>
        <pt x="145" y="588" on="0"/>
        <pt x="80" y="672" on="1"/>
        <pt x="131" y="725" on="1"/>
        <pt x="187" y="681" on="0"/>
        <pt x="289" y="681" on="0"/>
        <pt x="350" y="725" on="1"/>
      </contour>
    </TTGlyph>
    <TTGlyph name="acaron" xMin="15" yMin="-12" xMax="473" yMax="752">
      <contour>
        <pt x="279" y="364" on="1"/>
        <pt x="279" y="397" on="0"/>
        <pt x="251" y="428" on="0"/>
        <pt x="171" y="428" on="0"/>
        <pt x="79" y="399" on="1"/>
        <pt x="36" y="493" on="1"/>
        <pt x="70" y="512" on="0"/>
        <pt x="191" y="545" on="0"/>
        <pt x="308" y="545" on="0"/>
        <pt x="387" y="517" on="0"/>
        <pt x="422" y="462" on="0"/>
        <pt x="433" y="408" on="0"/>
        <pt x="433" y="367" on="1"/>
        <pt x="433" y="179" on="1"/>
        <pt x="433" y="142" on="0"/>
        <pt x="448" y="96" on="0"/>
        <pt x="473" y="69" on="1"/>
        <pt x="386" y="-12" on="1"/>
        <pt x="365" y="-1" on="0"/>
        <pt x="323" y="43" on="0"/>
        <pt x="313" y="62" on="1"/>
        <pt x="310" y="62" on="1"/>
        <pt x="250" y="-12" on="0"/>
        <pt x="159" y="-12" on="1"/>
        <pt x="15" y="-12" on="0"/>
        <pt x="15" y="137" on="1"/>
        <pt x="15" y="216" on="0"/>
        <pt x="106" y="294" on="0"/>
        <pt x="192" y="309" on="1"/>
        <pt x="279" y="324" on="1"/>
      </contour>
      <contour>
        <pt x="160" y="150" on="1"/>
        <pt x="160" y="97" on="0"/>
        <pt x="212" y="97" on="1"/>
        <pt x="251" y="97" on="0"/>
        <pt x="280" y="124" on="1"/>
        <pt x="280" y="226" on="1"/>
        <pt x="216" y="216" on="0"/>
        <pt x="160" y="185" on="0"/>
      </contour>
      <contour>
        <pt x="406" y="695" on="1"/>
        <pt x="274" y="573" on="1"/>
        <pt x="205" y="573" on="1"/>
        <pt x="74" y="695" on="1"/>
        <pt x="129" y="752" on="1"/>
        <pt x="240" y="668" on="1"/>
        <pt x="351" y="752" on="1"/>
      </contour>
    </TTGlyph>
    <TTGlyph name="acircumflex" xMin="19" yMin="-12" xMax="477" yMax="752">
      <contour>
        <pt x="263" y="752" on="1"/>
        <pt x="395" y="623" on="1"/>
        <pt x="340" y="566" on="1"/>
        <pt x="229" y="651" on="1"/>
        <pt x="118" y="566" on="1"/>
        <pt x="63" y="623" on="1"/>
        <pt x="194" y="752" on="1"/>
      </contour>
      <contour>
        <pt x="74" y="512" on="0"/>
        <pt x="195" y="545" on="0"/>
        <pt x="312" y="545" on="0"/>
        <pt x="391" y="517" on="0"/>
        <pt x="426" y="462" on="0"/>
        <pt x="437" y="408" on="0"/>
        <pt x="437" y="367" on="1"/>
        <pt x="437" y="179" on="1"/>
        <pt x="437" y="142" on="0"/>
        <pt x="452" y="96" on="0"/>
        <pt x="477" y="69" on="1"/>
        <pt x="390" y="-12" on="1"/>
        <pt x="367" y="-1" on="0"/>
        <pt x="324" y="43" on="0"/>
        <pt x="314" y="62" on="1"/>
        <pt x="310" y="62" on="1"/>
        <pt x="252" y="-12" on="0"/>
        <pt x="163" y="-12" on="1"/>
        <pt x="19" y="-12" on="0"/>
        <pt x="19" y="137" on="1"/>
        <pt x="19" y="216" on="0"/>
        <pt x="110" y="294" on="0"/>
        <pt x="196" y="309" on="1"/>
        <pt x="283" y="324" on="1"/>
        <pt x="283" y="364" on="1"/>
        <pt x="283" y="397" on="0"/>
        <pt x="255" y="428" on="0"/>
        <pt x="175" y="428" on="0"/>
        <pt x="83" y="399" on="1"/>
        <pt x="40" y="493" on="1"/>
      </contour>
      <contour>
        <pt x="164" y="153" on="1"/>
        <pt x="164" y="104" on="0"/>
        <pt x="216" y="104" on="1"/>
        <pt x="256" y="104" on="0"/>
        <pt x="284" y="132" on="1"/>
        <pt x="284" y="226" on="1"/>
        <pt x="220" y="217" on="0"/>
        <pt x="164" y="186" on="0"/>
      </contour>
    </TTGlyph>
    <TTGlyph name="acute" xMin="33" yMin="568" xMax="304" yMax="768">
      <contour>
        <pt x="248" y="768" on="1"/>
        <pt x="304" y="665" on="1"/>
        <pt x="80" y="568" on="1"/>
        <pt x="33" y="646" on="1"/>
      </contour>
    </TTGlyph>
    <TTGlyph name="acute.case" xMin="21" yMin="740" xMax="296" yMax="932">
      <contour>
        <pt x="246" y="932" on="1"/>
        <pt x="296" y="826" on="1"/>
        <pt x="65" y="740" on="1"/>
        <pt x="21" y="821" on="1"/>
      </contour>
    </TTGlyph>
    <TTGlyph name="adieresis" xMin="19" yMin="-12" xMax="477" yMax="736">
      <contour>
        <pt x="137" y="736" on="1"/>
        <pt x="212" y="736" on="0"/>
        <pt x="212" y="653" on="1"/>
        <pt x="212" y="621" on="0"/>
        <pt x="172" y="579" on="0"/>
        <pt x="129" y="579" on="1"/>
        <pt x="53" y="579" on="0"/>
        <pt x="53" y="661" on="1"/>
        <pt x="53" y="736" on="0"/>
      </contour>
      <contour>
        <pt x="345" y="736" on="1"/>
        <pt x="420" y="736" on="0"/>
        <pt x="420" y="653" on="1"/>
        <pt x="420" y="579" on="0"/>
        <pt x="337" y="579" on="1"/>
        <pt x="262" y="579" on="0"/>
        <pt x="262" y="661" on="1"/>
        <pt x="262" y="694" on="0"/>
        <pt x="302" y="736" on="0"/>
      </contour>
      <contour>
        <pt x="74" y="512" on="0"/>
        <pt x="195" y="545" on="0"/>
        <pt x="312" y="545" on="0"/>
        <pt x="391" y="517" on="0"/>
        <pt x="426" y="462" on="0"/>
        <pt x="437" y="408" on="0"/>
        <pt x="437" y="367" on="1"/>
        <pt x="437" y="179" on="1"/>
        <pt x="437" y="142" on="0"/>
        <pt x="452" y="96" on="0"/>
        <pt x="477" y="69" on="1"/>
        <pt x="390" y="-12" on="1"/>
        <pt x="367" y="-1" on="0"/>
        <pt x="324" y="43" on="0"/>
        <pt x="314" y="62" on="1"/>
        <pt x="310" y="62" on="1"/>
        <pt x="252" y="-12" on="0"/>
        <pt x="163" y="-12" on="1"/>
        <pt x="19" y="-12" on="0"/>
        <pt x="19" y="137" on="1"/>
        <pt x="19" y="216" on="0"/>
        <pt x="110" y="294" on="0"/>
        <pt x="196" y="309" on="1"/>
        <pt x="283" y="324" on="1"/>
        <pt x="283" y="364" on="1"/>
        <pt x="283" y="397" on="0"/>
        <pt x="255" y="428" on="0"/>
        <pt x="175" y="428" on="0"/>
        <pt x="83" y="399" on="1"/>
        <pt x="40" y="493" on="1"/>
      </contour>
      <contour>
        <pt x="164" y="153" on="1"/>
        <pt x="164" y="104" on="0"/>
        <pt x="216" y="104" on="1"/>
        <pt x="256" y="104" on="0"/>
        <pt x="284" y="132" on="1"/>
        <pt x="284" y="226" on="1"/>
        <pt x="220" y="217" on="0"/>
        <pt x="164" y="186" on="0"/>
      </contour>
    </TTGlyph>
    <TTGlyph name="ae" xMin="15" yMin="-12" xMax="712" yMax="545">
      <contour>
        <pt x="247" y="545" on="1"/>
        <pt x="337" y="545" on="0"/>
        <pt x="374" y="488" on="1"/>
        <pt x="429" y="545" on="0"/>
        <pt x="517" y="545" on="1"/>
        <pt x="614" y="545" on="0"/>
        <pt x="661" y="490" on="1"/>
        <pt x="700" y="445" on="0"/>
        <pt x="708" y="340" on="1"/>
        <pt x="712" y="298" on="0"/>
        <pt x="712" y="235" on="1"/>
        <pt x="641" y="225" on="1"/>
        <pt x="437" y="225" on="1"/>
        <pt x="437" y="166" on="0"/>
        <pt x="478" y="107" on="0"/>
        <pt x="593" y="107" on="0"/>
        <pt x="673" y="136" on="1"/>
        <pt x="704" y="42" on="1"/>
        <pt x="609" y="-12" on="0"/>
        <pt x="505" y="-12" on="1"/>
        <pt x="383" y="-12" on="0"/>
        <pt x="329" y="70" on="1"/>
        <pt x="260" y="-12" on="0"/>
        <pt x="157" y="-12" on="1"/>
        <pt x="15" y="-12" on="0"/>
        <pt x="15" y="137" on="1"/>
        <pt x="15" y="216" on="0"/>
        <pt x="106" y="294" on="0"/>
        <pt x="192" y="310" on="1"/>
        <pt x="279" y="325" on="1"/>
        <pt x="279" y="364" on="1"/>
        <pt x="279" y="397" on="0"/>
        <pt x="251" y="428" on="0"/>
        <pt x="171" y="428" on="0"/>
        <pt x="79" y="399" on="1"/>
        <pt x="36" y="493" on="1"/>
        <pt x="70" y="513" on="0"/>
        <pt x="190" y="545" on="0"/>
      </contour>
      <contour>
        <pt x="160" y="153" on="1"/>
        <pt x="160" y="102" on="0"/>
        <pt x="212" y="102" on="1"/>
        <pt x="256" y="102" on="0"/>
        <pt x="280" y="138" on="1"/>
        <pt x="280" y="227" on="1"/>
        <pt x="215" y="217" on="0"/>
        <pt x="160" y="187" on="0"/>
      </contour>
      <contour>
        <pt x="558" y="382" on="0"/>
        <pt x="539" y="426" on="0"/>
        <pt x="468" y="426" on="0"/>
        <pt x="439" y="375" on="0"/>
        <pt x="437" y="324" on="1"/>
        <pt x="558" y="324" on="1"/>
      </contour>
    </TTGlyph>
    <TTGlyph name="aeacute" xMin="15" yMin="-12" xMax="712" yMax="762">
      <contour>
        <pt x="661" y="490" on="1"/>
        <pt x="700" y="445" on="0"/>
        <pt x="708" y="340" on="1"/>
        <pt x="712" y="298" on="0"/>
        <pt x="712" y="235" on="1"/>
        <pt x="641" y="225" on="1"/>
        <pt x="437" y="225" on="1"/>
        <pt x="437" y="164" on="0"/>
        <pt x="478" y="107" on="0"/>
        <pt x="593" y="107" on="0"/>
        <pt x="673" y="136" on="1"/>
        <pt x="704" y="42" on="1"/>
        <pt x="609" y="-12" on="0"/>
        <pt x="505" y="-12" on="1"/>
        <pt x="383" y="-12" on="0"/>
        <pt x="329" y="70" on="1"/>
        <pt x="262" y="-12" on="0"/>
        <pt x="157" y="-12" on="1"/>
        <pt x="15" y="-12" on="0"/>
        <pt x="15" y="137" on="1"/>
        <pt x="15" y="216" on="0"/>
        <pt x="106" y="294" on="0"/>
        <pt x="192" y="310" on="1"/>
        <pt x="279" y="325" on="1"/>
        <pt x="279" y="364" on="1"/>
        <pt x="279" y="397" on="0"/>
        <pt x="251" y="428" on="0"/>
        <pt x="171" y="428" on="0"/>
        <pt x="79" y="399" on="1"/>
        <pt x="36" y="493" on="1"/>
        <pt x="70" y="513" on="0"/>
        <pt x="190" y="545" on="0"/>
        <pt x="247" y="545" on="1"/>
        <pt x="337" y="545" on="0"/>
        <pt x="374" y="488" on="1"/>
        <pt x="429" y="545" on="0"/>
        <pt x="614" y="545" on="0"/>
      </contour>
      <contour>
        <pt x="558" y="382" on="0"/>
        <pt x="539" y="426" on="0"/>
        <pt x="468" y="426" on="0"/>
        <pt x="439" y="375" on="0"/>
        <pt x="437" y="324" on="1"/>
        <pt x="558" y="324" on="1"/>
      </contour>
      <contour>
        <pt x="483" y="762" on="1"/>
        <pt x="539" y="658" on="1"/>
        <pt x="315" y="561" on="1"/>
        <pt x="267" y="640" on="1"/>
      </contour>
      <contour>
        <pt x="212" y="104" on="1"/>
        <pt x="258" y="104" on="0"/>
        <pt x="280" y="138" on="1"/>
        <pt x="280" y="227" on="1"/>
        <pt x="215" y="217" on="0"/>
        <pt x="160" y="187" on="0"/>
        <pt x="160" y="153" on="1"/>
        <pt x="160" y="104" on="0"/>
      </contour>
    </TTGlyph>
    <TTGlyph name="agrave" xMin="19" yMin="-12" xMax="477" yMax="768">
      <contour>
        <pt x="317" y="646" on="1"/>
        <pt x="270" y="568" on="1"/>
        <pt x="46" y="665" on="1"/>
        <pt x="101" y="768" on="1"/>
      </contour>
      <contour>
        <pt x="74" y="512" on="0"/>
        <pt x="195" y="545" on="0"/>
        <pt x="312" y="545" on="0"/>
        <pt x="391" y="517" on="0"/>
        <pt x="426" y="462" on="0"/>
        <pt x="437" y="408" on="0"/>
        <pt x="437" y="367" on="1"/>
        <pt x="437" y="179" on="1"/>
        <pt x="437" y="142" on="0"/>
        <pt x="452" y="96" on="0"/>
        <pt x="477" y="69" on="1"/>
        <pt x="390" y="-12" on="1"/>
        <pt x="367" y="-1" on="0"/>
        <pt x="324" y="43" on="0"/>
        <pt x="314" y="62" on="1"/>
        <pt x="310" y="62" on="1"/>
        <pt x="252" y="-12" on="0"/>
        <pt x="163" y="-12" on="1"/>
        <pt x="19" y="-12" on="0"/>
        <pt x="19" y="137" on="1"/>
        <pt x="19" y="216" on="0"/>
        <pt x="110" y="294" on="0"/>
        <pt x="196" y="309" on="1"/>
        <pt x="283" y="324" on="1"/>
        <pt x="283" y="364" on="1"/>
        <pt x="283" y="397" on="0"/>
        <pt x="255" y="428" on="0"/>
        <pt x="175" y="428" on="0"/>
        <pt x="83" y="399" on="1"/>
        <pt x="40" y="493" on="1"/>
      </contour>
      <contour>
        <pt x="164" y="153" on="1"/>
        <pt x="164" y="104" on="0"/>
        <pt x="216" y="104" on="1"/>
        <pt x="256" y="104" on="0"/>
        <pt x="284" y="132" on="1"/>
        <pt x="284" y="226" on="1"/>
        <pt x="220" y="217" on="0"/>
        <pt x="164" y="186" on="0"/>
      </contour>
    </TTGlyph>
    <TTGlyph name="amacron" xMin="15" yMin="-12" xMax="473" yMax="708">
      <contour>
        <pt x="102" y="708" on="1"/>
        <pt x="378" y="708" on="1"/>
        <pt x="378" y="608" on="1"/>
        <pt x="102" y="608" on="1"/>
      </contour>
      <contour>
        <pt x="279" y="364" on="1"/>
        <pt x="279" y="397" on="0"/>
        <pt x="251" y="428" on="0"/>
        <pt x="171" y="428" on="0"/>
        <pt x="79" y="399" on="1"/>
        <pt x="36" y="493" on="1"/>
        <pt x="70" y="512" on="0"/>
        <pt x="191" y="545" on="0"/>
        <pt x="308" y="545" on="0"/>
        <pt x="387" y="517" on="0"/>
        <pt x="422" y="462" on="0"/>
        <pt x="433" y="408" on="0"/>
        <pt x="433" y="367" on="1"/>
        <pt x="433" y="179" on="1"/>
        <pt x="433" y="142" on="0"/>
        <pt x="448" y="96" on="0"/>
        <pt x="473" y="69" on="1"/>
        <pt x="386" y="-12" on="1"/>
        <pt x="363" y="-1" on="0"/>
        <pt x="320" y="43" on="0"/>
        <pt x="310" y="62" on="1"/>
        <pt x="306" y="62" on="1"/>
        <pt x="248" y="-12" on="0"/>
        <pt x="159" y="-12" on="1"/>
        <pt x="15" y="-12" on="0"/>
        <pt x="15" y="137" on="1"/>
        <pt x="15" y="216" on="0"/>
        <pt x="106" y="294" on="0"/>
        <pt x="192" y="309" on="1"/>
        <pt x="279" y="324" on="1"/>
      </contour>
      <contour>
        <pt x="160" y="153" on="1"/>
        <pt x="160" y="104" on="0"/>
        <pt x="212" y="104" on="1"/>
        <pt x="250" y="104" on="0"/>
        <pt x="280" y="130" on="1"/>
        <pt x="280" y="226" on="1"/>
        <pt x="216" y="217" on="0"/>
        <pt x="160" y="186" on="0"/>
      </contour>
    </TTGlyph>
    <TTGlyph name="ampersand" xMin="21" yMin="-12" xMax="610" yMax="672">
      <contour>
        <pt x="260" y="566" on="1"/>
        <pt x="230" y="566" on="0"/>
        <pt x="194" y="534" on="0"/>
        <pt x="194" y="467" on="0"/>
        <pt x="252" y="418" on="0"/>
        <pt x="322" y="394" on="1"/>
        <pt x="308" y="292" on="1"/>
        <pt x="274" y="287" on="1"/>
        <pt x="234" y="280" on="0"/>
        <pt x="182" y="228" on="0"/>
        <pt x="182" y="147" on="0"/>
        <pt x="231" y="99" on="0"/>
        <pt x="267" y="99" on="1"/>
        <pt x="320" y="99" on="0"/>
        <pt x="349" y="137" on="1"/>
        <pt x="349" y="394" on="1"/>
        <pt x="443" y="394" on="1"/>
        <pt x="562" y="401" on="1"/>
        <pt x="549" y="308" on="1"/>
        <pt x="475" y="297" on="1"/>
        <pt x="475" y="149" on="1"/>
        <pt x="475" y="120" on="0"/>
        <pt x="506" y="94" on="0"/>
        <pt x="554" y="94" on="0"/>
        <pt x="582" y="104" on="1"/>
        <pt x="610" y="26" on="1"/>
        <pt x="549" y="-12" on="0"/>
        <pt x="490" y="-12" on="1"/>
        <pt x="413" y="-12" on="0"/>
        <pt x="388" y="45" on="1"/>
        <pt x="384" y="45" on="1"/>
        <pt x="329" y="-12" on="0"/>
        <pt x="141" y="-12" on="0"/>
        <pt x="21" y="79" on="0"/>
        <pt x="21" y="172" on="1"/>
        <pt x="21" y="236" on="0"/>
        <pt x="94" y="327" on="0"/>
        <pt x="150" y="347" on="1"/>
        <pt x="150" y="352" on="1"/>
        <pt x="102" y="373" on="0"/>
        <pt x="47" y="439" on="0"/>
        <pt x="47" y="497" on="1"/>
        <pt x="47" y="573" on="0"/>
        <pt x="164" y="672" on="0"/>
        <pt x="356" y="672" on="0"/>
        <pt x="455" y="596" on="0"/>
        <pt x="465" y="515" on="1"/>
        <pt x="335" y="493" on="1"/>
        <pt x="323" y="566" on="0"/>
      </contour>
    </TTGlyph>
    <TTGlyph name="aogonek" xMin="15" yMin="-196" xMax="473" yMax="545">
      <contour>
        <pt x="279" y="364" on="1"/>
        <pt x="279" y="397" on="0"/>
        <pt x="251" y="428" on="0"/>
        <pt x="171" y="428" on="0"/>
        <pt x="79" y="399" on="1"/>
        <pt x="36" y="493" on="1"/>
        <pt x="70" y="512" on="0"/>
        <pt x="191" y="545" on="0"/>
        <pt x="308" y="545" on="0"/>
        <pt x="387" y="517" on="0"/>
        <pt x="422" y="462" on="0"/>
        <pt x="433" y="408" on="0"/>
        <pt x="433" y="367" on="1"/>
        <pt x="433" y="179" on="1"/>
        <pt x="433" y="142" on="0"/>
        <pt x="448" y="96" on="0"/>
        <pt x="473" y="69" on="1"/>
        <pt x="447" y="44" on="0"/>
        <pt x="381" y="-17" on="0"/>
        <pt x="372" y="-26" on="1"/>
        <pt x="323" y="-77" on="0"/>
        <pt x="323" y="-109" on="0"/>
        <pt x="339" y="-124" on="0"/>
        <pt x="366" y="-124" on="0"/>
        <pt x="388" y="-118" on="1"/>
        <pt x="403" y="-175" on="1"/>
        <pt x="358" y="-196" on="0"/>
        <pt x="289" y="-196" on="0"/>
        <pt x="236" y="-149" on="0"/>
        <pt x="236" y="-66" on="0"/>
        <pt x="275" y="-31" on="1"/>
        <pt x="292" y="-14" on="0"/>
        <pt x="340" y="24" on="1"/>
        <pt x="321" y="45" on="0"/>
        <pt x="313" y="62" on="1"/>
        <pt x="310" y="62" on="1"/>
        <pt x="250" y="-12" on="0"/>
        <pt x="159" y="-12" on="1"/>
        <pt x="15" y="-12" on="0"/>
        <pt x="15" y="137" on="1"/>
        <pt x="15" y="216" on="0"/>
        <pt x="106" y="294" on="0"/>
        <pt x="192" y="309" on="1"/>
        <pt x="279" y="324" on="1"/>
      </contour>
      <contour>
        <pt x="160" y="153" on="1"/>
        <pt x="160" y="104" on="0"/>
        <pt x="212" y="104" on="1"/>
        <pt x="250" y="104" on="0"/>
        <pt x="280" y="130" on="1"/>
        <pt x="280" y="226" on="1"/>
        <pt x="216" y="217" on="0"/>
        <pt x="160" y="186" on="0"/>
      </contour>
    </TTGlyph>
    <TTGlyph name="approxequal" xMin="39" yMin="72" xMax="581" yMax="486">
      <contour>
        <pt x="427" y="291" on="1"/>
        <pt x="377" y="291" on="0"/>
        <pt x="224" y="366" on="0"/>
        <pt x="129" y="366" on="0"/>
        <pt x="74" y="309" on="1"/>
        <pt x="39" y="402" on="1"/>
        <pt x="58" y="431" on="0"/>
        <pt x="141" y="486" on="0"/>
        <pt x="228" y="486" on="0"/>
        <pt x="387" y="411" on="0"/>
        <pt x="452" y="411" on="0"/>
        <pt x="500" y="434" on="0"/>
        <pt x="519" y="450" on="0"/>
        <pt x="541" y="470" on="1"/>
        <pt x="576" y="371" on="1"/>
        <pt x="511" y="291" on="0"/>
      </contour>
      <contour>
        <pt x="558" y="123" on="0"/>
        <pt x="479" y="72" on="0"/>
        <pt x="377" y="72" on="0"/>
        <pt x="226" y="144" on="0"/>
        <pt x="185" y="144" on="1"/>
        <pt x="130" y="144" on="0"/>
        <pt x="78" y="88" on="1"/>
        <pt x="39" y="180" on="1"/>
        <pt x="59" y="211" on="0"/>
        <pt x="141" y="266" on="0"/>
        <pt x="228" y="266" on="0"/>
        <pt x="394" y="189" on="0"/>
        <pt x="434" y="189" on="1"/>
        <pt x="492" y="189" on="0"/>
        <pt x="551" y="245" on="1"/>
        <pt x="581" y="150" on="1"/>
      </contour>
    </TTGlyph>
    <TTGlyph name="aring" xMin="19" yMin="-12" xMax="477" yMax="769">
      <contour>
        <pt x="74" y="512" on="0"/>
        <pt x="195" y="545" on="0"/>
        <pt x="312" y="545" on="0"/>
        <pt x="391" y="517" on="0"/>
        <pt x="426" y="462" on="0"/>
        <pt x="437" y="408" on="0"/>
        <pt x="437" y="367" on="1"/>
        <pt x="437" y="179" on="1"/>
        <pt x="437" y="142" on="0"/>
        <pt x="452" y="96" on="0"/>
        <pt x="477" y="69" on="1"/>
        <pt x="390" y="-12" on="1"/>
        <pt x="367" y="-1" on="0"/>
        <pt x="324" y="43" on="0"/>
        <pt x="314" y="62" on="1"/>
        <pt x="310" y="62" on="1"/>
        <pt x="252" y="-12" on="0"/>
        <pt x="163" y="-12" on="1"/>
        <pt x="19" y="-12" on="0"/>
        <pt x="19" y="137" on="1"/>
        <pt x="19" y="216" on="0"/>
        <pt x="110" y="294" on="0"/>
        <pt x="196" y="309" on="1"/>
        <pt x="283" y="324" on="1"/>
        <pt x="283" y="364" on="1"/>
        <pt x="283" y="397" on="0"/>
        <pt x="255" y="428" on="0"/>
        <pt x="175" y="428" on="0"/>
        <pt x="83" y="399" on="1"/>
        <pt x="40" y="493" on="1"/>
      </contour>
      <contour>
        <pt x="164" y="153" on="1"/>
        <pt x="164" y="104" on="0"/>
        <pt x="216" y="104" on="1"/>
        <pt x="256" y="104" on="0"/>
        <pt x="284" y="132" on="1"/>
        <pt x="284" y="226" on="1"/>
        <pt x="220" y="217" on="0"/>
        <pt x="164" y="186" on="0"/>
      </contour>
      <contour>
        <pt x="196" y="769" on="0"/>
        <pt x="296" y="769" on="0"/>
        <pt x="345" y="713" on="0"/>
        <pt x="345" y="630" on="0"/>
        <pt x="290" y="566" on="0"/>
        <pt x="192" y="566" on="0"/>
        <pt x="142" y="624" on="0"/>
        <pt x="142" y="708" on="0"/>
      </contour>
      <contour>
        <pt x="246" y="630" on="1"/>
        <pt x="261" y="630" on="0"/>
        <pt x="279" y="651" on="0"/>
        <pt x="279" y="666" on="1"/>
        <pt x="279" y="705" on="0"/>
        <pt x="241" y="705" on="1"/>
        <pt x="225" y="705" on="0"/>
        <pt x="208" y="685" on="0"/>
        <pt x="208" y="669" on="1"/>
        <pt x="208" y="630" on="0"/>
      </contour>
    </TTGlyph>
    <TTGlyph name="aringbelow" xMin="15" yMin="-215" xMax="473" yMax="545">
      <contour>
        <pt x="279" y="364" on="1"/>
        <pt x="279" y="397" on="0"/>
        <pt x="251" y="428" on="0"/>
        <pt x="171" y="428" on="0"/>
        <pt x="79" y="399" on="1"/>
        <pt x="36" y="493" on="1"/>
        <pt x="70" y="512" on="0"/>
        <pt x="191" y="545" on="0"/>
        <pt x="308" y="545" on="0"/>
        <pt x="387" y="517" on="0"/>
        <pt x="422" y="462" on="0"/>
        <pt x="433" y="408" on="0"/>
        <pt x="433" y="367" on="1"/>
        <pt x="433" y="179" on="1"/>
        <pt x="433" y="142" on="0"/>
        <pt x="448" y="96" on="0"/>
        <pt x="473" y="69" on="1"/>
        <pt x="386" y="-12" on="1"/>
        <pt x="365" y="-1" on="0"/>
        <pt x="323" y="43" on="0"/>
        <pt x="313" y="62" on="1"/>
        <pt x="310" y="62" on="1"/>
        <pt x="250" y="-12" on="0"/>
        <pt x="159" y="-12" on="1"/>
        <pt x="15" y="-12" on="0"/>
        <pt x="15" y="137" on="1"/>
        <pt x="15" y="216" on="0"/>
        <pt x="106" y="294" on="0"/>
        <pt x="192" y="309" on="1"/>
        <pt x="279" y="324" on="1"/>
      </contour>
      <contour>
        <pt x="160" y="150" on="1"/>
        <pt x="160" y="97" on="0"/>
        <pt x="212" y="97" on="1"/>
        <pt x="251" y="97" on="0"/>
        <pt x="280" y="124" on="1"/>
        <pt x="280" y="226" on="1"/>
        <pt x="216" y="216" on="0"/>
        <pt x="160" y="185" on="0"/>
      </contour>
      <contour>
        <pt x="291" y="-215" on="0"/>
        <pt x="199" y="-215" on="0"/>
        <pt x="152" y="-161" on="0"/>
        <pt x="152" y="-82" on="0"/>
        <pt x="203" y="-25" on="0"/>
        <pt x="297" y="-25" on="0"/>
        <pt x="343" y="-77" on="0"/>
        <pt x="343" y="-155" on="0"/>
      </contour>
      <contour>
        <pt x="250" y="-155" on="1"/>
        <pt x="264" y="-155" on="0"/>
        <pt x="280" y="-136" on="0"/>
        <pt x="280" y="-122" on="1"/>
        <pt x="280" y="-85" on="0"/>
        <pt x="245" y="-85" on="1"/>
        <pt x="231" y="-85" on="0"/>
        <pt x="216" y="-105" on="0"/>
        <pt x="216" y="-119" on="1"/>
        <pt x="216" y="-155" on="0"/>
      </contour>
    </TTGlyph>
    <TTGlyph name="asciicircum" xMin="55" yMin="275" xMax="562" yMax="754">
      <contour>
        <pt x="352" y="754" on="1"/>
        <pt x="562" y="301" on="1"/>
        <pt x="433" y="275" on="1"/>
        <pt x="305" y="555" on="1"/>
        <pt x="185" y="276" on="1"/>
        <pt x="55" y="299" on="1"/>
        <pt x="246" y="736" on="1"/>
      </contour>
    </TTGlyph>
    <TTGlyph name="asciitilde" xMin="29" yMin="194" xMax="483" yMax="357">
      <contour>
        <pt x="346" y="194" on="1"/>
        <pt x="309" y="194" on="0"/>
        <pt x="187" y="243" on="0"/>
        <pt x="158" y="243" on="1"/>
        <pt x="141" y="243" on="0"/>
        <pt x="120" y="236" on="0"/>
        <pt x="113" y="234" on="0"/>
        <pt x="100" y="227" on="0"/>
        <pt x="95" y="224" on="0"/>
        <pt x="81" y="215" on="0"/>
        <pt x="79" y="214" on="1"/>
        <pt x="67" y="204" on="0"/>
        <pt x="58" y="200" on="1"/>
        <pt x="29" y="285" on="1"/>
        <pt x="72" y="324" on="0"/>
        <pt x="129" y="357" on="0"/>
        <pt x="200" y="357" on="0"/>
        <pt x="332" y="303" on="0"/>
        <pt x="374" y="303" on="0"/>
        <pt x="394" y="307" on="0"/>
        <pt x="414" y="317" on="0"/>
        <pt x="426" y="324" on="0"/>
        <pt x="451" y="343" on="0"/>
        <pt x="457" y="347" on="1"/>
        <pt x="483" y="261" on="1"/>
        <pt x="410" y="194" on="0"/>
      </contour>
    </TTGlyph>
    <TTGlyph name="asterisk" xMin="17" yMin="330" xMax="397" yMax="731">
      <contour>
        <pt x="358" y="398" on="1"/>
        <pt x="258" y="453" on="1"/>
        <pt x="231" y="517" on="1"/>
        <pt x="298" y="526" on="1"/>
        <pt x="388" y="470" on="1"/>
      </contour>
      <contour>
        <pt x="55" y="661" on="1"/>
        <pt x="158" y="608" on="1"/>
        <pt x="183" y="544" on="1"/>
        <pt x="112" y="536" on="1"/>
        <pt x="24" y="590" on="1"/>
      </contour>
      <contour>
        <pt x="397" y="595" on="1"/>
        <pt x="302" y="537" on="1"/>
        <pt x="231" y="544" on="1"/>
        <pt x="257" y="607" on="1"/>
        <pt x="352" y="657" on="1"/>
      </contour>
      <contour>
        <pt x="245" y="731" on="1"/>
        <pt x="249" y="615" on="1"/>
        <pt x="207" y="558" on="1"/>
        <pt x="165" y="615" on="1"/>
        <pt x="169" y="721" on="1"/>
      </contour>
      <contour>
        <pt x="170" y="330" on="1"/>
        <pt x="165" y="447" on="1"/>
        <pt x="207" y="503" on="1"/>
        <pt x="249" y="448" on="1"/>
        <pt x="245" y="339" on="1"/>
      </contour>
      <contour>
        <pt x="17" y="464" on="1"/>
        <pt x="114" y="525" on="1"/>
        <pt x="183" y="517" on="1"/>
        <pt x="156" y="452" on="1"/>
        <pt x="63" y="403" on="1"/>
      </contour>
    </TTGlyph>
    <TTGlyph name="at" xMin="36" yMin="-151" xMax="799" yMax="709">
      <contour>
        <pt x="399" y="159" on="1"/>
        <pt x="420" y="159" on="0"/>
        <pt x="459" y="183" on="0"/>
        <pt x="469" y="197" on="1"/>
        <pt x="480" y="339" on="0"/>
        <pt x="487" y="400" on="1"/>
        <pt x="473" y="404" on="0"/>
        <pt x="455" y="404" on="1"/>
        <pt x="398" y="404" on="0"/>
        <pt x="347" y="305" on="0"/>
        <pt x="347" y="242" on="1"/>
        <pt x="347" y="159" on="0"/>
      </contour>
      <contour>
        <pt x="594" y="464" on="1"/>
        <pt x="564" y="172" on="1"/>
        <pt x="564" y="154" on="0"/>
        <pt x="585" y="154" on="1"/>
        <pt x="621" y="154" on="0"/>
        <pt x="687" y="278" on="0"/>
        <pt x="687" y="394" on="1"/>
        <pt x="687" y="453" on="0"/>
        <pt x="646" y="538" on="0"/>
        <pt x="610" y="561" on="1"/>
        <pt x="543" y="605" on="0"/>
        <pt x="446" y="605" on="1"/>
        <pt x="362" y="605" on="0"/>
        <pt x="290" y="558" on="1"/>
        <pt x="250" y="532" on="0"/>
        <pt x="190" y="452" on="0"/>
        <pt x="151" y="322" on="0"/>
        <pt x="151" y="182" on="0"/>
        <pt x="176" y="89" on="0"/>
        <pt x="214" y="31" on="0"/>
        <pt x="270" y="-12" on="0"/>
        <pt x="318" y="-33" on="0"/>
        <pt x="348" y="-39" on="1"/>
        <pt x="388" y="-47" on="0"/>
        <pt x="429" y="-47" on="1"/>
        <pt x="516" y="-47" on="0"/>
        <pt x="608" y="-9" on="1"/>
        <pt x="643" y="-99" on="1"/>
        <pt x="531" y="-151" on="0"/>
        <pt x="400" y="-151" on="1"/>
        <pt x="241" y="-151" on="0"/>
        <pt x="145" y="-66" on="1"/>
        <pt x="36" y="32" on="0"/>
        <pt x="36" y="230" on="1"/>
        <pt x="36" y="352" on="0"/>
        <pt x="111" y="542" on="0"/>
        <pt x="174" y="598" on="1"/>
        <pt x="299" y="709" on="0"/>
        <pt x="623" y="709" on="0"/>
        <pt x="799" y="547" on="0"/>
        <pt x="799" y="407" on="1"/>
        <pt x="799" y="244" on="0"/>
        <pt x="662" y="61" on="0"/>
        <pt x="563" y="61" on="1"/>
        <pt x="504" y="61" on="0"/>
        <pt x="491" y="117" on="1"/>
        <pt x="487" y="117" on="1"/>
        <pt x="440" y="65" on="0"/>
        <pt x="303" y="65" on="0"/>
        <pt x="239" y="164" on="0"/>
        <pt x="239" y="338" on="0"/>
        <pt x="351" y="496" on="0"/>
        <pt x="447" y="496" on="1"/>
        <pt x="521" y="496" on="0"/>
      </contour>
    </TTGlyph>
    <TTGlyph name="atilde" xMin="19" yMin="-12" xMax="477" yMax="720">
      <contour>
        <pt x="280" y="586" on="1"/>
        <pt x="254" y="586" on="0"/>
        <pt x="179" y="618" on="0"/>
        <pt x="160" y="618" on="1"/>
        <pt x="122" y="618" on="0"/>
        <pt x="82" y="588" on="1"/>
        <pt x="50" y="661" on="1"/>
        <pt x="110" y="720" on="0"/>
        <pt x="177" y="720" on="1"/>
        <pt x="204" y="720" on="0"/>
        <pt x="274" y="689" on="0"/>
        <pt x="324" y="689" on="0"/>
        <pt x="376" y="720" on="1"/>
        <pt x="406" y="646" on="1"/>
        <pt x="337" y="586" on="0"/>
      </contour>
      <contour>
        <pt x="283" y="364" on="1"/>
        <pt x="283" y="397" on="0"/>
        <pt x="255" y="428" on="0"/>
        <pt x="175" y="428" on="0"/>
        <pt x="83" y="399" on="1"/>
        <pt x="40" y="493" on="1"/>
        <pt x="74" y="512" on="0"/>
        <pt x="195" y="545" on="0"/>
        <pt x="312" y="545" on="0"/>
        <pt x="391" y="517" on="0"/>
        <pt x="426" y="462" on="0"/>
        <pt x="437" y="408" on="0"/>
        <pt x="437" y="367" on="1"/>
        <pt x="437" y="179" on="1"/>
        <pt x="437" y="142" on="0"/>
        <pt x="452" y="96" on="0"/>
        <pt x="477" y="69" on="1"/>
        <pt x="390" y="-12" on="1"/>
        <pt x="367" y="-1" on="0"/>
        <pt x="324" y="43" on="0"/>
        <pt x="314" y="62" on="1"/>
        <pt x="310" y="62" on="1"/>
        <pt x="252" y="-12" on="0"/>
        <pt x="163" y="-12" on="1"/>
        <pt x="19" y="-12" on="0"/>
        <pt x="19" y="137" on="1"/>
        <pt x="19" y="216" on="0"/>
        <pt x="110" y="294" on="0"/>
        <pt x="196" y="309" on="1"/>
        <pt x="283" y="324" on="1"/>
      </contour>
      <contour>
        <pt x="164" y="153" on="1"/>
        <pt x="164" y="104" on="0"/>
        <pt x="216" y="104" on="1"/>
        <pt x="256" y="104" on="0"/>
        <pt x="284" y="132" on="1"/>
        <pt x="284" y="226" on="1"/>
        <pt x="220" y="217" on="0"/>
        <pt x="164" y="186" on="0"/>
      </contour>
    </TTGlyph>
    <TTGlyph name="b" xMin="46" yMin="-12" xMax="499" yMax="769">
      <contour>
        <pt x="435" y="494" on="1"/>
        <pt x="499" y="434" on="0"/>
        <pt x="499" y="279" on="1"/>
        <pt x="499" y="198" on="0"/>
        <pt x="457" y="79" on="0"/>
        <pt x="421" y="48" on="1"/>
        <pt x="353" y="-12" on="0"/>
        <pt x="261" y="-12" on="1"/>
        <pt x="139" y="-12" on="0"/>
        <pt x="46" y="57" on="1"/>
        <pt x="46" y="752" on="1"/>
        <pt x="199" y="769" on="1"/>
        <pt x="199" y="550" on="1"/>
        <pt x="185" y="513" on="1"/>
        <pt x="189" y="510" on="1"/>
        <pt x="231" y="545" on="0"/>
        <pt x="380" y="545" on="0"/>
      </contour>
      <contour>
        <pt x="199" y="124" on="1"/>
        <pt x="222" y="107" on="0"/>
        <pt x="272" y="107" on="0"/>
        <pt x="295" y="115" on="0"/>
        <pt x="308" y="130" on="1"/>
        <pt x="336" y="159" on="0"/>
        <pt x="336" y="360" on="0"/>
        <pt x="299" y="426" on="0"/>
        <pt x="221" y="426" on="0"/>
        <pt x="199" y="399" on="1"/>
      </contour>
    </TTGlyph>
    <TTGlyph name="backslash" xMin="6" yMin="-115" xMax="336" yMax="763">
      <contour>
        <pt x="128" y="763" on="1"/>
        <pt x="336" y="-115" on="1"/>
        <pt x="213" y="-115" on="1"/>
        <pt x="6" y="763" on="1"/>
      </contour>
    </TTGlyph>
    <TTGlyph name="bar" xMin="72" yMin="-150" xMax="206" yMax="760">
      <contour>
        <pt x="206" y="760" on="1"/>
        <pt x="206" y="-150" on="1"/>
        <pt x="72" y="-150" on="1"/>
        <pt x="72" y="760" on="1"/>
      </contour>
    </TTGlyph>
    <TTGlyph name="braceleft" xMin="39" yMin="-190" xMax="383" yMax="816">
      <contour>
        <pt x="260" y="174" on="1"/>
        <pt x="249" y="19" on="1"/>
        <pt x="249" y="-25" on="0"/>
        <pt x="305" y="-90" on="0"/>
        <pt x="368" y="-96" on="1"/>
        <pt x="383" y="-190" on="1"/>
        <pt x="322" y="-190" on="1"/>
        <pt x="252" y="-190" on="0"/>
        <pt x="190" y="-148" on="1"/>
        <pt x="158" y="-126" on="0"/>
        <pt x="118" y="-48" on="0"/>
        <pt x="118" y="28" on="0"/>
        <pt x="129" y="137" on="0"/>
        <pt x="129" y="212" on="0"/>
        <pt x="84" y="251" on="0"/>
        <pt x="39" y="258" on="1"/>
        <pt x="39" y="369" on="1"/>
        <pt x="83" y="374" on="0"/>
        <pt x="129" y="415" on="0"/>
        <pt x="129" y="484" on="0"/>
        <pt x="118" y="594" on="0"/>
        <pt x="118" y="675" on="0"/>
        <pt x="158" y="753" on="0"/>
        <pt x="190" y="774" on="1"/>
        <pt x="254" y="816" on="0"/>
        <pt x="322" y="816" on="1"/>
        <pt x="382" y="816" on="1"/>
        <pt x="368" y="722" on="1"/>
        <pt x="305" y="716" on="0"/>
        <pt x="250" y="651" on="0"/>
        <pt x="250" y="607" on="1"/>
        <pt x="260" y="451" on="1"/>
        <pt x="260" y="398" on="0"/>
        <pt x="197" y="324" on="0"/>
        <pt x="163" y="315" on="1"/>
        <pt x="163" y="309" on="1"/>
        <pt x="197" y="300" on="0"/>
        <pt x="260" y="227" on="0"/>
      </contour>
    </TTGlyph>
    <TTGlyph name="braceright" xMin="-10" yMin="-190" xMax="334" yMax="816">
      <contour>
        <pt x="113" y="451" on="1"/>
        <pt x="123" y="607" on="1"/>
        <pt x="123" y="651" on="0"/>
        <pt x="68" y="716" on="0"/>
        <pt x="5" y="722" on="1"/>
        <pt x="-9" y="816" on="1"/>
        <pt x="51" y="816" on="1"/>
        <pt x="119" y="816" on="0"/>
        <pt x="183" y="774" on="1"/>
        <pt x="215" y="753" on="0"/>
        <pt x="255" y="675" on="0"/>
        <pt x="255" y="594" on="0"/>
        <pt x="244" y="484" on="0"/>
        <pt x="244" y="458" on="1"/>
        <pt x="244" y="379" on="0"/>
        <pt x="334" y="369" on="1"/>
        <pt x="334" y="258" on="1"/>
        <pt x="290" y="251" on="0"/>
        <pt x="244" y="212" on="0"/>
        <pt x="244" y="137" on="0"/>
        <pt x="255" y="28" on="0"/>
        <pt x="255" y="-48" on="0"/>
        <pt x="215" y="-126" on="0"/>
        <pt x="184" y="-148" on="1"/>
        <pt x="121" y="-190" on="0"/>
        <pt x="51" y="-190" on="1"/>
        <pt x="-10" y="-190" on="1"/>
        <pt x="5" y="-96" on="1"/>
        <pt x="68" y="-90" on="0"/>
        <pt x="125" y="-25" on="0"/>
        <pt x="125" y="19" on="1"/>
        <pt x="125" y="45" on="0"/>
        <pt x="113" y="147" on="0"/>
        <pt x="113" y="174" on="1"/>
        <pt x="113" y="227" on="0"/>
        <pt x="176" y="300" on="0"/>
        <pt x="210" y="309" on="1"/>
        <pt x="210" y="315" on="1"/>
        <pt x="176" y="324" on="0"/>
        <pt x="113" y="398" on="0"/>
      </contour>
    </TTGlyph>
    <TTGlyph name="bracketleft" xMin="69" yMin="-167" xMax="305" yMax="808">
      <contour>
        <pt x="305" y="808" on="1"/>
        <pt x="305" y="691" on="1"/>
        <pt x="199" y="691" on="1"/>
        <pt x="199" y="-50" on="1"/>
        <pt x="305" y="-50" on="1"/>
        <pt x="305" y="-167" on="1"/>
        <pt x="69" y="-167" on="1"/>
        <pt x="69" y="808" on="1"/>
      </contour>
    </TTGlyph>
    <TTGlyph name="bracketright" xMin="34" yMin="-167" xMax="271" yMax="808">
      <contour>
        <pt x="271" y="808" on="1"/>
        <pt x="271" y="-167" on="1"/>
        <pt x="34" y="-167" on="1"/>
        <pt x="34" y="-50" on="1"/>
        <pt x="141" y="-50" on="1"/>
        <pt x="141" y="691" on="1"/>
        <pt x="34" y="691" on="1"/>
        <pt x="34" y="808" on="1"/>
      </contour>
    </TTGlyph>
    <TTGlyph name="breve" xMin="21" yMin="588" xMax="341" yMax="725">
      <contour>
        <pt x="341" y="672" on="1"/>
        <pt x="280" y="588" on="0"/>
        <pt x="86" y="588" on="0"/>
        <pt x="21" y="672" on="1"/>
        <pt x="72" y="725" on="1"/>
        <pt x="128" y="681" on="0"/>
        <pt x="230" y="681" on="0"/>
        <pt x="291" y="725" on="1"/>
      </contour>
    </TTGlyph>
    <TTGlyph name="brokenbar" xMin="62" yMin="-150" xMax="199" yMax="760">
      <contour>
        <pt x="62" y="216" on="1"/>
        <pt x="199" y="216" on="1"/>
        <pt x="199" y="-150" on="1"/>
        <pt x="62" y="-150" on="1"/>
      </contour>
      <contour>
        <pt x="62" y="760" on="1"/>
        <pt x="199" y="760" on="1"/>
        <pt x="199" y="394" on="1"/>
        <pt x="62" y="394" on="1"/>
      </contour>
    </TTGlyph>
    <TTGlyph name="bullet" xMin="52" yMin="137" xMax="333" yMax="431">
      <contour>
        <pt x="312" y="376" on="1"/>
        <pt x="333" y="329" on="0"/>
        <pt x="333" y="213" on="0"/>
        <pt x="258" y="137" on="0"/>
        <pt x="182" y="137" on="1"/>
        <pt x="98" y="137" on="0"/>
        <pt x="73" y="192" on="1"/>
        <pt x="52" y="238" on="0"/>
        <pt x="52" y="355" on="0"/>
        <pt x="126" y="431" on="0"/>
        <pt x="287" y="431" on="0"/>
      </contour>
    </TTGlyph>
    <TTGlyph name="c" xMin="29" yMin="-12" xMax="461" yMax="545">
      <contour>
        <pt x="29" y="392" on="0"/>
        <pt x="155" y="545" on="0"/>
        <pt x="378" y="545" on="0"/>
        <pt x="453" y="443" on="0"/>
        <pt x="453" y="338" on="1"/>
        <pt x="308" y="332" on="1"/>
        <pt x="308" y="390" on="0"/>
        <pt x="289" y="426" on="0"/>
        <pt x="221" y="426" on="0"/>
        <pt x="192" y="353" on="0"/>
        <pt x="192" y="181" on="0"/>
        <pt x="241" y="107" on="0"/>
        <pt x="350" y="107" on="0"/>
        <pt x="429" y="137" on="1"/>
        <pt x="461" y="46" on="1"/>
        <pt x="377" y="-12" on="0"/>
        <pt x="259" y="-12" on="1"/>
        <pt x="29" y="-12" on="0"/>
        <pt x="29" y="259" on="1"/>
      </contour>
    </TTGlyph>
    <TTGlyph name="cacute" xMin="29" yMin="-12" xMax="461" yMax="762">
      <contour>
        <pt x="29" y="392" on="0"/>
        <pt x="155" y="545" on="0"/>
        <pt x="378" y="545" on="0"/>
        <pt x="453" y="443" on="0"/>
        <pt x="453" y="338" on="1"/>
        <pt x="308" y="332" on="1"/>
        <pt x="308" y="390" on="0"/>
        <pt x="289" y="426" on="0"/>
        <pt x="221" y="426" on="0"/>
        <pt x="192" y="353" on="0"/>
        <pt x="192" y="181" on="0"/>
        <pt x="241" y="107" on="0"/>
        <pt x="350" y="107" on="0"/>
        <pt x="429" y="137" on="1"/>
        <pt x="461" y="46" on="1"/>
        <pt x="377" y="-12" on="0"/>
        <pt x="259" y="-12" on="1"/>
        <pt x="29" y="-12" on="0"/>
        <pt x="29" y="259" on="1"/>
      </contour>
      <contour>
        <pt x="364" y="762" on="1"/>
        <pt x="420" y="659" on="1"/>
        <pt x="196" y="562" on="1"/>
        <pt x="148" y="641" on="1"/>
      </contour>
    </TTGlyph>
    <TTGlyph name="caron" xMin="22" yMin="573" xMax="354" yMax="752">
      <contour>
        <pt x="354" y="695" on="1"/>
        <pt x="222" y="573" on="1"/>
        <pt x="153" y="573" on="1"/>
        <pt x="22" y="695" on="1"/>
        <pt x="77" y="752" on="1"/>
        <pt x="188" y="668" on="1"/>
        <pt x="299" y="752" on="1"/>
      </contour>
    </TTGlyph>
    <TTGlyph name="caron.case" xMin="22" yMin="743" xMax="354" yMax="925">
      <contour>
        <pt x="354" y="868" on="1"/>
        <pt x="222" y="743" on="1"/>
        <pt x="154" y="743" on="1"/>
        <pt x="22" y="868" on="1"/>
        <pt x="77" y="925" on="1"/>
        <pt x="188" y="844" on="1"/>
        <pt x="299" y="925" on="1"/>
      </contour>
    </TTGlyph>
    <TTGlyph name="ccaron" xMin="29" yMin="-12" xMax="461" yMax="752">
      <contour>
        <pt x="29" y="392" on="0"/>
        <pt x="155" y="545" on="0"/>
        <pt x="378" y="545" on="0"/>
        <pt x="453" y="443" on="0"/>
        <pt x="453" y="338" on="1"/>
        <pt x="308" y="332" on="1"/>
        <pt x="308" y="390" on="0"/>
        <pt x="289" y="426" on="0"/>
        <pt x="221" y="426" on="0"/>
        <pt x="192" y="353" on="0"/>
        <pt x="192" y="181" on="0"/>
        <pt x="241" y="107" on="0"/>
        <pt x="350" y="107" on="0"/>
        <pt x="429" y="137" on="1"/>
        <pt x="461" y="46" on="1"/>
        <pt x="377" y="-12" on="0"/>
        <pt x="259" y="-12" on="1"/>
        <pt x="29" y="-12" on="0"/>
        <pt x="29" y="259" on="1"/>
      </contour>
      <contour>
        <pt x="428" y="695" on="1"/>
        <pt x="296" y="573" on="1"/>
        <pt x="227" y="573" on="1"/>
        <pt x="96" y="695" on="1"/>
        <pt x="151" y="752" on="1"/>
        <pt x="262" y="668" on="1"/>
        <pt x="373" y="752" on="1"/>
      </contour>
    </TTGlyph>
    <TTGlyph name="ccedilla" xMin="29" yMin="-196" xMax="461" yMax="545">
      <contour>
        <pt x="29" y="392" on="0"/>
        <pt x="155" y="545" on="0"/>
        <pt x="378" y="545" on="0"/>
        <pt x="453" y="443" on="0"/>
        <pt x="453" y="338" on="1"/>
        <pt x="308" y="332" on="1"/>
        <pt x="308" y="390" on="0"/>
        <pt x="289" y="426" on="0"/>
        <pt x="221" y="426" on="0"/>
        <pt x="192" y="353" on="0"/>
        <pt x="192" y="181" on="0"/>
        <pt x="241" y="107" on="0"/>
        <pt x="350" y="107" on="0"/>
        <pt x="429" y="137" on="1"/>
        <pt x="461" y="46" on="1"/>
        <pt x="380" y="-9" on="0"/>
        <pt x="270" y="-11" on="1"/>
        <pt x="267" y="-40" on="1"/>
        <pt x="270" y="-41" on="0"/>
        <pt x="290" y="-46" on="0"/>
        <pt x="299" y="-50" on="0"/>
        <pt x="316" y="-57" on="0"/>
        <pt x="325" y="-66" on="0"/>
        <pt x="330" y="-72" on="1"/>
        <pt x="340" y="-84" on="0"/>
        <pt x="340" y="-109" on="1"/>
        <pt x="340" y="-152" on="0"/>
        <pt x="286" y="-196" on="0"/>
        <pt x="195" y="-196" on="0"/>
        <pt x="149" y="-174" on="1"/>
        <pt x="170" y="-121" on="1"/>
        <pt x="211" y="-132" on="0"/>
        <pt x="256" y="-132" on="0"/>
        <pt x="256" y="-93" on="0"/>
        <pt x="190" y="-81" on="1"/>
        <pt x="188" y="-81" on="0"/>
        <pt x="184" y="-80" on="0"/>
        <pt x="183" y="-80" on="1"/>
        <pt x="201" y="-8" on="1"/>
        <pt x="29" y="23" on="0"/>
        <pt x="29" y="259" on="1"/>
      </contour>
    </TTGlyph>
    <TTGlyph name="cdotaccent" xMin="29" yMin="-12" xMax="461" yMax="745">
      <contour>
        <pt x="29" y="392" on="0"/>
        <pt x="155" y="545" on="0"/>
        <pt x="378" y="545" on="0"/>
        <pt x="453" y="443" on="0"/>
        <pt x="453" y="338" on="1"/>
        <pt x="308" y="332" on="1"/>
        <pt x="308" y="390" on="0"/>
        <pt x="289" y="426" on="0"/>
        <pt x="221" y="426" on="0"/>
        <pt x="192" y="353" on="0"/>
        <pt x="192" y="181" on="0"/>
        <pt x="241" y="107" on="0"/>
        <pt x="350" y="107" on="0"/>
        <pt x="429" y="137" on="1"/>
        <pt x="461" y="46" on="1"/>
        <pt x="377" y="-12" on="0"/>
        <pt x="259" y="-12" on="1"/>
        <pt x="29" y="-12" on="0"/>
        <pt x="29" y="259" on="1"/>
      </contour>
      <contour>
        <pt x="249" y="569" on="1"/>
        <pt x="167" y="569" on="0"/>
        <pt x="167" y="662" on="1"/>
        <pt x="167" y="698" on="0"/>
        <pt x="211" y="745" on="0"/>
        <pt x="260" y="745" on="1"/>
        <pt x="343" y="745" on="0"/>
        <pt x="343" y="651" on="1"/>
        <pt x="343" y="615" on="0"/>
        <pt x="299" y="569" on="0"/>
      </contour>
    </TTGlyph>
    <TTGlyph name="cedilla" xMin="22" yMin="-196" xMax="213" yMax="26">
      <contour>
        <pt x="213" y="-66" on="0"/>
        <pt x="213" y="-152" on="0"/>
        <pt x="159" y="-196" on="0"/>
        <pt x="68" y="-196" on="0"/>
        <pt x="22" y="-174" on="1"/>
        <pt x="43" y="-121" on="1"/>
        <pt x="81" y="-132" on="0"/>
        <pt x="129" y="-132" on="0"/>
        <pt x="129" y="-112" on="1"/>
        <pt x="129" y="-96" on="0"/>
        <pt x="66" y="-82" on="0"/>
        <pt x="56" y="-80" on="1"/>
        <pt x="84" y="26" on="1"/>
        <pt x="148" y="26" on="1"/>
        <pt x="140" y="-40" on="1"/>
        <pt x="145" y="-42" on="0"/>
        <pt x="169" y="-48" on="0"/>
        <pt x="174" y="-50" on="1"/>
      </contour>
    </TTGlyph>
    <TTGlyph name="cent" xMin="44" yMin="-88" xMax="485" yMax="764">
      <contour>
        <pt x="318" y="506" on="1"/>
        <pt x="205" y="506" on="0"/>
        <pt x="205" y="328" on="1"/>
        <pt x="205" y="247" on="0"/>
        <pt x="247" y="183" on="0"/>
        <pt x="350" y="183" on="0"/>
        <pt x="419" y="214" on="1"/>
        <pt x="451" y="130" on="1"/>
        <pt x="391" y="81" on="0"/>
        <pt x="311" y="70" on="1"/>
        <pt x="315" y="-70" on="1"/>
        <pt x="167" y="-88" on="1"/>
        <pt x="195" y="74" on="1"/>
        <pt x="123" y="91" on="0"/>
        <pt x="44" y="206" on="0"/>
        <pt x="44" y="300" on="1"/>
        <pt x="44" y="428" on="0"/>
        <pt x="148" y="598" on="0"/>
        <pt x="250" y="616" on="1"/>
        <pt x="248" y="746" on="1"/>
        <pt x="397" y="764" on="1"/>
        <pt x="367" y="617" on="1"/>
        <pt x="435" y="603" on="0"/>
        <pt x="485" y="562" on="1"/>
        <pt x="433" y="476" on="1"/>
        <pt x="356" y="506" on="0"/>
      </contour>
    </TTGlyph>
    <TTGlyph name="circumflex" xMin="22" yMin="566" xMax="354" yMax="752">
      <contour>
        <pt x="222" y="752" on="1"/>
        <pt x="354" y="623" on="1"/>
        <pt x="299" y="566" on="1"/>
        <pt x="188" y="651" on="1"/>
        <pt x="77" y="566" on="1"/>
        <pt x="22" y="623" on="1"/>
        <pt x="153" y="752" on="1"/>
      </contour>
    </TTGlyph>
    <TTGlyph name="circumflex.case" xMin="22" yMin="743" xMax="354" yMax="924">
      <contour>
        <pt x="222" y="924" on="1"/>
        <pt x="354" y="800" on="1"/>
        <pt x="299" y="743" on="1"/>
        <pt x="188" y="824" on="1"/>
        <pt x="77" y="743" on="1"/>
        <pt x="22" y="800" on="1"/>
        <pt x="154" y="924" on="1"/>
      </contour>
    </TTGlyph>
    <TTGlyph name="colon" xMin="47" yMin="-12" xMax="226" yMax="508">
      <contour>
        <pt x="141" y="167" on="1"/>
        <pt x="226" y="167" on="0"/>
        <pt x="226" y="73" on="1"/>
        <pt x="226" y="37" on="0"/>
        <pt x="180" y="-12" on="0"/>
        <pt x="132" y="-12" on="1"/>
        <pt x="47" y="-12" on="0"/>
        <pt x="47" y="81" on="1"/>
        <pt x="47" y="117" on="0"/>
        <pt x="93" y="167" on="0"/>
      </contour>
      <contour>
        <pt x="141" y="508" on="1"/>
        <pt x="226" y="508" on="0"/>
        <pt x="226" y="414" on="1"/>
        <pt x="226" y="378" on="0"/>
        <pt x="180" y="329" on="0"/>
        <pt x="132" y="329" on="1"/>
        <pt x="47" y="329" on="0"/>
        <pt x="47" y="423" on="1"/>
        <pt x="47" y="459" on="0"/>
        <pt x="93" y="508" on="0"/>
      </contour>
    </TTGlyph>
    <TTGlyph name="comma" xMin="-33" yMin="-171" xMax="189" yMax="147">
      <contour>
        <pt x="186" y="147" on="1"/>
        <pt x="189" y="111" on="0"/>
        <pt x="189" y="26" on="0"/>
        <pt x="181" y="-15" on="0"/>
        <pt x="168" y="-46" on="1"/>
        <pt x="140" y="-110" on="0"/>
        <pt x="32" y="-171" on="1"/>
        <pt x="-33" y="-104" on="1"/>
        <pt x="17" y="-59" on="0"/>
        <pt x="48" y="-3" on="0"/>
        <pt x="48" y="96" on="0"/>
        <pt x="44" y="128" on="1"/>
      </contour>
    </TTGlyph>
    <TTGlyph name="commaaccent" xMin="21" yMin="-244" xMax="179" yMax="-29">
      <contour>
        <pt x="52" y="-164" on="0"/>
        <pt x="71" y="-134" on="0"/>
        <pt x="71" y="-110" on="0"/>
        <pt x="61" y="-40" on="1"/>
        <pt x="171" y="-29" on="1"/>
        <pt x="179" y="-98" on="0"/>
        <pt x="179" y="-145" on="0"/>
        <pt x="136" y="-199" on="0"/>
        <pt x="71" y="-244" on="1"/>
        <pt x="21" y="-195" on="1"/>
      </contour>
    </TTGlyph>
    <TTGlyph name="copyright" xMin="39" yMin="-94" xMax="722" yMax="627">
      <contour>
        <pt x="225" y="356" on="0"/>
        <pt x="313" y="467" on="0"/>
        <pt x="468" y="467" on="0"/>
        <pt x="527" y="391" on="0"/>
        <pt x="527" y="321" on="1"/>
        <pt x="433" y="312" on="1"/>
        <pt x="433" y="352" on="0"/>
        <pt x="414" y="384" on="0"/>
        <pt x="385" y="384" on="1"/>
        <pt x="329" y="384" on="0"/>
        <pt x="329" y="150" on="0"/>
        <pt x="386" y="150" on="1"/>
        <pt x="410" y="150" on="0"/>
        <pt x="433" y="177" on="0"/>
        <pt x="433" y="212" on="1"/>
        <pt x="527" y="204" on="1"/>
        <pt x="527" y="148" on="0"/>
        <pt x="450" y="65" on="0"/>
        <pt x="389" y="65" on="1"/>
        <pt x="310" y="65" on="0"/>
        <pt x="225" y="164" on="0"/>
      </contour>
      <contour>
        <pt x="39" y="425" on="0"/>
        <pt x="232" y="627" on="0"/>
        <pt x="553" y="627" on="0"/>
        <pt x="722" y="429" on="0"/>
        <pt x="722" y="107" on="0"/>
        <pt x="530" y="-94" on="0"/>
        <pt x="208" y="-94" on="0"/>
        <pt x="39" y="103" on="0"/>
      </contour>
      <contour>
        <pt x="631" y="393" on="0"/>
        <pt x="513" y="541" on="0"/>
        <pt x="270" y="541" on="0"/>
        <pt x="130" y="388" on="0"/>
        <pt x="130" y="141" on="0"/>
        <pt x="253" y="-8" on="0"/>
        <pt x="491" y="-8" on="0"/>
        <pt x="631" y="143" on="0"/>
      </contour>
    </TTGlyph>
    <TTGlyph name="currency" xMin="37" yMin="33" xMax="621" yMax="649">
      <contour>
        <pt x="527" y="477" on="1"/>
        <pt x="558" y="428" on="0"/>
        <pt x="558" y="262" on="0"/>
        <pt x="510" y="196" on="1"/>
        <pt x="588" y="120" on="1"/>
        <pt x="481" y="33" on="1"/>
        <pt x="417" y="127" on="1"/>
        <pt x="365" y="107" on="0"/>
        <pt x="245" y="107" on="0"/>
        <pt x="203" y="124" on="1"/>
        <pt x="141" y="33" on="1"/>
        <pt x="37" y="122" on="1"/>
        <pt x="113" y="195" on="1"/>
        <pt x="84" y="242" on="0"/>
        <pt x="84" y="313" on="1"/>
        <pt x="84" y="421" on="0"/>
        <pt x="147" y="488" on="1"/>
        <pt x="76" y="567" on="1"/>
        <pt x="188" y="648" on="1"/>
        <pt x="246" y="547" on="1"/>
        <pt x="288" y="560" on="0"/>
        <pt x="397" y="560" on="0"/>
        <pt x="439" y="544" on="1"/>
        <pt x="522" y="649" on="1"/>
        <pt x="621" y="557" on="1"/>
      </contour>
      <contour>
        <pt x="328" y="443" on="1"/>
        <pt x="240" y="443" on="0"/>
        <pt x="240" y="318" on="1"/>
        <pt x="240" y="225" on="0"/>
        <pt x="313" y="225" on="1"/>
        <pt x="402" y="225" on="0"/>
        <pt x="402" y="349" on="1"/>
        <pt x="402" y="443" on="0"/>
      </contour>
    </TTGlyph>
    <TTGlyph name="d" xMin="29" yMin="-12" xMax="493" yMax="769">
      <contour>
        <pt x="136" y="517" on="0"/>
        <pt x="204" y="545" on="0"/>
        <pt x="307" y="545" on="0"/>
        <pt x="341" y="524" on="1"/>
        <pt x="344" y="527" on="1"/>
        <pt x="329" y="554" on="1"/>
        <pt x="329" y="752" on="1"/>
        <pt x="482" y="769" on="1"/>
        <pt x="482" y="158" on="1"/>
        <pt x="493" y="9" on="1"/>
        <pt x="374" y="-6" on="1"/>
        <pt x="360" y="57" on="1"/>
        <pt x="356" y="57" on="1"/>
        <pt x="300" y="-12" on="0"/>
        <pt x="221" y="-12" on="1"/>
        <pt x="29" y="-12" on="0"/>
        <pt x="29" y="255" on="1"/>
        <pt x="29" y="336" on="0"/>
        <pt x="70" y="456" on="0"/>
      </contour>
      <contour>
        <pt x="329" y="410" on="1"/>
        <pt x="305" y="426" on="0"/>
        <pt x="259" y="426" on="0"/>
        <pt x="235" y="417" on="0"/>
        <pt x="221" y="402" on="1"/>
        <pt x="192" y="371" on="0"/>
        <pt x="192" y="170" on="0"/>
        <pt x="226" y="107" on="0"/>
        <pt x="305" y="107" on="0"/>
        <pt x="329" y="137" on="1"/>
      </contour>
    </TTGlyph>
</ttFont>
